<?xml version="1.0" encoding="utf-8" standalone="no"?>
<!DOCTYPE svg PUBLIC "-//W3C//DTD SVG 1.1//EN"
  "http://www.w3.org/Graphics/SVG/1.1/DTD/svg11.dtd">
<svg xmlns:xlink="http://www.w3.org/1999/xlink" width="558.424437pt" height="345.42825pt" viewBox="0 0 558.424437 345.42825" xmlns="http://www.w3.org/2000/svg" version="1.1">
 <metadata>
  <rdf:RDF xmlns:dc="http://purl.org/dc/elements/1.1/" xmlns:cc="http://creativecommons.org/ns#" xmlns:rdf="http://www.w3.org/1999/02/22-rdf-syntax-ns#">
   <cc:Work>
    <dc:type rdf:resource="http://purl.org/dc/dcmitype/StillImage"/>
    <dc:date>2023-01-27T17:51:09.275073</dc:date>
    <dc:format>image/svg+xml</dc:format>
    <dc:creator>
     <cc:Agent>
      <dc:title>Matplotlib v3.6.3, https://matplotlib.org/</dc:title>
     </cc:Agent>
    </dc:creator>
   </cc:Work>
  </rdf:RDF>
 </metadata>
 <defs>
  <style type="text/css">*{stroke-linejoin: round; stroke-linecap: butt}</style>
 </defs>
 <g id="figure_1">
  <g id="patch_1">
   <path d="M 0 345.42825 
L 558.424437 345.42825 
L 558.424437 -0 
L 0 -0 
L 0 345.42825 
z
" style="fill: none; opacity: 0"/>
  </g>
  <g id="axes_1">
   <g id="patch_2">
    <path d="M 37.848438 307.872 
L 394.968438 307.872 
L 394.968438 41.76 
L 37.848438 41.76 
z
" style="fill: #ffffff"/>
   </g>
   <g id="matplotlib.axis_1">
    <g id="xtick_1">
     <g id="line2d_1">
      <defs>
       <path id="mb35fbcb0e0" d="M 0 0 
L 0 3.5 
" style="stroke: #000000; stroke-width: 0.8"/>
      </defs>
      <g>
       <use xlink:href="#mb35fbcb0e0" x="87.660592" y="307.872" style="stroke: #000000; stroke-width: 0.8"/>
      </g>
     </g>
     <g id="text_1">
      <!-- -2 -->
      <g transform="translate(82.675436 322.470438) scale(0.1 -0.1)">
       <defs>
        <path id="DejaVuSans-2d" d="M 313 2009 
L 1997 2009 
L 1997 1497 
L 313 1497 
L 313 2009 
z
" transform="scale(0.015625)"/>
        <path id="DejaVuSans-32" d="M 1228 531 
L 3431 531 
L 3431 0 
L 469 0 
L 469 531 
Q 828 903 1448 1529 
Q 2069 2156 2228 2338 
Q 2531 2678 2651 2914 
Q 2772 3150 2772 3378 
Q 2772 3750 2511 3984 
Q 2250 4219 1831 4219 
Q 1534 4219 1204 4116 
Q 875 4013 500 3803 
L 500 4441 
Q 881 4594 1212 4672 
Q 1544 4750 1819 4750 
Q 2544 4750 2975 4387 
Q 3406 4025 3406 3419 
Q 3406 3131 3298 2873 
Q 3191 2616 2906 2266 
Q 2828 2175 2409 1742 
Q 1991 1309 1228 531 
z
" transform="scale(0.015625)"/>
       </defs>
       <use xlink:href="#DejaVuSans-2d"/>
       <use xlink:href="#DejaVuSans-32" x="36.083984"/>
      </g>
     </g>
    </g>
    <g id="xtick_2">
     <g id="line2d_2">
      <g>
       <use xlink:href="#mb35fbcb0e0" x="145.010896" y="307.872" style="stroke: #000000; stroke-width: 0.8"/>
      </g>
     </g>
     <g id="text_2">
      <!-- 0 -->
      <g transform="translate(141.829646 322.470438) scale(0.1 -0.1)">
       <defs>
        <path id="DejaVuSans-30" d="M 2034 4250 
Q 1547 4250 1301 3770 
Q 1056 3291 1056 2328 
Q 1056 1369 1301 889 
Q 1547 409 2034 409 
Q 2525 409 2770 889 
Q 3016 1369 3016 2328 
Q 3016 3291 2770 3770 
Q 2525 4250 2034 4250 
z
M 2034 4750 
Q 2819 4750 3233 4129 
Q 3647 3509 3647 2328 
Q 3647 1150 3233 529 
Q 2819 -91 2034 -91 
Q 1250 -91 836 529 
Q 422 1150 422 2328 
Q 422 3509 836 4129 
Q 1250 4750 2034 4750 
z
" transform="scale(0.015625)"/>
       </defs>
       <use xlink:href="#DejaVuSans-30"/>
      </g>
     </g>
    </g>
    <g id="xtick_3">
     <g id="line2d_3">
      <g>
       <use xlink:href="#mb35fbcb0e0" x="202.361199" y="307.872" style="stroke: #000000; stroke-width: 0.8"/>
      </g>
     </g>
     <g id="text_3">
      <!-- 2 -->
      <g transform="translate(199.179949 322.470438) scale(0.1 -0.1)">
       <use xlink:href="#DejaVuSans-32"/>
      </g>
     </g>
    </g>
    <g id="xtick_4">
     <g id="line2d_4">
      <g>
       <use xlink:href="#mb35fbcb0e0" x="259.711503" y="307.872" style="stroke: #000000; stroke-width: 0.8"/>
      </g>
     </g>
     <g id="text_4">
      <!-- 4 -->
      <g transform="translate(256.530253 322.470438) scale(0.1 -0.1)">
       <defs>
        <path id="DejaVuSans-34" d="M 2419 4116 
L 825 1625 
L 2419 1625 
L 2419 4116 
z
M 2253 4666 
L 3047 4666 
L 3047 1625 
L 3713 1625 
L 3713 1100 
L 3047 1100 
L 3047 0 
L 2419 0 
L 2419 1100 
L 313 1100 
L 313 1709 
L 2253 4666 
z
" transform="scale(0.015625)"/>
       </defs>
       <use xlink:href="#DejaVuSans-34"/>
      </g>
     </g>
    </g>
    <g id="xtick_5">
     <g id="line2d_5">
      <g>
       <use xlink:href="#mb35fbcb0e0" x="317.061807" y="307.872" style="stroke: #000000; stroke-width: 0.8"/>
      </g>
     </g>
     <g id="text_5">
      <!-- 6 -->
      <g transform="translate(313.880557 322.470438) scale(0.1 -0.1)">
       <defs>
        <path id="DejaVuSans-36" d="M 2113 2584 
Q 1688 2584 1439 2293 
Q 1191 2003 1191 1497 
Q 1191 994 1439 701 
Q 1688 409 2113 409 
Q 2538 409 2786 701 
Q 3034 994 3034 1497 
Q 3034 2003 2786 2293 
Q 2538 2584 2113 2584 
z
M 3366 4563 
L 3366 3988 
Q 3128 4100 2886 4159 
Q 2644 4219 2406 4219 
Q 1781 4219 1451 3797 
Q 1122 3375 1075 2522 
Q 1259 2794 1537 2939 
Q 1816 3084 2150 3084 
Q 2853 3084 3261 2657 
Q 3669 2231 3669 1497 
Q 3669 778 3244 343 
Q 2819 -91 2113 -91 
Q 1303 -91 875 529 
Q 447 1150 447 2328 
Q 447 3434 972 4092 
Q 1497 4750 2381 4750 
Q 2619 4750 2861 4703 
Q 3103 4656 3366 4563 
z
" transform="scale(0.015625)"/>
       </defs>
       <use xlink:href="#DejaVuSans-36"/>
      </g>
     </g>
    </g>
    <g id="xtick_6">
     <g id="line2d_6">
      <g>
       <use xlink:href="#mb35fbcb0e0" x="374.41211" y="307.872" style="stroke: #000000; stroke-width: 0.8"/>
      </g>
     </g>
     <g id="text_6">
      <!-- 8 -->
      <g transform="translate(371.23086 322.470438) scale(0.1 -0.1)">
       <defs>
        <path id="DejaVuSans-38" d="M 2034 2216 
Q 1584 2216 1326 1975 
Q 1069 1734 1069 1313 
Q 1069 891 1326 650 
Q 1584 409 2034 409 
Q 2484 409 2743 651 
Q 3003 894 3003 1313 
Q 3003 1734 2745 1975 
Q 2488 2216 2034 2216 
z
M 1403 2484 
Q 997 2584 770 2862 
Q 544 3141 544 3541 
Q 544 4100 942 4425 
Q 1341 4750 2034 4750 
Q 2731 4750 3128 4425 
Q 3525 4100 3525 3541 
Q 3525 3141 3298 2862 
Q 3072 2584 2669 2484 
Q 3125 2378 3379 2068 
Q 3634 1759 3634 1313 
Q 3634 634 3220 271 
Q 2806 -91 2034 -91 
Q 1263 -91 848 271 
Q 434 634 434 1313 
Q 434 1759 690 2068 
Q 947 2378 1403 2484 
z
M 1172 3481 
Q 1172 3119 1398 2916 
Q 1625 2713 2034 2713 
Q 2441 2713 2670 2916 
Q 2900 3119 2900 3481 
Q 2900 3844 2670 4047 
Q 2441 4250 2034 4250 
Q 1625 4250 1398 4047 
Q 1172 3844 1172 3481 
z
" transform="scale(0.015625)"/>
       </defs>
       <use xlink:href="#DejaVuSans-38"/>
      </g>
     </g>
    </g>
    <g id="text_7">
     <!-- Re$(S_{21})$ [mV] -->
     <g transform="translate(184.408438 336.148562) scale(0.1 -0.1)">
      <defs>
       <path id="DejaVuSans-52" d="M 2841 2188 
Q 3044 2119 3236 1894 
Q 3428 1669 3622 1275 
L 4263 0 
L 3584 0 
L 2988 1197 
Q 2756 1666 2539 1819 
Q 2322 1972 1947 1972 
L 1259 1972 
L 1259 0 
L 628 0 
L 628 4666 
L 2053 4666 
Q 2853 4666 3247 4331 
Q 3641 3997 3641 3322 
Q 3641 2881 3436 2590 
Q 3231 2300 2841 2188 
z
M 1259 4147 
L 1259 2491 
L 2053 2491 
Q 2509 2491 2742 2702 
Q 2975 2913 2975 3322 
Q 2975 3731 2742 3939 
Q 2509 4147 2053 4147 
L 1259 4147 
z
" transform="scale(0.015625)"/>
       <path id="DejaVuSans-65" d="M 3597 1894 
L 3597 1613 
L 953 1613 
Q 991 1019 1311 708 
Q 1631 397 2203 397 
Q 2534 397 2845 478 
Q 3156 559 3463 722 
L 3463 178 
Q 3153 47 2828 -22 
Q 2503 -91 2169 -91 
Q 1331 -91 842 396 
Q 353 884 353 1716 
Q 353 2575 817 3079 
Q 1281 3584 2069 3584 
Q 2775 3584 3186 3129 
Q 3597 2675 3597 1894 
z
M 3022 2063 
Q 3016 2534 2758 2815 
Q 2500 3097 2075 3097 
Q 1594 3097 1305 2825 
Q 1016 2553 972 2059 
L 3022 2063 
z
" transform="scale(0.015625)"/>
       <path id="DejaVuSans-28" d="M 1984 4856 
Q 1566 4138 1362 3434 
Q 1159 2731 1159 2009 
Q 1159 1288 1364 580 
Q 1569 -128 1984 -844 
L 1484 -844 
Q 1016 -109 783 600 
Q 550 1309 550 2009 
Q 550 2706 781 3412 
Q 1013 4119 1484 4856 
L 1984 4856 
z
" transform="scale(0.015625)"/>
       <path id="DejaVuSans-Oblique-53" d="M 3859 4513 
L 3738 3897 
Q 3422 4066 3111 4152 
Q 2800 4238 2509 4238 
Q 1944 4238 1609 3991 
Q 1275 3744 1275 3334 
Q 1275 3109 1398 2989 
Q 1522 2869 2034 2731 
L 2413 2638 
Q 3053 2472 3303 2217 
Q 3553 1963 3553 1503 
Q 3553 797 2998 353 
Q 2444 -91 1538 -91 
Q 1166 -91 791 -17 
Q 416 56 38 206 
L 166 856 
Q 513 641 861 531 
Q 1209 422 1556 422 
Q 2147 422 2503 684 
Q 2859 947 2859 1369 
Q 2859 1650 2717 1795 
Q 2575 1941 2106 2059 
L 1728 2156 
Q 1081 2325 845 2545 
Q 609 2766 609 3163 
Q 609 3859 1145 4304 
Q 1681 4750 2541 4750 
Q 2875 4750 3203 4690 
Q 3531 4631 3859 4513 
z
" transform="scale(0.015625)"/>
       <path id="DejaVuSans-31" d="M 794 531 
L 1825 531 
L 1825 4091 
L 703 3866 
L 703 4441 
L 1819 4666 
L 2450 4666 
L 2450 531 
L 3481 531 
L 3481 0 
L 794 0 
L 794 531 
z
" transform="scale(0.015625)"/>
       <path id="DejaVuSans-29" d="M 513 4856 
L 1013 4856 
Q 1481 4119 1714 3412 
Q 1947 2706 1947 2009 
Q 1947 1309 1714 600 
Q 1481 -109 1013 -844 
L 513 -844 
Q 928 -128 1133 580 
Q 1338 1288 1338 2009 
Q 1338 2731 1133 3434 
Q 928 4138 513 4856 
z
" transform="scale(0.015625)"/>
       <path id="DejaVuSans-20" transform="scale(0.015625)"/>
       <path id="DejaVuSans-5b" d="M 550 4863 
L 1875 4863 
L 1875 4416 
L 1125 4416 
L 1125 -397 
L 1875 -397 
L 1875 -844 
L 550 -844 
L 550 4863 
z
" transform="scale(0.015625)"/>
       <path id="DejaVuSans-6d" d="M 3328 2828 
Q 3544 3216 3844 3400 
Q 4144 3584 4550 3584 
Q 5097 3584 5394 3201 
Q 5691 2819 5691 2113 
L 5691 0 
L 5113 0 
L 5113 2094 
Q 5113 2597 4934 2840 
Q 4756 3084 4391 3084 
Q 3944 3084 3684 2787 
Q 3425 2491 3425 1978 
L 3425 0 
L 2847 0 
L 2847 2094 
Q 2847 2600 2669 2842 
Q 2491 3084 2119 3084 
Q 1678 3084 1418 2786 
Q 1159 2488 1159 1978 
L 1159 0 
L 581 0 
L 581 3500 
L 1159 3500 
L 1159 2956 
Q 1356 3278 1631 3431 
Q 1906 3584 2284 3584 
Q 2666 3584 2933 3390 
Q 3200 3197 3328 2828 
z
" transform="scale(0.015625)"/>
       <path id="DejaVuSans-56" d="M 1831 0 
L 50 4666 
L 709 4666 
L 2188 738 
L 3669 4666 
L 4325 4666 
L 2547 0 
L 1831 0 
z
" transform="scale(0.015625)"/>
       <path id="DejaVuSans-5d" d="M 1947 4863 
L 1947 -844 
L 622 -844 
L 622 -397 
L 1369 -397 
L 1369 4416 
L 622 4416 
L 622 4863 
L 1947 4863 
z
" transform="scale(0.015625)"/>
      </defs>
      <use xlink:href="#DejaVuSans-52" transform="translate(0 0.015625)"/>
      <use xlink:href="#DejaVuSans-65" transform="translate(69.482422 0.015625)"/>
      <use xlink:href="#DejaVuSans-28" transform="translate(131.005859 0.015625)"/>
      <use xlink:href="#DejaVuSans-Oblique-53" transform="translate(170.019531 0.015625)"/>
      <use xlink:href="#DejaVuSans-32" transform="translate(233.496094 -16.390625) scale(0.7)"/>
      <use xlink:href="#DejaVuSans-31" transform="translate(278.032227 -16.390625) scale(0.7)"/>
      <use xlink:href="#DejaVuSans-29" transform="translate(325.302734 0.015625)"/>
      <use xlink:href="#DejaVuSans-20" transform="translate(364.316406 0.015625)"/>
      <use xlink:href="#DejaVuSans-5b" transform="translate(396.103516 0.015625)"/>
      <use xlink:href="#DejaVuSans-6d" transform="translate(435.117188 0.015625)"/>
      <use xlink:href="#DejaVuSans-56" transform="translate(532.529297 0.015625)"/>
      <use xlink:href="#DejaVuSans-5d" transform="translate(600.9375 0.015625)"/>
     </g>
    </g>
   </g>
   <g id="matplotlib.axis_2">
    <g id="ytick_1">
     <g id="line2d_7">
      <defs>
       <path id="m0e1316731d" d="M 0 0 
L -3.5 0 
" style="stroke: #000000; stroke-width: 0.8"/>
      </defs>
      <g>
       <use xlink:href="#m0e1316731d" x="37.848438" y="270.512533" style="stroke: #000000; stroke-width: 0.8"/>
      </g>
     </g>
     <g id="text_8">
      <!-- -4 -->
      <g transform="translate(20.878125 274.311752) scale(0.1 -0.1)">
       <use xlink:href="#DejaVuSans-2d"/>
       <use xlink:href="#DejaVuSans-34" x="36.083984"/>
      </g>
     </g>
    </g>
    <g id="ytick_2">
     <g id="line2d_8">
      <g>
       <use xlink:href="#m0e1316731d" x="37.848438" y="224.84486" style="stroke: #000000; stroke-width: 0.8"/>
      </g>
     </g>
     <g id="text_9">
      <!-- -2 -->
      <g transform="translate(20.878125 228.644078) scale(0.1 -0.1)">
       <use xlink:href="#DejaVuSans-2d"/>
       <use xlink:href="#DejaVuSans-32" x="36.083984"/>
      </g>
     </g>
    </g>
    <g id="ytick_3">
     <g id="line2d_9">
      <g>
       <use xlink:href="#m0e1316731d" x="37.848438" y="179.177186" style="stroke: #000000; stroke-width: 0.8"/>
      </g>
     </g>
     <g id="text_10">
      <!-- 0 -->
      <g transform="translate(24.485938 182.976405) scale(0.1 -0.1)">
       <use xlink:href="#DejaVuSans-30"/>
      </g>
     </g>
    </g>
    <g id="ytick_4">
     <g id="line2d_10">
      <g>
       <use xlink:href="#m0e1316731d" x="37.848438" y="133.509513" style="stroke: #000000; stroke-width: 0.8"/>
      </g>
     </g>
     <g id="text_11">
      <!-- 2 -->
      <g transform="translate(24.485938 137.308732) scale(0.1 -0.1)">
       <use xlink:href="#DejaVuSans-32"/>
      </g>
     </g>
    </g>
    <g id="ytick_5">
     <g id="line2d_11">
      <g>
       <use xlink:href="#m0e1316731d" x="37.848438" y="87.84184" style="stroke: #000000; stroke-width: 0.8"/>
      </g>
     </g>
     <g id="text_12">
      <!-- 4 -->
      <g transform="translate(24.485938 91.641059) scale(0.1 -0.1)">
       <use xlink:href="#DejaVuSans-34"/>
      </g>
     </g>
    </g>
    <g id="ytick_6">
     <g id="line2d_12">
      <g>
       <use xlink:href="#m0e1316731d" x="37.848438" y="42.174167" style="stroke: #000000; stroke-width: 0.8"/>
      </g>
     </g>
     <g id="text_13">
      <!-- 6 -->
      <g transform="translate(24.485938 45.973385) scale(0.1 -0.1)">
       <use xlink:href="#DejaVuSans-36"/>
      </g>
     </g>
    </g>
    <g id="text_14">
     <!-- Im$(S_{21})$ [mV] -->
     <g transform="translate(14.798438 206.466) rotate(-90) scale(0.1 -0.1)">
      <defs>
       <path id="DejaVuSans-49" d="M 628 4666 
L 1259 4666 
L 1259 0 
L 628 0 
L 628 4666 
z
" transform="scale(0.015625)"/>
      </defs>
      <use xlink:href="#DejaVuSans-49" transform="translate(0 0.015625)"/>
      <use xlink:href="#DejaVuSans-6d" transform="translate(25.867188 0.015625)"/>
      <use xlink:href="#DejaVuSans-28" transform="translate(123.279297 0.015625)"/>
      <use xlink:href="#DejaVuSans-Oblique-53" transform="translate(162.292969 0.015625)"/>
      <use xlink:href="#DejaVuSans-32" transform="translate(225.769531 -16.390625) scale(0.7)"/>
      <use xlink:href="#DejaVuSans-31" transform="translate(270.305664 -16.390625) scale(0.7)"/>
      <use xlink:href="#DejaVuSans-29" transform="translate(317.576172 0.015625)"/>
      <use xlink:href="#DejaVuSans-20" transform="translate(356.589844 0.015625)"/>
      <use xlink:href="#DejaVuSans-5b" transform="translate(388.376953 0.015625)"/>
      <use xlink:href="#DejaVuSans-6d" transform="translate(427.390625 0.015625)"/>
      <use xlink:href="#DejaVuSans-56" transform="translate(524.802734 0.015625)"/>
      <use xlink:href="#DejaVuSans-5d" transform="translate(593.210938 0.015625)"/>
     </g>
    </g>
   </g>
   <g id="line2d_13">
    <path d="M 128.993425 248.504933 
L 128.364976 227.663603 
L 123.606501 212.102796 
L 119.782831 203.350878 
L 119.529271 195.981094 
L 118.398139 186.214349 
L 114.590949 172.248133 
L 120.032893 154.77533 
L 177.352685 130.293204 
L 254.101549 157.326047 
L 232.950795 267.083543 
L 82.205542 249.840641 
L 58.778059 157.435375 
L 140.225894 70.252153 
L 378.73571 139.985176 
L 149.715429 295.776 
L 54.081165 157.014351 
L 207.404933 53.856 
L 300.470369 282.101045 
L 59.981134 190.710487 
L 180.182435 78.204843 
L 236.575527 275.168897 
L 76.013136 156.300643 
L 277.294244 123.978382 
L 93.997871 224.021595 
L 171.437304 107.115055 
L 152.220021 259.240242 
L 138.497089 119.944901 
L 180.669227 256.672787 
L 137.313773 122.193617 
L 163.045684 256.666833 
L 165.659669 114.452462 
L 114.029409 231.582057 
L 239.344114 127.819946 
L 86.707841 165.602463 
L 243.990811 216.503848 
L 157.566808 121.44743 
L 101.675402 203.406107 
L 252.886623 186.849315 
L 158.846509 127.091665 
L 102.041856 186.636681 
L 210.150303 216.330345 
L 217.755055 142.597454 
L 136.944659 144.09203 
L 116.285502 190.371589 
L 178.765331 211.702997 
L 219.441093 177.095884 
L 194.139591 146.911489 
L 149.662782 148.5977 
L 131.247125 162.851926 
L 131.491323 184.042452 
L 148.260726 193.883979 
L 166.63495 191.195203 
L 182.04648 188.416043 
L 183.28246 186.143757 
L 183.630164 183.242591 
L 181.2646 180.783154 
L 177.516551 180.603663 
L 175.93656 180.688665 
L 171.066472 178.6332 
L 166.028753 175.02056 
L 164.628295 171.265939 
L 165.720678 171.229299 
L 163.906775 176.539643 
L 160.279336 177.606881 
L 164.283695 172.515977 
L 168.759369 175.952628 
L 155.978895 173.31035 
L 171.471949 159.129137 
L 174.11869 177.11568 
L 163.003139 177.883786 
L 157.211207 177.831869 
L 162.970879 154.559509 
L 177.64039 183.15491 
L 160.431065 180.179527 
L 151.009511 157.113361 
L 183.504988 181.143152 
L 156.43751 181.676381 
L 164.353164 149.470532 
L 171.201148 190.286603 
L 143.120252 168.10191 
L 193.830935 175.776731 
L 149.71392 179.945582 
L 191.594459 156.408807 
L 150.53336 183.974532 
L 188.897902 155.284196 
L 146.856212 181.471341 
L 194.472042 164.098593 
L 139.080617 173.253537 
L 189.009492 185.652842 
L 149.611196 153.020866 
L 160.23571 192.038872 
L 190.298137 156.732142 
L 137.708096 165.216999 
L 168.513684 193.880677 
L 187.184709 154.191263 
L 140.383095 162.5329 
L 159.383575 190.004262 
L 191.171224 175.519883 
L 170.119757 148.722946 
L 139.006676 165.935313 
L 153.407873 187.522306 
L 179.285344 184.159586 
L 187.410713 166.098151 
L 171.990624 153.201304 
L 151.057011 155.559222 
L 141.98311 168.528139 
L 146.789658 180.495117 
L 156.838456 183.612795 
L 165.337615 182.508673 
L 171.191961 180.39609 
L 174.159418 178.908863 
L 172.574853 176.911766 
L 171.938461 177.920153 
L 171.207655 176.133526 
L 168.436648 176.887413 
L 166.718745 175.253711 
L 161.191052 178.368577 
L 154.86444 178.227158 
L 152.631586 169.938694 
L 153.875556 165.421498 
L 165.24884 163.120971 
L 166.82303 170.820826 
L 164.723444 169.91208 
L 167.055445 171.492704 
L 155.906356 173.863398 
L 162.059266 166.893038 
L 160.548355 170.975617 
L 169.199931 164.942194 
L 159.643697 172.930427 
L 162.342332 171.850152 
L 161.775563 161.427686 
L 163.289043 172.696752 
L 159.21531 173.242566 
L 167.399661 161.0372 
L 162.342618 173.111876 
L 153.414124 168.487044 
L 167.366863 171.995632 
L 154.906861 174.297586 
L 173.166878 163.857446 
L 153.485166 176.435632 
L 171.767421 164.289268 
L 153.790107 175.269977 
L 174.606717 164.900095 
L 148.369872 172.413103 
L 173.71426 171.288845 
L 151.278991 161.060502 
L 161.214172 178.135225 
L 171.933305 159.377569 
L 144.362064 170.214248 
L 167.815295 176.82559 
L 171.025701 157.65106 
L 145.327004 167.447914 
L 162.085703 180.54553 
L 176.765067 163.772365 
L 160.743206 153.536489 
L 144.368964 171.665462 
L 161.115021 179.948837 
L 176.730174 169.667433 
L 173.578067 159.677446 
L 159.731262 156.164514 
L 144.292535 163.742058 
L 146.85652 175.910369 
L 154.548876 179.335671 
L 162.578138 176.683405 
L 169.157429 174.632185 
L 169.043936 170.651343 
L 168.377542 168.639779 
L 167.518827 168.457394 
L 167.778624 168.311838 
L 166.724726 169.173379 
L 166.647241 168.922723 
L 164.910784 170.673484 
L 164.200759 171.711983 
L 160.953746 173.62755 
L 154.5666 174.699649 
L 148.17824 170.613516 
L 154.826295 158.984 
L 163.939449 162.897899 
L 165.74189 166.028778 
L 162.53723 169.175677 
L 155.580728 172.180809 
L 153.927468 162.950919 
L 165.526977 165.594004 
L 160.649523 168.065022 
L 157.018237 169.169825 
L 159.128416 163.444598 
L 158.008618 169.946959 
L 157.107089 167.765551 
L 160.367945 163.950291 
L 156.361291 169.998757 
L 158.79411 166.315147 
L 162.159605 168.572669 
L 155.563633 164.514549 
L 162.567365 168.002403 
L 153.798131 165.382792 
L 162.740097 165.850205 
L 153.111632 165.980827 
L 162.79807 166.980314 
L 153.109255 162.740432 
L 164.831555 168.829997 
L 154.808921 161.755974 
L 157.976688 173.066662 
L 160.813915 161.491827 
L 149.923687 166.888756 
L 166.602118 171.51224 
L 158.706656 160.830979 
L 148.146506 168.538903 
L 165.579179 171.413826 
L 160.535098 158.386422 
L 148.733458 162.01866 
L 152.765556 174.509298 
L 168.50949 166.596542 
L 160.835127 158.954193 
L 151.027509 160.294714 
L 144.80018 166.756616 
L 151.954906 177.092398 
L 163.698987 171.62916 
L 168.689665 166.080453 
L 160.68044 160.791998 
L 158.329873 158.350532 
L 154.444668 159.513923 
L 153.163368 159.624869 
L 150.8542 158.897656 
L 149.799899 160.187802 
L 149.591231 161.695628 
L 148.276065 159.099721 
L 149.214265 159.264646 
L 153.444874 158.930418 
L 155.866479 159.099428 
L 156.618647 160.307364 
L 161.512042 161.883882 
L 165.912057 163.430011 
L 165.387491 169.544849 
L 151.432105 172.100763 
L 146.964998 165.357615 
L 154.466077 160.398255 
L 159.162595 162.118647 
L 160.8773 166.729233 
L 149.326586 168.461428 
L 150.530273 160.430104 
L 156.331763 164.197209 
L 158.91001 168.391928 
L 147.719295 165.463801 
L 155.126572 164.171116 
L 156.495492 166.609842 
L 150.672426 162.786419 
L 156.252351 165.658302 
L 153.671052 167.111552 
L 158.496167 162.995333 
L 155.482604 164.277799 
L 152.124735 163.214085 
L 157.82775 163.777621 
L 155.136477 162.103393 
L 155.026199 164.141874 
L 157.86511 163.434226 
L 154.109353 164.713717 
L 158.88008 166.386968 
L 151.300841 161.951584 
L 152.218781 167.539592 
L 155.091222 160.552491 
L 148.668516 164.930201 
L 154.876838 169.169787 
L 157.26211 158.927851 
L 150.697187 163.360025 
L 152.580657 169.619053 
L 160.085238 162.320862 
L 148.218224 160.341933 
L 148.219925 165.130629 
L 152.336349 170.906404 
L 160.764855 166.357974 
L 154.040935 158.219757 
L 147.574795 161.579437 
L 147.075657 165.79627 
L 147.327806 167.931089 
L 150.71206 171.024586 
L 157.180893 170.53169 
L 162.340045 164.415215 
L 160.57427 161.808643 
L 160.416218 160.941645 
L 157.391724 160.421022 
L 157.12292 158.814111 
L 157.366314 159.685119 
L 158.139015 160.237765 
L 160.509315 162.276709 
L 160.618948 163.159046 
L 158.909911 167.615168 
L 152.989845 171.046996 
L 147.491484 170.692333 
L 147.26849 163.252031 
L 147.57795 160.524499 
L 150.670524 158.048197 
L 156.162605 160.184306 
L 155.372291 168.456171 
L 146.448324 167.387409 
L 145.979222 162.888605 
L 150.174558 161.024792 
L 152.724653 168.013647 
L 144.889669 166.338121 
L 148.760275 161.328053 
L 148.760275 161.328053 
" clip-path="url(#p4222c85790)" style="fill: none; stroke: #1f77b4; stroke-width: 1.5; stroke-linecap: square"/>
    <defs>
     <path id="m2497037b44" d="M 0 1.5 
C 0.397805 1.5 0.77937 1.341951 1.06066 1.06066 
C 1.341951 0.77937 1.5 0.397805 1.5 0 
C 1.5 -0.397805 1.341951 -0.77937 1.06066 -1.06066 
C 0.77937 -1.341951 0.397805 -1.5 0 -1.5 
C -0.397805 -1.5 -0.77937 -1.341951 -1.06066 -1.06066 
C -1.341951 -0.77937 -1.5 -0.397805 -1.5 0 
C -1.5 0.397805 -1.341951 0.77937 -1.06066 1.06066 
C -0.77937 1.341951 -0.397805 1.5 0 1.5 
z
" style="stroke: #1f77b4"/>
    </defs>
    <g clip-path="url(#p4222c85790)">
     <use xlink:href="#m2497037b44" x="128.993425" y="248.504933" style="fill: #1f77b4; stroke: #1f77b4"/>
     <use xlink:href="#m2497037b44" x="128.364976" y="227.663603" style="fill: #1f77b4; stroke: #1f77b4"/>
     <use xlink:href="#m2497037b44" x="123.606501" y="212.102796" style="fill: #1f77b4; stroke: #1f77b4"/>
     <use xlink:href="#m2497037b44" x="119.782831" y="203.350878" style="fill: #1f77b4; stroke: #1f77b4"/>
     <use xlink:href="#m2497037b44" x="119.529271" y="195.981094" style="fill: #1f77b4; stroke: #1f77b4"/>
     <use xlink:href="#m2497037b44" x="118.398139" y="186.214349" style="fill: #1f77b4; stroke: #1f77b4"/>
     <use xlink:href="#m2497037b44" x="114.590949" y="172.248133" style="fill: #1f77b4; stroke: #1f77b4"/>
     <use xlink:href="#m2497037b44" x="120.032893" y="154.77533" style="fill: #1f77b4; stroke: #1f77b4"/>
     <use xlink:href="#m2497037b44" x="177.352685" y="130.293204" style="fill: #1f77b4; stroke: #1f77b4"/>
     <use xlink:href="#m2497037b44" x="254.101549" y="157.326047" style="fill: #1f77b4; stroke: #1f77b4"/>
     <use xlink:href="#m2497037b44" x="232.950795" y="267.083543" style="fill: #1f77b4; stroke: #1f77b4"/>
     <use xlink:href="#m2497037b44" x="82.205542" y="249.840641" style="fill: #1f77b4; stroke: #1f77b4"/>
     <use xlink:href="#m2497037b44" x="58.778059" y="157.435375" style="fill: #1f77b4; stroke: #1f77b4"/>
     <use xlink:href="#m2497037b44" x="140.225894" y="70.252153" style="fill: #1f77b4; stroke: #1f77b4"/>
     <use xlink:href="#m2497037b44" x="378.73571" y="139.985176" style="fill: #1f77b4; stroke: #1f77b4"/>
     <use xlink:href="#m2497037b44" x="149.715429" y="295.776" style="fill: #1f77b4; stroke: #1f77b4"/>
     <use xlink:href="#m2497037b44" x="54.081165" y="157.014351" style="fill: #1f77b4; stroke: #1f77b4"/>
     <use xlink:href="#m2497037b44" x="207.404933" y="53.856" style="fill: #1f77b4; stroke: #1f77b4"/>
     <use xlink:href="#m2497037b44" x="300.470369" y="282.101045" style="fill: #1f77b4; stroke: #1f77b4"/>
     <use xlink:href="#m2497037b44" x="59.981134" y="190.710487" style="fill: #1f77b4; stroke: #1f77b4"/>
     <use xlink:href="#m2497037b44" x="180.182435" y="78.204843" style="fill: #1f77b4; stroke: #1f77b4"/>
     <use xlink:href="#m2497037b44" x="236.575527" y="275.168897" style="fill: #1f77b4; stroke: #1f77b4"/>
     <use xlink:href="#m2497037b44" x="76.013136" y="156.300643" style="fill: #1f77b4; stroke: #1f77b4"/>
     <use xlink:href="#m2497037b44" x="277.294244" y="123.978382" style="fill: #1f77b4; stroke: #1f77b4"/>
     <use xlink:href="#m2497037b44" x="93.997871" y="224.021595" style="fill: #1f77b4; stroke: #1f77b4"/>
     <use xlink:href="#m2497037b44" x="171.437304" y="107.115055" style="fill: #1f77b4; stroke: #1f77b4"/>
     <use xlink:href="#m2497037b44" x="152.220021" y="259.240242" style="fill: #1f77b4; stroke: #1f77b4"/>
     <use xlink:href="#m2497037b44" x="138.497089" y="119.944901" style="fill: #1f77b4; stroke: #1f77b4"/>
     <use xlink:href="#m2497037b44" x="180.669227" y="256.672787" style="fill: #1f77b4; stroke: #1f77b4"/>
     <use xlink:href="#m2497037b44" x="137.313773" y="122.193617" style="fill: #1f77b4; stroke: #1f77b4"/>
     <use xlink:href="#m2497037b44" x="163.045684" y="256.666833" style="fill: #1f77b4; stroke: #1f77b4"/>
     <use xlink:href="#m2497037b44" x="165.659669" y="114.452462" style="fill: #1f77b4; stroke: #1f77b4"/>
     <use xlink:href="#m2497037b44" x="114.029409" y="231.582057" style="fill: #1f77b4; stroke: #1f77b4"/>
     <use xlink:href="#m2497037b44" x="239.344114" y="127.819946" style="fill: #1f77b4; stroke: #1f77b4"/>
     <use xlink:href="#m2497037b44" x="86.707841" y="165.602463" style="fill: #1f77b4; stroke: #1f77b4"/>
     <use xlink:href="#m2497037b44" x="243.990811" y="216.503848" style="fill: #1f77b4; stroke: #1f77b4"/>
     <use xlink:href="#m2497037b44" x="157.566808" y="121.44743" style="fill: #1f77b4; stroke: #1f77b4"/>
     <use xlink:href="#m2497037b44" x="101.675402" y="203.406107" style="fill: #1f77b4; stroke: #1f77b4"/>
     <use xlink:href="#m2497037b44" x="252.886623" y="186.849315" style="fill: #1f77b4; stroke: #1f77b4"/>
     <use xlink:href="#m2497037b44" x="158.846509" y="127.091665" style="fill: #1f77b4; stroke: #1f77b4"/>
     <use xlink:href="#m2497037b44" x="102.041856" y="186.636681" style="fill: #1f77b4; stroke: #1f77b4"/>
     <use xlink:href="#m2497037b44" x="210.150303" y="216.330345" style="fill: #1f77b4; stroke: #1f77b4"/>
     <use xlink:href="#m2497037b44" x="217.755055" y="142.597454" style="fill: #1f77b4; stroke: #1f77b4"/>
     <use xlink:href="#m2497037b44" x="136.944659" y="144.09203" style="fill: #1f77b4; stroke: #1f77b4"/>
     <use xlink:href="#m2497037b44" x="116.285502" y="190.371589" style="fill: #1f77b4; stroke: #1f77b4"/>
     <use xlink:href="#m2497037b44" x="178.765331" y="211.702997" style="fill: #1f77b4; stroke: #1f77b4"/>
     <use xlink:href="#m2497037b44" x="219.441093" y="177.095884" style="fill: #1f77b4; stroke: #1f77b4"/>
     <use xlink:href="#m2497037b44" x="194.139591" y="146.911489" style="fill: #1f77b4; stroke: #1f77b4"/>
     <use xlink:href="#m2497037b44" x="149.662782" y="148.5977" style="fill: #1f77b4; stroke: #1f77b4"/>
     <use xlink:href="#m2497037b44" x="131.247125" y="162.851926" style="fill: #1f77b4; stroke: #1f77b4"/>
     <use xlink:href="#m2497037b44" x="131.491323" y="184.042452" style="fill: #1f77b4; stroke: #1f77b4"/>
     <use xlink:href="#m2497037b44" x="148.260726" y="193.883979" style="fill: #1f77b4; stroke: #1f77b4"/>
     <use xlink:href="#m2497037b44" x="166.63495" y="191.195203" style="fill: #1f77b4; stroke: #1f77b4"/>
     <use xlink:href="#m2497037b44" x="182.04648" y="188.416043" style="fill: #1f77b4; stroke: #1f77b4"/>
     <use xlink:href="#m2497037b44" x="183.28246" y="186.143757" style="fill: #1f77b4; stroke: #1f77b4"/>
     <use xlink:href="#m2497037b44" x="183.630164" y="183.242591" style="fill: #1f77b4; stroke: #1f77b4"/>
     <use xlink:href="#m2497037b44" x="181.2646" y="180.783154" style="fill: #1f77b4; stroke: #1f77b4"/>
     <use xlink:href="#m2497037b44" x="177.516551" y="180.603663" style="fill: #1f77b4; stroke: #1f77b4"/>
     <use xlink:href="#m2497037b44" x="175.93656" y="180.688665" style="fill: #1f77b4; stroke: #1f77b4"/>
     <use xlink:href="#m2497037b44" x="171.066472" y="178.6332" style="fill: #1f77b4; stroke: #1f77b4"/>
     <use xlink:href="#m2497037b44" x="166.028753" y="175.02056" style="fill: #1f77b4; stroke: #1f77b4"/>
     <use xlink:href="#m2497037b44" x="164.628295" y="171.265939" style="fill: #1f77b4; stroke: #1f77b4"/>
     <use xlink:href="#m2497037b44" x="165.720678" y="171.229299" style="fill: #1f77b4; stroke: #1f77b4"/>
     <use xlink:href="#m2497037b44" x="163.906775" y="176.539643" style="fill: #1f77b4; stroke: #1f77b4"/>
     <use xlink:href="#m2497037b44" x="160.279336" y="177.606881" style="fill: #1f77b4; stroke: #1f77b4"/>
     <use xlink:href="#m2497037b44" x="164.283695" y="172.515977" style="fill: #1f77b4; stroke: #1f77b4"/>
     <use xlink:href="#m2497037b44" x="168.759369" y="175.952628" style="fill: #1f77b4; stroke: #1f77b4"/>
     <use xlink:href="#m2497037b44" x="155.978895" y="173.31035" style="fill: #1f77b4; stroke: #1f77b4"/>
     <use xlink:href="#m2497037b44" x="171.471949" y="159.129137" style="fill: #1f77b4; stroke: #1f77b4"/>
     <use xlink:href="#m2497037b44" x="174.11869" y="177.11568" style="fill: #1f77b4; stroke: #1f77b4"/>
     <use xlink:href="#m2497037b44" x="163.003139" y="177.883786" style="fill: #1f77b4; stroke: #1f77b4"/>
     <use xlink:href="#m2497037b44" x="157.211207" y="177.831869" style="fill: #1f77b4; stroke: #1f77b4"/>
     <use xlink:href="#m2497037b44" x="162.970879" y="154.559509" style="fill: #1f77b4; stroke: #1f77b4"/>
     <use xlink:href="#m2497037b44" x="177.64039" y="183.15491" style="fill: #1f77b4; stroke: #1f77b4"/>
     <use xlink:href="#m2497037b44" x="160.431065" y="180.179527" style="fill: #1f77b4; stroke: #1f77b4"/>
     <use xlink:href="#m2497037b44" x="151.009511" y="157.113361" style="fill: #1f77b4; stroke: #1f77b4"/>
     <use xlink:href="#m2497037b44" x="183.504988" y="181.143152" style="fill: #1f77b4; stroke: #1f77b4"/>
     <use xlink:href="#m2497037b44" x="156.43751" y="181.676381" style="fill: #1f77b4; stroke: #1f77b4"/>
     <use xlink:href="#m2497037b44" x="164.353164" y="149.470532" style="fill: #1f77b4; stroke: #1f77b4"/>
     <use xlink:href="#m2497037b44" x="171.201148" y="190.286603" style="fill: #1f77b4; stroke: #1f77b4"/>
     <use xlink:href="#m2497037b44" x="143.120252" y="168.10191" style="fill: #1f77b4; stroke: #1f77b4"/>
     <use xlink:href="#m2497037b44" x="193.830935" y="175.776731" style="fill: #1f77b4; stroke: #1f77b4"/>
     <use xlink:href="#m2497037b44" x="149.71392" y="179.945582" style="fill: #1f77b4; stroke: #1f77b4"/>
     <use xlink:href="#m2497037b44" x="191.594459" y="156.408807" style="fill: #1f77b4; stroke: #1f77b4"/>
     <use xlink:href="#m2497037b44" x="150.53336" y="183.974532" style="fill: #1f77b4; stroke: #1f77b4"/>
     <use xlink:href="#m2497037b44" x="188.897902" y="155.284196" style="fill: #1f77b4; stroke: #1f77b4"/>
     <use xlink:href="#m2497037b44" x="146.856212" y="181.471341" style="fill: #1f77b4; stroke: #1f77b4"/>
     <use xlink:href="#m2497037b44" x="194.472042" y="164.098593" style="fill: #1f77b4; stroke: #1f77b4"/>
     <use xlink:href="#m2497037b44" x="139.080617" y="173.253537" style="fill: #1f77b4; stroke: #1f77b4"/>
     <use xlink:href="#m2497037b44" x="189.009492" y="185.652842" style="fill: #1f77b4; stroke: #1f77b4"/>
     <use xlink:href="#m2497037b44" x="149.611196" y="153.020866" style="fill: #1f77b4; stroke: #1f77b4"/>
     <use xlink:href="#m2497037b44" x="160.23571" y="192.038872" style="fill: #1f77b4; stroke: #1f77b4"/>
     <use xlink:href="#m2497037b44" x="190.298137" y="156.732142" style="fill: #1f77b4; stroke: #1f77b4"/>
     <use xlink:href="#m2497037b44" x="137.708096" y="165.216999" style="fill: #1f77b4; stroke: #1f77b4"/>
     <use xlink:href="#m2497037b44" x="168.513684" y="193.880677" style="fill: #1f77b4; stroke: #1f77b4"/>
     <use xlink:href="#m2497037b44" x="187.184709" y="154.191263" style="fill: #1f77b4; stroke: #1f77b4"/>
     <use xlink:href="#m2497037b44" x="140.383095" y="162.5329" style="fill: #1f77b4; stroke: #1f77b4"/>
     <use xlink:href="#m2497037b44" x="159.383575" y="190.004262" style="fill: #1f77b4; stroke: #1f77b4"/>
     <use xlink:href="#m2497037b44" x="191.171224" y="175.519883" style="fill: #1f77b4; stroke: #1f77b4"/>
     <use xlink:href="#m2497037b44" x="170.119757" y="148.722946" style="fill: #1f77b4; stroke: #1f77b4"/>
     <use xlink:href="#m2497037b44" x="139.006676" y="165.935313" style="fill: #1f77b4; stroke: #1f77b4"/>
     <use xlink:href="#m2497037b44" x="153.407873" y="187.522306" style="fill: #1f77b4; stroke: #1f77b4"/>
     <use xlink:href="#m2497037b44" x="179.285344" y="184.159586" style="fill: #1f77b4; stroke: #1f77b4"/>
     <use xlink:href="#m2497037b44" x="187.410713" y="166.098151" style="fill: #1f77b4; stroke: #1f77b4"/>
     <use xlink:href="#m2497037b44" x="171.990624" y="153.201304" style="fill: #1f77b4; stroke: #1f77b4"/>
     <use xlink:href="#m2497037b44" x="151.057011" y="155.559222" style="fill: #1f77b4; stroke: #1f77b4"/>
     <use xlink:href="#m2497037b44" x="141.98311" y="168.528139" style="fill: #1f77b4; stroke: #1f77b4"/>
     <use xlink:href="#m2497037b44" x="146.789658" y="180.495117" style="fill: #1f77b4; stroke: #1f77b4"/>
     <use xlink:href="#m2497037b44" x="156.838456" y="183.612795" style="fill: #1f77b4; stroke: #1f77b4"/>
     <use xlink:href="#m2497037b44" x="165.337615" y="182.508673" style="fill: #1f77b4; stroke: #1f77b4"/>
     <use xlink:href="#m2497037b44" x="171.191961" y="180.39609" style="fill: #1f77b4; stroke: #1f77b4"/>
     <use xlink:href="#m2497037b44" x="174.159418" y="178.908863" style="fill: #1f77b4; stroke: #1f77b4"/>
     <use xlink:href="#m2497037b44" x="172.574853" y="176.911766" style="fill: #1f77b4; stroke: #1f77b4"/>
     <use xlink:href="#m2497037b44" x="171.938461" y="177.920153" style="fill: #1f77b4; stroke: #1f77b4"/>
     <use xlink:href="#m2497037b44" x="171.207655" y="176.133526" style="fill: #1f77b4; stroke: #1f77b4"/>
     <use xlink:href="#m2497037b44" x="168.436648" y="176.887413" style="fill: #1f77b4; stroke: #1f77b4"/>
     <use xlink:href="#m2497037b44" x="166.718745" y="175.253711" style="fill: #1f77b4; stroke: #1f77b4"/>
     <use xlink:href="#m2497037b44" x="161.191052" y="178.368577" style="fill: #1f77b4; stroke: #1f77b4"/>
     <use xlink:href="#m2497037b44" x="154.86444" y="178.227158" style="fill: #1f77b4; stroke: #1f77b4"/>
     <use xlink:href="#m2497037b44" x="152.631586" y="169.938694" style="fill: #1f77b4; stroke: #1f77b4"/>
     <use xlink:href="#m2497037b44" x="153.875556" y="165.421498" style="fill: #1f77b4; stroke: #1f77b4"/>
     <use xlink:href="#m2497037b44" x="165.24884" y="163.120971" style="fill: #1f77b4; stroke: #1f77b4"/>
     <use xlink:href="#m2497037b44" x="166.82303" y="170.820826" style="fill: #1f77b4; stroke: #1f77b4"/>
     <use xlink:href="#m2497037b44" x="164.723444" y="169.91208" style="fill: #1f77b4; stroke: #1f77b4"/>
     <use xlink:href="#m2497037b44" x="167.055445" y="171.492704" style="fill: #1f77b4; stroke: #1f77b4"/>
     <use xlink:href="#m2497037b44" x="155.906356" y="173.863398" style="fill: #1f77b4; stroke: #1f77b4"/>
     <use xlink:href="#m2497037b44" x="162.059266" y="166.893038" style="fill: #1f77b4; stroke: #1f77b4"/>
     <use xlink:href="#m2497037b44" x="160.548355" y="170.975617" style="fill: #1f77b4; stroke: #1f77b4"/>
     <use xlink:href="#m2497037b44" x="169.199931" y="164.942194" style="fill: #1f77b4; stroke: #1f77b4"/>
     <use xlink:href="#m2497037b44" x="159.643697" y="172.930427" style="fill: #1f77b4; stroke: #1f77b4"/>
     <use xlink:href="#m2497037b44" x="162.342332" y="171.850152" style="fill: #1f77b4; stroke: #1f77b4"/>
     <use xlink:href="#m2497037b44" x="161.775563" y="161.427686" style="fill: #1f77b4; stroke: #1f77b4"/>
     <use xlink:href="#m2497037b44" x="163.289043" y="172.696752" style="fill: #1f77b4; stroke: #1f77b4"/>
     <use xlink:href="#m2497037b44" x="159.21531" y="173.242566" style="fill: #1f77b4; stroke: #1f77b4"/>
     <use xlink:href="#m2497037b44" x="167.399661" y="161.0372" style="fill: #1f77b4; stroke: #1f77b4"/>
     <use xlink:href="#m2497037b44" x="162.342618" y="173.111876" style="fill: #1f77b4; stroke: #1f77b4"/>
     <use xlink:href="#m2497037b44" x="153.414124" y="168.487044" style="fill: #1f77b4; stroke: #1f77b4"/>
     <use xlink:href="#m2497037b44" x="167.366863" y="171.995632" style="fill: #1f77b4; stroke: #1f77b4"/>
     <use xlink:href="#m2497037b44" x="154.906861" y="174.297586" style="fill: #1f77b4; stroke: #1f77b4"/>
     <use xlink:href="#m2497037b44" x="173.166878" y="163.857446" style="fill: #1f77b4; stroke: #1f77b4"/>
     <use xlink:href="#m2497037b44" x="153.485166" y="176.435632" style="fill: #1f77b4; stroke: #1f77b4"/>
     <use xlink:href="#m2497037b44" x="171.767421" y="164.289268" style="fill: #1f77b4; stroke: #1f77b4"/>
     <use xlink:href="#m2497037b44" x="153.790107" y="175.269977" style="fill: #1f77b4; stroke: #1f77b4"/>
     <use xlink:href="#m2497037b44" x="174.606717" y="164.900095" style="fill: #1f77b4; stroke: #1f77b4"/>
     <use xlink:href="#m2497037b44" x="148.369872" y="172.413103" style="fill: #1f77b4; stroke: #1f77b4"/>
     <use xlink:href="#m2497037b44" x="173.71426" y="171.288845" style="fill: #1f77b4; stroke: #1f77b4"/>
     <use xlink:href="#m2497037b44" x="151.278991" y="161.060502" style="fill: #1f77b4; stroke: #1f77b4"/>
     <use xlink:href="#m2497037b44" x="161.214172" y="178.135225" style="fill: #1f77b4; stroke: #1f77b4"/>
     <use xlink:href="#m2497037b44" x="171.933305" y="159.377569" style="fill: #1f77b4; stroke: #1f77b4"/>
     <use xlink:href="#m2497037b44" x="144.362064" y="170.214248" style="fill: #1f77b4; stroke: #1f77b4"/>
     <use xlink:href="#m2497037b44" x="167.815295" y="176.82559" style="fill: #1f77b4; stroke: #1f77b4"/>
     <use xlink:href="#m2497037b44" x="171.025701" y="157.65106" style="fill: #1f77b4; stroke: #1f77b4"/>
     <use xlink:href="#m2497037b44" x="145.327004" y="167.447914" style="fill: #1f77b4; stroke: #1f77b4"/>
     <use xlink:href="#m2497037b44" x="162.085703" y="180.54553" style="fill: #1f77b4; stroke: #1f77b4"/>
     <use xlink:href="#m2497037b44" x="176.765067" y="163.772365" style="fill: #1f77b4; stroke: #1f77b4"/>
     <use xlink:href="#m2497037b44" x="160.743206" y="153.536489" style="fill: #1f77b4; stroke: #1f77b4"/>
     <use xlink:href="#m2497037b44" x="144.368964" y="171.665462" style="fill: #1f77b4; stroke: #1f77b4"/>
     <use xlink:href="#m2497037b44" x="161.115021" y="179.948837" style="fill: #1f77b4; stroke: #1f77b4"/>
     <use xlink:href="#m2497037b44" x="176.730174" y="169.667433" style="fill: #1f77b4; stroke: #1f77b4"/>
     <use xlink:href="#m2497037b44" x="173.578067" y="159.677446" style="fill: #1f77b4; stroke: #1f77b4"/>
     <use xlink:href="#m2497037b44" x="159.731262" y="156.164514" style="fill: #1f77b4; stroke: #1f77b4"/>
     <use xlink:href="#m2497037b44" x="144.292535" y="163.742058" style="fill: #1f77b4; stroke: #1f77b4"/>
     <use xlink:href="#m2497037b44" x="146.85652" y="175.910369" style="fill: #1f77b4; stroke: #1f77b4"/>
     <use xlink:href="#m2497037b44" x="154.548876" y="179.335671" style="fill: #1f77b4; stroke: #1f77b4"/>
     <use xlink:href="#m2497037b44" x="162.578138" y="176.683405" style="fill: #1f77b4; stroke: #1f77b4"/>
     <use xlink:href="#m2497037b44" x="169.157429" y="174.632185" style="fill: #1f77b4; stroke: #1f77b4"/>
     <use xlink:href="#m2497037b44" x="169.043936" y="170.651343" style="fill: #1f77b4; stroke: #1f77b4"/>
     <use xlink:href="#m2497037b44" x="168.377542" y="168.639779" style="fill: #1f77b4; stroke: #1f77b4"/>
     <use xlink:href="#m2497037b44" x="167.518827" y="168.457394" style="fill: #1f77b4; stroke: #1f77b4"/>
     <use xlink:href="#m2497037b44" x="167.778624" y="168.311838" style="fill: #1f77b4; stroke: #1f77b4"/>
     <use xlink:href="#m2497037b44" x="166.724726" y="169.173379" style="fill: #1f77b4; stroke: #1f77b4"/>
     <use xlink:href="#m2497037b44" x="166.647241" y="168.922723" style="fill: #1f77b4; stroke: #1f77b4"/>
     <use xlink:href="#m2497037b44" x="164.910784" y="170.673484" style="fill: #1f77b4; stroke: #1f77b4"/>
     <use xlink:href="#m2497037b44" x="164.200759" y="171.711983" style="fill: #1f77b4; stroke: #1f77b4"/>
     <use xlink:href="#m2497037b44" x="160.953746" y="173.62755" style="fill: #1f77b4; stroke: #1f77b4"/>
     <use xlink:href="#m2497037b44" x="154.5666" y="174.699649" style="fill: #1f77b4; stroke: #1f77b4"/>
     <use xlink:href="#m2497037b44" x="148.17824" y="170.613516" style="fill: #1f77b4; stroke: #1f77b4"/>
     <use xlink:href="#m2497037b44" x="154.826295" y="158.984" style="fill: #1f77b4; stroke: #1f77b4"/>
     <use xlink:href="#m2497037b44" x="163.939449" y="162.897899" style="fill: #1f77b4; stroke: #1f77b4"/>
     <use xlink:href="#m2497037b44" x="165.74189" y="166.028778" style="fill: #1f77b4; stroke: #1f77b4"/>
     <use xlink:href="#m2497037b44" x="162.53723" y="169.175677" style="fill: #1f77b4; stroke: #1f77b4"/>
     <use xlink:href="#m2497037b44" x="155.580728" y="172.180809" style="fill: #1f77b4; stroke: #1f77b4"/>
     <use xlink:href="#m2497037b44" x="153.927468" y="162.950919" style="fill: #1f77b4; stroke: #1f77b4"/>
     <use xlink:href="#m2497037b44" x="165.526977" y="165.594004" style="fill: #1f77b4; stroke: #1f77b4"/>
     <use xlink:href="#m2497037b44" x="160.649523" y="168.065022" style="fill: #1f77b4; stroke: #1f77b4"/>
     <use xlink:href="#m2497037b44" x="157.018237" y="169.169825" style="fill: #1f77b4; stroke: #1f77b4"/>
     <use xlink:href="#m2497037b44" x="159.128416" y="163.444598" style="fill: #1f77b4; stroke: #1f77b4"/>
     <use xlink:href="#m2497037b44" x="158.008618" y="169.946959" style="fill: #1f77b4; stroke: #1f77b4"/>
     <use xlink:href="#m2497037b44" x="157.107089" y="167.765551" style="fill: #1f77b4; stroke: #1f77b4"/>
     <use xlink:href="#m2497037b44" x="160.367945" y="163.950291" style="fill: #1f77b4; stroke: #1f77b4"/>
     <use xlink:href="#m2497037b44" x="156.361291" y="169.998757" style="fill: #1f77b4; stroke: #1f77b4"/>
     <use xlink:href="#m2497037b44" x="158.79411" y="166.315147" style="fill: #1f77b4; stroke: #1f77b4"/>
     <use xlink:href="#m2497037b44" x="162.159605" y="168.572669" style="fill: #1f77b4; stroke: #1f77b4"/>
     <use xlink:href="#m2497037b44" x="155.563633" y="164.514549" style="fill: #1f77b4; stroke: #1f77b4"/>
     <use xlink:href="#m2497037b44" x="162.567365" y="168.002403" style="fill: #1f77b4; stroke: #1f77b4"/>
     <use xlink:href="#m2497037b44" x="153.798131" y="165.382792" style="fill: #1f77b4; stroke: #1f77b4"/>
     <use xlink:href="#m2497037b44" x="162.740097" y="165.850205" style="fill: #1f77b4; stroke: #1f77b4"/>
     <use xlink:href="#m2497037b44" x="153.111632" y="165.980827" style="fill: #1f77b4; stroke: #1f77b4"/>
     <use xlink:href="#m2497037b44" x="162.79807" y="166.980314" style="fill: #1f77b4; stroke: #1f77b4"/>
     <use xlink:href="#m2497037b44" x="153.109255" y="162.740432" style="fill: #1f77b4; stroke: #1f77b4"/>
     <use xlink:href="#m2497037b44" x="164.831555" y="168.829997" style="fill: #1f77b4; stroke: #1f77b4"/>
     <use xlink:href="#m2497037b44" x="154.808921" y="161.755974" style="fill: #1f77b4; stroke: #1f77b4"/>
     <use xlink:href="#m2497037b44" x="157.976688" y="173.066662" style="fill: #1f77b4; stroke: #1f77b4"/>
     <use xlink:href="#m2497037b44" x="160.813915" y="161.491827" style="fill: #1f77b4; stroke: #1f77b4"/>
     <use xlink:href="#m2497037b44" x="149.923687" y="166.888756" style="fill: #1f77b4; stroke: #1f77b4"/>
     <use xlink:href="#m2497037b44" x="166.602118" y="171.51224" style="fill: #1f77b4; stroke: #1f77b4"/>
     <use xlink:href="#m2497037b44" x="158.706656" y="160.830979" style="fill: #1f77b4; stroke: #1f77b4"/>
     <use xlink:href="#m2497037b44" x="148.146506" y="168.538903" style="fill: #1f77b4; stroke: #1f77b4"/>
     <use xlink:href="#m2497037b44" x="165.579179" y="171.413826" style="fill: #1f77b4; stroke: #1f77b4"/>
     <use xlink:href="#m2497037b44" x="160.535098" y="158.386422" style="fill: #1f77b4; stroke: #1f77b4"/>
     <use xlink:href="#m2497037b44" x="148.733458" y="162.01866" style="fill: #1f77b4; stroke: #1f77b4"/>
     <use xlink:href="#m2497037b44" x="152.765556" y="174.509298" style="fill: #1f77b4; stroke: #1f77b4"/>
     <use xlink:href="#m2497037b44" x="168.50949" y="166.596542" style="fill: #1f77b4; stroke: #1f77b4"/>
     <use xlink:href="#m2497037b44" x="160.835127" y="158.954193" style="fill: #1f77b4; stroke: #1f77b4"/>
     <use xlink:href="#m2497037b44" x="151.027509" y="160.294714" style="fill: #1f77b4; stroke: #1f77b4"/>
     <use xlink:href="#m2497037b44" x="144.80018" y="166.756616" style="fill: #1f77b4; stroke: #1f77b4"/>
     <use xlink:href="#m2497037b44" x="151.954906" y="177.092398" style="fill: #1f77b4; stroke: #1f77b4"/>
     <use xlink:href="#m2497037b44" x="163.698987" y="171.62916" style="fill: #1f77b4; stroke: #1f77b4"/>
     <use xlink:href="#m2497037b44" x="168.689665" y="166.080453" style="fill: #1f77b4; stroke: #1f77b4"/>
     <use xlink:href="#m2497037b44" x="160.68044" y="160.791998" style="fill: #1f77b4; stroke: #1f77b4"/>
     <use xlink:href="#m2497037b44" x="158.329873" y="158.350532" style="fill: #1f77b4; stroke: #1f77b4"/>
     <use xlink:href="#m2497037b44" x="154.444668" y="159.513923" style="fill: #1f77b4; stroke: #1f77b4"/>
     <use xlink:href="#m2497037b44" x="153.163368" y="159.624869" style="fill: #1f77b4; stroke: #1f77b4"/>
     <use xlink:href="#m2497037b44" x="150.8542" y="158.897656" style="fill: #1f77b4; stroke: #1f77b4"/>
     <use xlink:href="#m2497037b44" x="149.799899" y="160.187802" style="fill: #1f77b4; stroke: #1f77b4"/>
     <use xlink:href="#m2497037b44" x="149.591231" y="161.695628" style="fill: #1f77b4; stroke: #1f77b4"/>
     <use xlink:href="#m2497037b44" x="148.276065" y="159.099721" style="fill: #1f77b4; stroke: #1f77b4"/>
     <use xlink:href="#m2497037b44" x="149.214265" y="159.264646" style="fill: #1f77b4; stroke: #1f77b4"/>
     <use xlink:href="#m2497037b44" x="153.444874" y="158.930418" style="fill: #1f77b4; stroke: #1f77b4"/>
     <use xlink:href="#m2497037b44" x="155.866479" y="159.099428" style="fill: #1f77b4; stroke: #1f77b4"/>
     <use xlink:href="#m2497037b44" x="156.618647" y="160.307364" style="fill: #1f77b4; stroke: #1f77b4"/>
     <use xlink:href="#m2497037b44" x="161.512042" y="161.883882" style="fill: #1f77b4; stroke: #1f77b4"/>
     <use xlink:href="#m2497037b44" x="165.912057" y="163.430011" style="fill: #1f77b4; stroke: #1f77b4"/>
     <use xlink:href="#m2497037b44" x="165.387491" y="169.544849" style="fill: #1f77b4; stroke: #1f77b4"/>
     <use xlink:href="#m2497037b44" x="151.432105" y="172.100763" style="fill: #1f77b4; stroke: #1f77b4"/>
     <use xlink:href="#m2497037b44" x="146.964998" y="165.357615" style="fill: #1f77b4; stroke: #1f77b4"/>
     <use xlink:href="#m2497037b44" x="154.466077" y="160.398255" style="fill: #1f77b4; stroke: #1f77b4"/>
     <use xlink:href="#m2497037b44" x="159.162595" y="162.118647" style="fill: #1f77b4; stroke: #1f77b4"/>
     <use xlink:href="#m2497037b44" x="160.8773" y="166.729233" style="fill: #1f77b4; stroke: #1f77b4"/>
     <use xlink:href="#m2497037b44" x="149.326586" y="168.461428" style="fill: #1f77b4; stroke: #1f77b4"/>
     <use xlink:href="#m2497037b44" x="150.530273" y="160.430104" style="fill: #1f77b4; stroke: #1f77b4"/>
     <use xlink:href="#m2497037b44" x="156.331763" y="164.197209" style="fill: #1f77b4; stroke: #1f77b4"/>
     <use xlink:href="#m2497037b44" x="158.91001" y="168.391928" style="fill: #1f77b4; stroke: #1f77b4"/>
     <use xlink:href="#m2497037b44" x="147.719295" y="165.463801" style="fill: #1f77b4; stroke: #1f77b4"/>
     <use xlink:href="#m2497037b44" x="155.126572" y="164.171116" style="fill: #1f77b4; stroke: #1f77b4"/>
     <use xlink:href="#m2497037b44" x="156.495492" y="166.609842" style="fill: #1f77b4; stroke: #1f77b4"/>
     <use xlink:href="#m2497037b44" x="150.672426" y="162.786419" style="fill: #1f77b4; stroke: #1f77b4"/>
     <use xlink:href="#m2497037b44" x="156.252351" y="165.658302" style="fill: #1f77b4; stroke: #1f77b4"/>
     <use xlink:href="#m2497037b44" x="153.671052" y="167.111552" style="fill: #1f77b4; stroke: #1f77b4"/>
     <use xlink:href="#m2497037b44" x="158.496167" y="162.995333" style="fill: #1f77b4; stroke: #1f77b4"/>
     <use xlink:href="#m2497037b44" x="155.482604" y="164.277799" style="fill: #1f77b4; stroke: #1f77b4"/>
     <use xlink:href="#m2497037b44" x="152.124735" y="163.214085" style="fill: #1f77b4; stroke: #1f77b4"/>
     <use xlink:href="#m2497037b44" x="157.82775" y="163.777621" style="fill: #1f77b4; stroke: #1f77b4"/>
     <use xlink:href="#m2497037b44" x="155.136477" y="162.103393" style="fill: #1f77b4; stroke: #1f77b4"/>
     <use xlink:href="#m2497037b44" x="155.026199" y="164.141874" style="fill: #1f77b4; stroke: #1f77b4"/>
     <use xlink:href="#m2497037b44" x="157.86511" y="163.434226" style="fill: #1f77b4; stroke: #1f77b4"/>
     <use xlink:href="#m2497037b44" x="154.109353" y="164.713717" style="fill: #1f77b4; stroke: #1f77b4"/>
     <use xlink:href="#m2497037b44" x="158.88008" y="166.386968" style="fill: #1f77b4; stroke: #1f77b4"/>
     <use xlink:href="#m2497037b44" x="151.300841" y="161.951584" style="fill: #1f77b4; stroke: #1f77b4"/>
     <use xlink:href="#m2497037b44" x="152.218781" y="167.539592" style="fill: #1f77b4; stroke: #1f77b4"/>
     <use xlink:href="#m2497037b44" x="155.091222" y="160.552491" style="fill: #1f77b4; stroke: #1f77b4"/>
     <use xlink:href="#m2497037b44" x="148.668516" y="164.930201" style="fill: #1f77b4; stroke: #1f77b4"/>
     <use xlink:href="#m2497037b44" x="154.876838" y="169.169787" style="fill: #1f77b4; stroke: #1f77b4"/>
     <use xlink:href="#m2497037b44" x="157.26211" y="158.927851" style="fill: #1f77b4; stroke: #1f77b4"/>
     <use xlink:href="#m2497037b44" x="150.697187" y="163.360025" style="fill: #1f77b4; stroke: #1f77b4"/>
     <use xlink:href="#m2497037b44" x="152.580657" y="169.619053" style="fill: #1f77b4; stroke: #1f77b4"/>
     <use xlink:href="#m2497037b44" x="160.085238" y="162.320862" style="fill: #1f77b4; stroke: #1f77b4"/>
     <use xlink:href="#m2497037b44" x="148.218224" y="160.341933" style="fill: #1f77b4; stroke: #1f77b4"/>
     <use xlink:href="#m2497037b44" x="148.219925" y="165.130629" style="fill: #1f77b4; stroke: #1f77b4"/>
     <use xlink:href="#m2497037b44" x="152.336349" y="170.906404" style="fill: #1f77b4; stroke: #1f77b4"/>
     <use xlink:href="#m2497037b44" x="160.764855" y="166.357974" style="fill: #1f77b4; stroke: #1f77b4"/>
     <use xlink:href="#m2497037b44" x="154.040935" y="158.219757" style="fill: #1f77b4; stroke: #1f77b4"/>
     <use xlink:href="#m2497037b44" x="147.574795" y="161.579437" style="fill: #1f77b4; stroke: #1f77b4"/>
     <use xlink:href="#m2497037b44" x="147.075657" y="165.79627" style="fill: #1f77b4; stroke: #1f77b4"/>
     <use xlink:href="#m2497037b44" x="147.327806" y="167.931089" style="fill: #1f77b4; stroke: #1f77b4"/>
     <use xlink:href="#m2497037b44" x="150.71206" y="171.024586" style="fill: #1f77b4; stroke: #1f77b4"/>
     <use xlink:href="#m2497037b44" x="157.180893" y="170.53169" style="fill: #1f77b4; stroke: #1f77b4"/>
     <use xlink:href="#m2497037b44" x="162.340045" y="164.415215" style="fill: #1f77b4; stroke: #1f77b4"/>
     <use xlink:href="#m2497037b44" x="160.57427" y="161.808643" style="fill: #1f77b4; stroke: #1f77b4"/>
     <use xlink:href="#m2497037b44" x="160.416218" y="160.941645" style="fill: #1f77b4; stroke: #1f77b4"/>
     <use xlink:href="#m2497037b44" x="157.391724" y="160.421022" style="fill: #1f77b4; stroke: #1f77b4"/>
     <use xlink:href="#m2497037b44" x="157.12292" y="158.814111" style="fill: #1f77b4; stroke: #1f77b4"/>
     <use xlink:href="#m2497037b44" x="157.366314" y="159.685119" style="fill: #1f77b4; stroke: #1f77b4"/>
     <use xlink:href="#m2497037b44" x="158.139015" y="160.237765" style="fill: #1f77b4; stroke: #1f77b4"/>
     <use xlink:href="#m2497037b44" x="160.509315" y="162.276709" style="fill: #1f77b4; stroke: #1f77b4"/>
     <use xlink:href="#m2497037b44" x="160.618948" y="163.159046" style="fill: #1f77b4; stroke: #1f77b4"/>
     <use xlink:href="#m2497037b44" x="158.909911" y="167.615168" style="fill: #1f77b4; stroke: #1f77b4"/>
     <use xlink:href="#m2497037b44" x="152.989845" y="171.046996" style="fill: #1f77b4; stroke: #1f77b4"/>
     <use xlink:href="#m2497037b44" x="147.491484" y="170.692333" style="fill: #1f77b4; stroke: #1f77b4"/>
     <use xlink:href="#m2497037b44" x="147.26849" y="163.252031" style="fill: #1f77b4; stroke: #1f77b4"/>
     <use xlink:href="#m2497037b44" x="147.57795" y="160.524499" style="fill: #1f77b4; stroke: #1f77b4"/>
     <use xlink:href="#m2497037b44" x="150.670524" y="158.048197" style="fill: #1f77b4; stroke: #1f77b4"/>
     <use xlink:href="#m2497037b44" x="156.162605" y="160.184306" style="fill: #1f77b4; stroke: #1f77b4"/>
     <use xlink:href="#m2497037b44" x="155.372291" y="168.456171" style="fill: #1f77b4; stroke: #1f77b4"/>
     <use xlink:href="#m2497037b44" x="146.448324" y="167.387409" style="fill: #1f77b4; stroke: #1f77b4"/>
     <use xlink:href="#m2497037b44" x="145.979222" y="162.888605" style="fill: #1f77b4; stroke: #1f77b4"/>
     <use xlink:href="#m2497037b44" x="150.174558" y="161.024792" style="fill: #1f77b4; stroke: #1f77b4"/>
     <use xlink:href="#m2497037b44" x="152.724653" y="168.013647" style="fill: #1f77b4; stroke: #1f77b4"/>
     <use xlink:href="#m2497037b44" x="144.889669" y="166.338121" style="fill: #1f77b4; stroke: #1f77b4"/>
     <use xlink:href="#m2497037b44" x="148.760275" y="161.328053" style="fill: #1f77b4; stroke: #1f77b4"/>
    </g>
   </g>
   <g id="line2d_14">
    <path d="M 143.778628 187.57782 
L 145.576481 187.785652 
L 147.412965 187.766389 
L 149.244984 187.520083 
L 151.03162 187.052397 
L 152.735515 186.374085 
L 154.32415 185.500287 
L 155.77104 184.449674 
L 157.056828 183.243487 
L 158.170346 181.904499 
L 159.174946 180.3407 
L 160.040772 178.556657 
L 160.804565 176.4403 
L 162.789503 170.397953 
L 163.495145 169.29001 
L 164.223134 168.527971 
L 164.994239 168.001951 
L 165.883617 167.66086 
L 166.714128 167.559165 
L 167.561597 167.669118 
L 168.359596 168.013013 
L 168.927105 168.479824 
L 169.352149 169.095542 
L 169.590511 169.830639 
L 169.612214 170.643572 
L 169.406962 171.486603 
L 168.985212 172.313029 
L 168.233304 173.228385 
L 167.277658 174.018166 
L 166.002319 174.754432 
L 164.456577 175.355921 
L 162.733802 175.771732 
L 160.771437 176.003001 
L 158.582716 176.022804 
L 156.143996 175.81065 
L 153.298278 175.328133 
L 147.113748 174.173455 
L 145.448607 174.162822 
L 143.979433 174.368522 
L 142.684909 174.765275 
L 141.549459 175.341941 
L 140.615971 176.066604 
L 139.913379 176.896495 
L 139.453134 177.784283 
L 139.229378 178.683827 
L 139.228356 179.612844 
L 139.460317 180.535021 
L 139.925179 181.411499 
L 140.611685 182.202913 
L 141.497205 182.871583 
L 142.54823 183.383716 
L 143.721545 183.711491 
L 144.966034 183.834893 
L 146.225025 183.743182 
L 147.439065 183.435888 
L 148.54896 182.923266 
L 149.44521 182.274608 
L 150.159971 181.488817 
L 150.659437 180.597688 
L 150.909182 179.703695 
L 150.937229 178.783643 
L 150.739724 177.87249 
L 150.321597 177.005458 
L 149.696542 176.216613 
L 148.886637 175.537463 
L 147.847657 174.962824 
L 146.67555 174.573242 
L 145.506897 174.393857 
L 145.506897 174.393857 
" clip-path="url(#p4222c85790)" style="fill: none; stroke: #d62728; stroke-width: 1.5; stroke-linecap: square"/>
   </g>
   <g id="patch_3">
    <path d="M 37.848438 307.872 
L 37.848438 41.76 
" style="fill: none; stroke: #000000; stroke-width: 0.8; stroke-linejoin: miter; stroke-linecap: square"/>
   </g>
   <g id="patch_4">
    <path d="M 394.968438 307.872 
L 394.968438 41.76 
" style="fill: none; stroke: #000000; stroke-width: 0.8; stroke-linejoin: miter; stroke-linecap: square"/>
   </g>
   <g id="patch_5">
    <path d="M 37.848438 307.872 
L 394.968438 307.872 
" style="fill: none; stroke: #000000; stroke-width: 0.8; stroke-linejoin: miter; stroke-linecap: square"/>
   </g>
   <g id="patch_6">
    <path d="M 37.848438 41.76 
L 394.968438 41.76 
" style="fill: none; stroke: #000000; stroke-width: 0.8; stroke-linejoin: miter; stroke-linecap: square"/>
   </g>
   <g id="text_15">
    <g id="patch_7">
     <path d="M 412.824438 102.337163 
L 551.224438 102.337163 
Q 555.224438 102.337163 555.224438 98.337163 
L 555.224438 55.0656 
Q 555.224438 51.0656 551.224438 51.0656 
L 412.824438 51.0656 
Q 408.824438 51.0656 408.824438 55.0656 
L 408.824438 98.337163 
Q 408.824438 102.337163 412.824438 102.337163 
z
" style="fill: #ffffff; opacity: 0.5; stroke: #000000; stroke-linejoin: miter"/>
    </g>
    <!-- Summary -->
    <g transform="translate(412.824438 62.664038) scale(0.1 -0.1)">
     <defs>
      <path id="DejaVuSans-53" d="M 3425 4513 
L 3425 3897 
Q 3066 4069 2747 4153 
Q 2428 4238 2131 4238 
Q 1616 4238 1336 4038 
Q 1056 3838 1056 3469 
Q 1056 3159 1242 3001 
Q 1428 2844 1947 2747 
L 2328 2669 
Q 3034 2534 3370 2195 
Q 3706 1856 3706 1288 
Q 3706 609 3251 259 
Q 2797 -91 1919 -91 
Q 1588 -91 1214 -16 
Q 841 59 441 206 
L 441 856 
Q 825 641 1194 531 
Q 1563 422 1919 422 
Q 2459 422 2753 634 
Q 3047 847 3047 1241 
Q 3047 1584 2836 1778 
Q 2625 1972 2144 2069 
L 1759 2144 
Q 1053 2284 737 2584 
Q 422 2884 422 3419 
Q 422 4038 858 4394 
Q 1294 4750 2059 4750 
Q 2388 4750 2728 4690 
Q 3069 4631 3425 4513 
z
" transform="scale(0.015625)"/>
      <path id="DejaVuSans-75" d="M 544 1381 
L 544 3500 
L 1119 3500 
L 1119 1403 
Q 1119 906 1312 657 
Q 1506 409 1894 409 
Q 2359 409 2629 706 
Q 2900 1003 2900 1516 
L 2900 3500 
L 3475 3500 
L 3475 0 
L 2900 0 
L 2900 538 
Q 2691 219 2414 64 
Q 2138 -91 1772 -91 
Q 1169 -91 856 284 
Q 544 659 544 1381 
z
M 1991 3584 
L 1991 3584 
z
" transform="scale(0.015625)"/>
      <path id="DejaVuSans-61" d="M 2194 1759 
Q 1497 1759 1228 1600 
Q 959 1441 959 1056 
Q 959 750 1161 570 
Q 1363 391 1709 391 
Q 2188 391 2477 730 
Q 2766 1069 2766 1631 
L 2766 1759 
L 2194 1759 
z
M 3341 1997 
L 3341 0 
L 2766 0 
L 2766 531 
Q 2569 213 2275 61 
Q 1981 -91 1556 -91 
Q 1019 -91 701 211 
Q 384 513 384 1019 
Q 384 1609 779 1909 
Q 1175 2209 1959 2209 
L 2766 2209 
L 2766 2266 
Q 2766 2663 2505 2880 
Q 2244 3097 1772 3097 
Q 1472 3097 1187 3025 
Q 903 2953 641 2809 
L 641 3341 
Q 956 3463 1253 3523 
Q 1550 3584 1831 3584 
Q 2591 3584 2966 3190 
Q 3341 2797 3341 1997 
z
" transform="scale(0.015625)"/>
      <path id="DejaVuSans-72" d="M 2631 2963 
Q 2534 3019 2420 3045 
Q 2306 3072 2169 3072 
Q 1681 3072 1420 2755 
Q 1159 2438 1159 1844 
L 1159 0 
L 581 0 
L 581 3500 
L 1159 3500 
L 1159 2956 
Q 1341 3275 1631 3429 
Q 1922 3584 2338 3584 
Q 2397 3584 2469 3576 
Q 2541 3569 2628 3553 
L 2631 2963 
z
" transform="scale(0.015625)"/>
      <path id="DejaVuSans-79" d="M 2059 -325 
Q 1816 -950 1584 -1140 
Q 1353 -1331 966 -1331 
L 506 -1331 
L 506 -850 
L 844 -850 
Q 1081 -850 1212 -737 
Q 1344 -625 1503 -206 
L 1606 56 
L 191 3500 
L 800 3500 
L 1894 763 
L 2988 3500 
L 3597 3500 
L 2059 -325 
z
" transform="scale(0.015625)"/>
     </defs>
     <use xlink:href="#DejaVuSans-53"/>
     <use xlink:href="#DejaVuSans-75" x="63.476562"/>
     <use xlink:href="#DejaVuSans-6d" x="126.855469"/>
     <use xlink:href="#DejaVuSans-6d" x="224.267578"/>
     <use xlink:href="#DejaVuSans-61" x="321.679688"/>
     <use xlink:href="#DejaVuSans-72" x="382.958984"/>
     <use xlink:href="#DejaVuSans-79" x="424.072266"/>
    </g>
    <!-- $Q_I$: -5.9$\pm$3.2 k -->
    <g transform="translate(412.824438 73.86185) scale(0.1 -0.1)">
     <defs>
      <path id="DejaVuSans-Oblique-51" d="M 2309 -84 
Q 2275 -88 2237 -89 
Q 2200 -91 2125 -91 
Q 1250 -91 756 411 
Q 263 913 263 1797 
Q 263 2319 452 2844 
Q 641 3369 978 3788 
Q 1369 4269 1858 4509 
Q 2347 4750 2938 4750 
Q 3794 4750 4287 4245 
Q 4781 3741 4781 2869 
Q 4781 1928 4265 1147 
Q 3750 366 2919 44 
L 3553 -825 
L 2847 -825 
L 2309 -84 
z
M 2919 4238 
Q 2400 4238 2003 3986 
Q 1606 3734 1313 3219 
Q 1125 2891 1026 2522 
Q 928 2153 928 1778 
Q 928 1128 1239 775 
Q 1550 422 2119 422 
Q 2631 422 3032 676 
Q 3434 931 3719 1434 
Q 3909 1772 4009 2142 
Q 4109 2513 4109 2881 
Q 4109 3528 3796 3883 
Q 3484 4238 2919 4238 
z
" transform="scale(0.015625)"/>
      <path id="DejaVuSans-Oblique-49" d="M 1081 4666 
L 1716 4666 
L 806 0 
L 172 0 
L 1081 4666 
z
" transform="scale(0.015625)"/>
      <path id="DejaVuSans-3a" d="M 750 794 
L 1409 794 
L 1409 0 
L 750 0 
L 750 794 
z
M 750 3309 
L 1409 3309 
L 1409 2516 
L 750 2516 
L 750 3309 
z
" transform="scale(0.015625)"/>
      <path id="DejaVuSans-35" d="M 691 4666 
L 3169 4666 
L 3169 4134 
L 1269 4134 
L 1269 2991 
Q 1406 3038 1543 3061 
Q 1681 3084 1819 3084 
Q 2600 3084 3056 2656 
Q 3513 2228 3513 1497 
Q 3513 744 3044 326 
Q 2575 -91 1722 -91 
Q 1428 -91 1123 -41 
Q 819 9 494 109 
L 494 744 
Q 775 591 1075 516 
Q 1375 441 1709 441 
Q 2250 441 2565 725 
Q 2881 1009 2881 1497 
Q 2881 1984 2565 2268 
Q 2250 2553 1709 2553 
Q 1456 2553 1204 2497 
Q 953 2441 691 2322 
L 691 4666 
z
" transform="scale(0.015625)"/>
      <path id="DejaVuSans-2e" d="M 684 794 
L 1344 794 
L 1344 0 
L 684 0 
L 684 794 
z
" transform="scale(0.015625)"/>
      <path id="DejaVuSans-39" d="M 703 97 
L 703 672 
Q 941 559 1184 500 
Q 1428 441 1663 441 
Q 2288 441 2617 861 
Q 2947 1281 2994 2138 
Q 2813 1869 2534 1725 
Q 2256 1581 1919 1581 
Q 1219 1581 811 2004 
Q 403 2428 403 3163 
Q 403 3881 828 4315 
Q 1253 4750 1959 4750 
Q 2769 4750 3195 4129 
Q 3622 3509 3622 2328 
Q 3622 1225 3098 567 
Q 2575 -91 1691 -91 
Q 1453 -91 1209 -44 
Q 966 3 703 97 
z
M 1959 2075 
Q 2384 2075 2632 2365 
Q 2881 2656 2881 3163 
Q 2881 3666 2632 3958 
Q 2384 4250 1959 4250 
Q 1534 4250 1286 3958 
Q 1038 3666 1038 3163 
Q 1038 2656 1286 2365 
Q 1534 2075 1959 2075 
z
" transform="scale(0.015625)"/>
      <path id="DejaVuSans-b1" d="M 2944 4013 
L 2944 2803 
L 4684 2803 
L 4684 2272 
L 2944 2272 
L 2944 1063 
L 2419 1063 
L 2419 2272 
L 678 2272 
L 678 2803 
L 2419 2803 
L 2419 4013 
L 2944 4013 
z
M 678 531 
L 4684 531 
L 4684 0 
L 678 0 
L 678 531 
z
" transform="scale(0.015625)"/>
      <path id="DejaVuSans-33" d="M 2597 2516 
Q 3050 2419 3304 2112 
Q 3559 1806 3559 1356 
Q 3559 666 3084 287 
Q 2609 -91 1734 -91 
Q 1441 -91 1130 -33 
Q 819 25 488 141 
L 488 750 
Q 750 597 1062 519 
Q 1375 441 1716 441 
Q 2309 441 2620 675 
Q 2931 909 2931 1356 
Q 2931 1769 2642 2001 
Q 2353 2234 1838 2234 
L 1294 2234 
L 1294 2753 
L 1863 2753 
Q 2328 2753 2575 2939 
Q 2822 3125 2822 3475 
Q 2822 3834 2567 4026 
Q 2313 4219 1838 4219 
Q 1578 4219 1281 4162 
Q 984 4106 628 3988 
L 628 4550 
Q 988 4650 1302 4700 
Q 1616 4750 1894 4750 
Q 2613 4750 3031 4423 
Q 3450 4097 3450 3541 
Q 3450 3153 3228 2886 
Q 3006 2619 2597 2516 
z
" transform="scale(0.015625)"/>
      <path id="DejaVuSans-6b" d="M 581 4863 
L 1159 4863 
L 1159 1991 
L 2875 3500 
L 3609 3500 
L 1753 1863 
L 3688 0 
L 2938 0 
L 1159 1709 
L 1159 0 
L 581 0 
L 581 4863 
z
" transform="scale(0.015625)"/>
     </defs>
     <use xlink:href="#DejaVuSans-Oblique-51" transform="translate(0 0.015625)"/>
     <use xlink:href="#DejaVuSans-Oblique-49" transform="translate(78.710938 -16.390625) scale(0.7)"/>
     <use xlink:href="#DejaVuSans-3a" transform="translate(102.089844 0.015625)"/>
     <use xlink:href="#DejaVuSans-20" transform="translate(135.78125 0.015625)"/>
     <use xlink:href="#DejaVuSans-2d" transform="translate(167.568359 0.015625)"/>
     <use xlink:href="#DejaVuSans-35" transform="translate(203.652344 0.015625)"/>
     <use xlink:href="#DejaVuSans-2e" transform="translate(267.275391 0.015625)"/>
     <use xlink:href="#DejaVuSans-39" transform="translate(299.0625 0.015625)"/>
     <use xlink:href="#DejaVuSans-b1" transform="translate(362.685547 0.015625)"/>
     <use xlink:href="#DejaVuSans-33" transform="translate(446.474609 0.015625)"/>
     <use xlink:href="#DejaVuSans-2e" transform="translate(510.097656 0.015625)"/>
     <use xlink:href="#DejaVuSans-32" transform="translate(536.384766 0.015625)"/>
     <use xlink:href="#DejaVuSans-20" transform="translate(600.007812 0.015625)"/>
     <use xlink:href="#DejaVuSans-6b" transform="translate(631.794922 0.015625)"/>
    </g>
    <!-- $Q_C$: 4.6$\pm$2.1 k -->
    <g transform="translate(412.824438 85.059663) scale(0.1 -0.1)">
     <defs>
      <path id="DejaVuSans-Oblique-43" d="M 4447 4306 
L 4319 3641 
Q 4019 3944 3683 4091 
Q 3347 4238 2956 4238 
Q 2422 4238 2017 3981 
Q 1613 3725 1319 3200 
Q 1131 2863 1032 2486 
Q 934 2109 934 1728 
Q 934 1091 1264 756 
Q 1594 422 2222 422 
Q 2656 422 3056 561 
Q 3456 700 3834 978 
L 3688 231 
Q 3316 72 2936 -9 
Q 2556 -91 2175 -91 
Q 1278 -91 773 396 
Q 269 884 269 1753 
Q 269 2309 461 2846 
Q 653 3384 1013 3828 
Q 1394 4300 1883 4525 
Q 2372 4750 3022 4750 
Q 3422 4750 3780 4639 
Q 4138 4528 4447 4306 
z
" transform="scale(0.015625)"/>
     </defs>
     <use xlink:href="#DejaVuSans-Oblique-51" transform="translate(0 0.015625)"/>
     <use xlink:href="#DejaVuSans-Oblique-43" transform="translate(78.710938 -16.390625) scale(0.7)"/>
     <use xlink:href="#DejaVuSans-3a" transform="translate(130.322266 0.015625)"/>
     <use xlink:href="#DejaVuSans-20" transform="translate(164.013672 0.015625)"/>
     <use xlink:href="#DejaVuSans-34" transform="translate(195.800781 0.015625)"/>
     <use xlink:href="#DejaVuSans-2e" transform="translate(259.423828 0.015625)"/>
     <use xlink:href="#DejaVuSans-36" transform="translate(291.210938 0.015625)"/>
     <use xlink:href="#DejaVuSans-b1" transform="translate(354.833984 0.015625)"/>
     <use xlink:href="#DejaVuSans-32" transform="translate(438.623047 0.015625)"/>
     <use xlink:href="#DejaVuSans-2e" transform="translate(502.246094 0.015625)"/>
     <use xlink:href="#DejaVuSans-31" transform="translate(534.033203 0.015625)"/>
     <use xlink:href="#DejaVuSans-20" transform="translate(597.65625 0.015625)"/>
     <use xlink:href="#DejaVuSans-6b" transform="translate(629.443359 0.015625)"/>
    </g>
    <!-- $f_{res}$: 6.750830$\pm$5.8e-05 GHz -->
    <g transform="translate(412.824438 96.257475) scale(0.1 -0.1)">
     <defs>
      <path id="DejaVuSans-Oblique-66" d="M 3059 4863 
L 2969 4384 
L 2419 4384 
Q 2106 4384 1964 4261 
Q 1822 4138 1753 3809 
L 1691 3500 
L 2638 3500 
L 2553 3053 
L 1606 3053 
L 1013 0 
L 434 0 
L 1031 3053 
L 481 3053 
L 563 3500 
L 1113 3500 
L 1159 3744 
Q 1278 4363 1576 4613 
Q 1875 4863 2516 4863 
L 3059 4863 
z
" transform="scale(0.015625)"/>
      <path id="DejaVuSans-Oblique-72" d="M 2853 2969 
Q 2766 3016 2653 3041 
Q 2541 3066 2413 3066 
Q 1953 3066 1609 2717 
Q 1266 2369 1153 1784 
L 800 0 
L 225 0 
L 909 3500 
L 1484 3500 
L 1375 2956 
Q 1603 3259 1920 3421 
Q 2238 3584 2597 3584 
Q 2691 3584 2781 3573 
Q 2872 3563 2963 3538 
L 2853 2969 
z
" transform="scale(0.015625)"/>
      <path id="DejaVuSans-Oblique-65" d="M 3078 2063 
Q 3088 2113 3092 2166 
Q 3097 2219 3097 2272 
Q 3097 2653 2873 2875 
Q 2650 3097 2266 3097 
Q 1838 3097 1509 2826 
Q 1181 2556 1013 2059 
L 3078 2063 
z
M 3578 1613 
L 903 1613 
Q 884 1494 878 1425 
Q 872 1356 872 1306 
Q 872 872 1139 634 
Q 1406 397 1894 397 
Q 2269 397 2603 481 
Q 2938 566 3225 728 
L 3116 159 
Q 2806 34 2476 -28 
Q 2147 -91 1806 -91 
Q 1078 -91 686 257 
Q 294 606 294 1247 
Q 294 1794 489 2264 
Q 684 2734 1063 3103 
Q 1306 3334 1642 3459 
Q 1978 3584 2356 3584 
Q 2950 3584 3301 3228 
Q 3653 2872 3653 2272 
Q 3653 2128 3634 1964 
Q 3616 1800 3578 1613 
z
" transform="scale(0.015625)"/>
      <path id="DejaVuSans-Oblique-73" d="M 3200 3397 
L 3091 2853 
Q 2863 2978 2609 3040 
Q 2356 3103 2088 3103 
Q 1634 3103 1373 2948 
Q 1113 2794 1113 2528 
Q 1113 2219 1719 2053 
Q 1766 2041 1788 2034 
L 1972 1978 
Q 2547 1819 2739 1644 
Q 2931 1469 2931 1166 
Q 2931 609 2489 259 
Q 2047 -91 1331 -91 
Q 1053 -91 747 -37 
Q 441 16 72 128 
L 184 722 
Q 500 559 806 475 
Q 1113 391 1394 391 
Q 1816 391 2080 572 
Q 2344 753 2344 1031 
Q 2344 1331 1650 1516 
L 1591 1531 
L 1394 1581 
Q 956 1697 753 1886 
Q 550 2075 550 2369 
Q 550 2928 970 3256 
Q 1391 3584 2113 3584 
Q 2397 3584 2667 3537 
Q 2938 3491 3200 3397 
z
" transform="scale(0.015625)"/>
      <path id="DejaVuSans-37" d="M 525 4666 
L 3525 4666 
L 3525 4397 
L 1831 0 
L 1172 0 
L 2766 4134 
L 525 4134 
L 525 4666 
z
" transform="scale(0.015625)"/>
      <path id="DejaVuSans-47" d="M 3809 666 
L 3809 1919 
L 2778 1919 
L 2778 2438 
L 4434 2438 
L 4434 434 
Q 4069 175 3628 42 
Q 3188 -91 2688 -91 
Q 1594 -91 976 548 
Q 359 1188 359 2328 
Q 359 3472 976 4111 
Q 1594 4750 2688 4750 
Q 3144 4750 3555 4637 
Q 3966 4525 4313 4306 
L 4313 3634 
Q 3963 3931 3569 4081 
Q 3175 4231 2741 4231 
Q 1884 4231 1454 3753 
Q 1025 3275 1025 2328 
Q 1025 1384 1454 906 
Q 1884 428 2741 428 
Q 3075 428 3337 486 
Q 3600 544 3809 666 
z
" transform="scale(0.015625)"/>
      <path id="DejaVuSans-48" d="M 628 4666 
L 1259 4666 
L 1259 2753 
L 3553 2753 
L 3553 4666 
L 4184 4666 
L 4184 0 
L 3553 0 
L 3553 2222 
L 1259 2222 
L 1259 0 
L 628 0 
L 628 4666 
z
" transform="scale(0.015625)"/>
      <path id="DejaVuSans-7a" d="M 353 3500 
L 3084 3500 
L 3084 2975 
L 922 459 
L 3084 459 
L 3084 0 
L 275 0 
L 275 525 
L 2438 3041 
L 353 3041 
L 353 3500 
z
" transform="scale(0.015625)"/>
     </defs>
     <use xlink:href="#DejaVuSans-Oblique-66" transform="translate(0 0.015625)"/>
     <use xlink:href="#DejaVuSans-Oblique-72" transform="translate(35.205078 -16.390625) scale(0.7)"/>
     <use xlink:href="#DejaVuSans-Oblique-65" transform="translate(63.984375 -16.390625) scale(0.7)"/>
     <use xlink:href="#DejaVuSans-Oblique-73" transform="translate(107.050781 -16.390625) scale(0.7)"/>
     <use xlink:href="#DejaVuSans-3a" transform="translate(146.254883 0.015625)"/>
     <use xlink:href="#DejaVuSans-20" transform="translate(179.946289 0.015625)"/>
     <use xlink:href="#DejaVuSans-36" transform="translate(211.733398 0.015625)"/>
     <use xlink:href="#DejaVuSans-2e" transform="translate(275.356445 0.015625)"/>
     <use xlink:href="#DejaVuSans-37" transform="translate(299.393555 0.015625)"/>
     <use xlink:href="#DejaVuSans-35" transform="translate(363.016602 0.015625)"/>
     <use xlink:href="#DejaVuSans-30" transform="translate(426.639648 0.015625)"/>
     <use xlink:href="#DejaVuSans-38" transform="translate(490.262695 0.015625)"/>
     <use xlink:href="#DejaVuSans-33" transform="translate(553.885742 0.015625)"/>
     <use xlink:href="#DejaVuSans-30" transform="translate(617.508789 0.015625)"/>
     <use xlink:href="#DejaVuSans-b1" transform="translate(681.131836 0.015625)"/>
     <use xlink:href="#DejaVuSans-35" transform="translate(764.920898 0.015625)"/>
     <use xlink:href="#DejaVuSans-2e" transform="translate(828.543945 0.015625)"/>
     <use xlink:href="#DejaVuSans-38" transform="translate(857.706055 0.015625)"/>
     <use xlink:href="#DejaVuSans-65" transform="translate(921.329102 0.015625)"/>
     <use xlink:href="#DejaVuSans-2d" transform="translate(982.852539 0.015625)"/>
     <use xlink:href="#DejaVuSans-30" transform="translate(1018.936523 0.015625)"/>
     <use xlink:href="#DejaVuSans-35" transform="translate(1082.55957 0.015625)"/>
     <use xlink:href="#DejaVuSans-20" transform="translate(1146.182617 0.015625)"/>
     <use xlink:href="#DejaVuSans-47" transform="translate(1177.969727 0.015625)"/>
     <use xlink:href="#DejaVuSans-48" transform="translate(1255.459961 0.015625)"/>
     <use xlink:href="#DejaVuSans-7a" transform="translate(1330.655273 0.015625)"/>
    </g>
   </g>
  </g>
  <g id="text_16">
   <!-- S21 ResonatorSpectroscopy -->
   <g transform="translate(126.52 16.318125) scale(0.12 -0.12)">
    <defs>
     <path id="DejaVuSans-73" d="M 2834 3397 
L 2834 2853 
Q 2591 2978 2328 3040 
Q 2066 3103 1784 3103 
Q 1356 3103 1142 2972 
Q 928 2841 928 2578 
Q 928 2378 1081 2264 
Q 1234 2150 1697 2047 
L 1894 2003 
Q 2506 1872 2764 1633 
Q 3022 1394 3022 966 
Q 3022 478 2636 193 
Q 2250 -91 1575 -91 
Q 1294 -91 989 -36 
Q 684 19 347 128 
L 347 722 
Q 666 556 975 473 
Q 1284 391 1588 391 
Q 1994 391 2212 530 
Q 2431 669 2431 922 
Q 2431 1156 2273 1281 
Q 2116 1406 1581 1522 
L 1381 1569 
Q 847 1681 609 1914 
Q 372 2147 372 2553 
Q 372 3047 722 3315 
Q 1072 3584 1716 3584 
Q 2034 3584 2315 3537 
Q 2597 3491 2834 3397 
z
" transform="scale(0.015625)"/>
     <path id="DejaVuSans-6f" d="M 1959 3097 
Q 1497 3097 1228 2736 
Q 959 2375 959 1747 
Q 959 1119 1226 758 
Q 1494 397 1959 397 
Q 2419 397 2687 759 
Q 2956 1122 2956 1747 
Q 2956 2369 2687 2733 
Q 2419 3097 1959 3097 
z
M 1959 3584 
Q 2709 3584 3137 3096 
Q 3566 2609 3566 1747 
Q 3566 888 3137 398 
Q 2709 -91 1959 -91 
Q 1206 -91 779 398 
Q 353 888 353 1747 
Q 353 2609 779 3096 
Q 1206 3584 1959 3584 
z
" transform="scale(0.015625)"/>
     <path id="DejaVuSans-6e" d="M 3513 2113 
L 3513 0 
L 2938 0 
L 2938 2094 
Q 2938 2591 2744 2837 
Q 2550 3084 2163 3084 
Q 1697 3084 1428 2787 
Q 1159 2491 1159 1978 
L 1159 0 
L 581 0 
L 581 3500 
L 1159 3500 
L 1159 2956 
Q 1366 3272 1645 3428 
Q 1925 3584 2291 3584 
Q 2894 3584 3203 3211 
Q 3513 2838 3513 2113 
z
" transform="scale(0.015625)"/>
     <path id="DejaVuSans-74" d="M 1172 4494 
L 1172 3500 
L 2356 3500 
L 2356 3053 
L 1172 3053 
L 1172 1153 
Q 1172 725 1289 603 
Q 1406 481 1766 481 
L 2356 481 
L 2356 0 
L 1766 0 
Q 1100 0 847 248 
Q 594 497 594 1153 
L 594 3053 
L 172 3053 
L 172 3500 
L 594 3500 
L 594 4494 
L 1172 4494 
z
" transform="scale(0.015625)"/>
     <path id="DejaVuSans-70" d="M 1159 525 
L 1159 -1331 
L 581 -1331 
L 581 3500 
L 1159 3500 
L 1159 2969 
Q 1341 3281 1617 3432 
Q 1894 3584 2278 3584 
Q 2916 3584 3314 3078 
Q 3713 2572 3713 1747 
Q 3713 922 3314 415 
Q 2916 -91 2278 -91 
Q 1894 -91 1617 61 
Q 1341 213 1159 525 
z
M 3116 1747 
Q 3116 2381 2855 2742 
Q 2594 3103 2138 3103 
Q 1681 3103 1420 2742 
Q 1159 2381 1159 1747 
Q 1159 1113 1420 752 
Q 1681 391 2138 391 
Q 2594 391 2855 752 
Q 3116 1113 3116 1747 
z
" transform="scale(0.015625)"/>
     <path id="DejaVuSans-63" d="M 3122 3366 
L 3122 2828 
Q 2878 2963 2633 3030 
Q 2388 3097 2138 3097 
Q 1578 3097 1268 2742 
Q 959 2388 959 1747 
Q 959 1106 1268 751 
Q 1578 397 2138 397 
Q 2388 397 2633 464 
Q 2878 531 3122 666 
L 3122 134 
Q 2881 22 2623 -34 
Q 2366 -91 2075 -91 
Q 1284 -91 818 406 
Q 353 903 353 1747 
Q 353 2603 823 3093 
Q 1294 3584 2113 3584 
Q 2378 3584 2631 3529 
Q 2884 3475 3122 3366 
z
" transform="scale(0.015625)"/>
    </defs>
    <use xlink:href="#DejaVuSans-53"/>
    <use xlink:href="#DejaVuSans-32" x="63.476562"/>
    <use xlink:href="#DejaVuSans-31" x="127.099609"/>
    <use xlink:href="#DejaVuSans-20" x="190.722656"/>
    <use xlink:href="#DejaVuSans-52" x="222.509766"/>
    <use xlink:href="#DejaVuSans-65" x="287.492188"/>
    <use xlink:href="#DejaVuSans-73" x="349.015625"/>
    <use xlink:href="#DejaVuSans-6f" x="401.115234"/>
    <use xlink:href="#DejaVuSans-6e" x="462.296875"/>
    <use xlink:href="#DejaVuSans-61" x="525.675781"/>
    <use xlink:href="#DejaVuSans-74" x="586.955078"/>
    <use xlink:href="#DejaVuSans-6f" x="626.164062"/>
    <use xlink:href="#DejaVuSans-72" x="687.345703"/>
    <use xlink:href="#DejaVuSans-53" x="728.458984"/>
    <use xlink:href="#DejaVuSans-70" x="791.935547"/>
    <use xlink:href="#DejaVuSans-65" x="855.412109"/>
    <use xlink:href="#DejaVuSans-63" x="916.935547"/>
    <use xlink:href="#DejaVuSans-74" x="971.916016"/>
    <use xlink:href="#DejaVuSans-72" x="1011.125"/>
    <use xlink:href="#DejaVuSans-6f" x="1049.988281"/>
    <use xlink:href="#DejaVuSans-73" x="1111.169922"/>
    <use xlink:href="#DejaVuSans-63" x="1163.269531"/>
    <use xlink:href="#DejaVuSans-6f" x="1218.25"/>
    <use xlink:href="#DejaVuSans-70" x="1279.431641"/>
    <use xlink:href="#DejaVuSans-79" x="1342.908203"/>
   </g>
   <!-- tuid: 20230127-175056-104-c9f24d -->
   <g transform="translate(103.025312 29.7555) scale(0.12 -0.12)">
    <defs>
     <path id="DejaVuSans-69" d="M 603 3500 
L 1178 3500 
L 1178 0 
L 603 0 
L 603 3500 
z
M 603 4863 
L 1178 4863 
L 1178 4134 
L 603 4134 
L 603 4863 
z
" transform="scale(0.015625)"/>
     <path id="DejaVuSans-64" d="M 2906 2969 
L 2906 4863 
L 3481 4863 
L 3481 0 
L 2906 0 
L 2906 525 
Q 2725 213 2448 61 
Q 2172 -91 1784 -91 
Q 1150 -91 751 415 
Q 353 922 353 1747 
Q 353 2572 751 3078 
Q 1150 3584 1784 3584 
Q 2172 3584 2448 3432 
Q 2725 3281 2906 2969 
z
M 947 1747 
Q 947 1113 1208 752 
Q 1469 391 1925 391 
Q 2381 391 2643 752 
Q 2906 1113 2906 1747 
Q 2906 2381 2643 2742 
Q 2381 3103 1925 3103 
Q 1469 3103 1208 2742 
Q 947 2381 947 1747 
z
" transform="scale(0.015625)"/>
     <path id="DejaVuSans-66" d="M 2375 4863 
L 2375 4384 
L 1825 4384 
Q 1516 4384 1395 4259 
Q 1275 4134 1275 3809 
L 1275 3500 
L 2222 3500 
L 2222 3053 
L 1275 3053 
L 1275 0 
L 697 0 
L 697 3053 
L 147 3053 
L 147 3500 
L 697 3500 
L 697 3744 
Q 697 4328 969 4595 
Q 1241 4863 1831 4863 
L 2375 4863 
z
" transform="scale(0.015625)"/>
    </defs>
    <use xlink:href="#DejaVuSans-74"/>
    <use xlink:href="#DejaVuSans-75" x="39.208984"/>
    <use xlink:href="#DejaVuSans-69" x="102.587891"/>
    <use xlink:href="#DejaVuSans-64" x="130.371094"/>
    <use xlink:href="#DejaVuSans-3a" x="193.847656"/>
    <use xlink:href="#DejaVuSans-20" x="227.539062"/>
    <use xlink:href="#DejaVuSans-32" x="259.326172"/>
    <use xlink:href="#DejaVuSans-30" x="322.949219"/>
    <use xlink:href="#DejaVuSans-32" x="386.572266"/>
    <use xlink:href="#DejaVuSans-33" x="450.195312"/>
    <use xlink:href="#DejaVuSans-30" x="513.818359"/>
    <use xlink:href="#DejaVuSans-31" x="577.441406"/>
    <use xlink:href="#DejaVuSans-32" x="641.064453"/>
    <use xlink:href="#DejaVuSans-37" x="704.6875"/>
    <use xlink:href="#DejaVuSans-2d" x="768.310547"/>
    <use xlink:href="#DejaVuSans-31" x="804.394531"/>
    <use xlink:href="#DejaVuSans-37" x="868.017578"/>
    <use xlink:href="#DejaVuSans-35" x="931.640625"/>
    <use xlink:href="#DejaVuSans-30" x="995.263672"/>
    <use xlink:href="#DejaVuSans-35" x="1058.886719"/>
    <use xlink:href="#DejaVuSans-36" x="1122.509766"/>
    <use xlink:href="#DejaVuSans-2d" x="1186.132812"/>
    <use xlink:href="#DejaVuSans-31" x="1222.216797"/>
    <use xlink:href="#DejaVuSans-30" x="1285.839844"/>
    <use xlink:href="#DejaVuSans-34" x="1349.462891"/>
    <use xlink:href="#DejaVuSans-2d" x="1413.085938"/>
    <use xlink:href="#DejaVuSans-63" x="1449.169922"/>
    <use xlink:href="#DejaVuSans-39" x="1504.150391"/>
    <use xlink:href="#DejaVuSans-66" x="1567.773438"/>
    <use xlink:href="#DejaVuSans-32" x="1602.978516"/>
    <use xlink:href="#DejaVuSans-34" x="1666.601562"/>
    <use xlink:href="#DejaVuSans-64" x="1730.224609"/>
   </g>
  </g>
 </g>
 <defs>
  <clipPath id="p4222c85790">
   <rect x="37.848438" y="41.76" width="357.12" height="266.112"/>
  </clipPath>
 </defs>
</svg>
