<?xml version="1.0" encoding="utf-8" standalone="no"?>
<!DOCTYPE svg PUBLIC "-//W3C//DTD SVG 1.1//EN"
  "http://www.w3.org/Graphics/SVG/1.1/DTD/svg11.dtd">
<svg xmlns:xlink="http://www.w3.org/1999/xlink" width="622.441625pt" height="345.42825pt" viewBox="0 0 622.441625 345.42825" xmlns="http://www.w3.org/2000/svg" version="1.1">
 <metadata>
  <rdf:RDF xmlns:dc="http://purl.org/dc/elements/1.1/" xmlns:cc="http://creativecommons.org/ns#" xmlns:rdf="http://www.w3.org/1999/02/22-rdf-syntax-ns#">
   <cc:Work>
    <dc:type rdf:resource="http://purl.org/dc/dcmitype/StillImage"/>
    <dc:date>2023-01-27T17:54:25.244512</dc:date>
    <dc:format>image/svg+xml</dc:format>
    <dc:creator>
     <cc:Agent>
      <dc:title>Matplotlib v3.6.3, https://matplotlib.org/</dc:title>
     </cc:Agent>
    </dc:creator>
   </cc:Work>
  </rdf:RDF>
 </metadata>
 <defs>
  <style type="text/css">*{stroke-linejoin: round; stroke-linecap: butt}</style>
 </defs>
 <g id="figure_1">
  <g id="patch_1">
   <path d="M 0 345.42825 
L 622.441625 345.42825 
L 622.441625 -0 
L 0 -0 
z
" style="fill: #ffffff"/>
  </g>
  <g id="axes_1">
   <g id="patch_2">
    <path d="M 46.965625 307.872 
L 404.085625 307.872 
L 404.085625 41.76 
L 46.965625 41.76 
z
" style="fill: #ffffff"/>
   </g>
   <g id="matplotlib.axis_1">
    <g id="xtick_1">
     <g id="line2d_1">
      <defs>
       <path id="mcd178f30b6" d="M 0 0 
L 0 3.5 
" style="stroke: #000000; stroke-width: 0.8"/>
      </defs>
      <g>
       <use xlink:href="#mcd178f30b6" x="95.663807" y="307.872" style="stroke: #000000; stroke-width: 0.8"/>
      </g>
     </g>
     <g id="text_1">
      <!-- 5.96 -->
      <g transform="translate(84.530994 322.470438) scale(0.1 -0.1)">
       <defs>
        <path id="DejaVuSans-35" d="M 691 4666 
L 3169 4666 
L 3169 4134 
L 1269 4134 
L 1269 2991 
Q 1406 3038 1543 3061 
Q 1681 3084 1819 3084 
Q 2600 3084 3056 2656 
Q 3513 2228 3513 1497 
Q 3513 744 3044 326 
Q 2575 -91 1722 -91 
Q 1428 -91 1123 -41 
Q 819 9 494 109 
L 494 744 
Q 775 591 1075 516 
Q 1375 441 1709 441 
Q 2250 441 2565 725 
Q 2881 1009 2881 1497 
Q 2881 1984 2565 2268 
Q 2250 2553 1709 2553 
Q 1456 2553 1204 2497 
Q 953 2441 691 2322 
L 691 4666 
z
" transform="scale(0.015625)"/>
        <path id="DejaVuSans-2e" d="M 684 794 
L 1344 794 
L 1344 0 
L 684 0 
L 684 794 
z
" transform="scale(0.015625)"/>
        <path id="DejaVuSans-39" d="M 703 97 
L 703 672 
Q 941 559 1184 500 
Q 1428 441 1663 441 
Q 2288 441 2617 861 
Q 2947 1281 2994 2138 
Q 2813 1869 2534 1725 
Q 2256 1581 1919 1581 
Q 1219 1581 811 2004 
Q 403 2428 403 3163 
Q 403 3881 828 4315 
Q 1253 4750 1959 4750 
Q 2769 4750 3195 4129 
Q 3622 3509 3622 2328 
Q 3622 1225 3098 567 
Q 2575 -91 1691 -91 
Q 1453 -91 1209 -44 
Q 966 3 703 97 
z
M 1959 2075 
Q 2384 2075 2632 2365 
Q 2881 2656 2881 3163 
Q 2881 3666 2632 3958 
Q 2384 4250 1959 4250 
Q 1534 4250 1286 3958 
Q 1038 3666 1038 3163 
Q 1038 2656 1286 2365 
Q 1534 2075 1959 2075 
z
" transform="scale(0.015625)"/>
        <path id="DejaVuSans-36" d="M 2113 2584 
Q 1688 2584 1439 2293 
Q 1191 2003 1191 1497 
Q 1191 994 1439 701 
Q 1688 409 2113 409 
Q 2538 409 2786 701 
Q 3034 994 3034 1497 
Q 3034 2003 2786 2293 
Q 2538 2584 2113 2584 
z
M 3366 4563 
L 3366 3988 
Q 3128 4100 2886 4159 
Q 2644 4219 2406 4219 
Q 1781 4219 1451 3797 
Q 1122 3375 1075 2522 
Q 1259 2794 1537 2939 
Q 1816 3084 2150 3084 
Q 2853 3084 3261 2657 
Q 3669 2231 3669 1497 
Q 3669 778 3244 343 
Q 2819 -91 2113 -91 
Q 1303 -91 875 529 
Q 447 1150 447 2328 
Q 447 3434 972 4092 
Q 1497 4750 2381 4750 
Q 2619 4750 2861 4703 
Q 3103 4656 3366 4563 
z
" transform="scale(0.015625)"/>
       </defs>
       <use xlink:href="#DejaVuSans-35"/>
       <use xlink:href="#DejaVuSans-2e" x="63.623047"/>
       <use xlink:href="#DejaVuSans-39" x="95.410156"/>
       <use xlink:href="#DejaVuSans-36" x="159.033203"/>
      </g>
     </g>
    </g>
    <g id="xtick_2">
     <g id="line2d_2">
      <g>
       <use xlink:href="#mcd178f30b6" x="160.594716" y="307.872" style="stroke: #000000; stroke-width: 0.8"/>
      </g>
     </g>
     <g id="text_2">
      <!-- 5.98 -->
      <g transform="translate(149.461903 322.470438) scale(0.1 -0.1)">
       <defs>
        <path id="DejaVuSans-38" d="M 2034 2216 
Q 1584 2216 1326 1975 
Q 1069 1734 1069 1313 
Q 1069 891 1326 650 
Q 1584 409 2034 409 
Q 2484 409 2743 651 
Q 3003 894 3003 1313 
Q 3003 1734 2745 1975 
Q 2488 2216 2034 2216 
z
M 1403 2484 
Q 997 2584 770 2862 
Q 544 3141 544 3541 
Q 544 4100 942 4425 
Q 1341 4750 2034 4750 
Q 2731 4750 3128 4425 
Q 3525 4100 3525 3541 
Q 3525 3141 3298 2862 
Q 3072 2584 2669 2484 
Q 3125 2378 3379 2068 
Q 3634 1759 3634 1313 
Q 3634 634 3220 271 
Q 2806 -91 2034 -91 
Q 1263 -91 848 271 
Q 434 634 434 1313 
Q 434 1759 690 2068 
Q 947 2378 1403 2484 
z
M 1172 3481 
Q 1172 3119 1398 2916 
Q 1625 2713 2034 2713 
Q 2441 2713 2670 2916 
Q 2900 3119 2900 3481 
Q 2900 3844 2670 4047 
Q 2441 4250 2034 4250 
Q 1625 4250 1398 4047 
Q 1172 3844 1172 3481 
z
" transform="scale(0.015625)"/>
       </defs>
       <use xlink:href="#DejaVuSans-35"/>
       <use xlink:href="#DejaVuSans-2e" x="63.623047"/>
       <use xlink:href="#DejaVuSans-39" x="95.410156"/>
       <use xlink:href="#DejaVuSans-38" x="159.033203"/>
      </g>
     </g>
    </g>
    <g id="xtick_3">
     <g id="line2d_3">
      <g>
       <use xlink:href="#mcd178f30b6" x="225.525625" y="307.872" style="stroke: #000000; stroke-width: 0.8"/>
      </g>
     </g>
     <g id="text_3">
      <!-- 6 -->
      <g transform="translate(222.344375 322.470438) scale(0.1 -0.1)">
       <use xlink:href="#DejaVuSans-36"/>
      </g>
     </g>
    </g>
    <g id="xtick_4">
     <g id="line2d_4">
      <g>
       <use xlink:href="#mcd178f30b6" x="290.456534" y="307.872" style="stroke: #000000; stroke-width: 0.8"/>
      </g>
     </g>
     <g id="text_4">
      <!-- 6.02 -->
      <g transform="translate(279.323722 322.470438) scale(0.1 -0.1)">
       <defs>
        <path id="DejaVuSans-30" d="M 2034 4250 
Q 1547 4250 1301 3770 
Q 1056 3291 1056 2328 
Q 1056 1369 1301 889 
Q 1547 409 2034 409 
Q 2525 409 2770 889 
Q 3016 1369 3016 2328 
Q 3016 3291 2770 3770 
Q 2525 4250 2034 4250 
z
M 2034 4750 
Q 2819 4750 3233 4129 
Q 3647 3509 3647 2328 
Q 3647 1150 3233 529 
Q 2819 -91 2034 -91 
Q 1250 -91 836 529 
Q 422 1150 422 2328 
Q 422 3509 836 4129 
Q 1250 4750 2034 4750 
z
" transform="scale(0.015625)"/>
        <path id="DejaVuSans-32" d="M 1228 531 
L 3431 531 
L 3431 0 
L 469 0 
L 469 531 
Q 828 903 1448 1529 
Q 2069 2156 2228 2338 
Q 2531 2678 2651 2914 
Q 2772 3150 2772 3378 
Q 2772 3750 2511 3984 
Q 2250 4219 1831 4219 
Q 1534 4219 1204 4116 
Q 875 4013 500 3803 
L 500 4441 
Q 881 4594 1212 4672 
Q 1544 4750 1819 4750 
Q 2544 4750 2975 4387 
Q 3406 4025 3406 3419 
Q 3406 3131 3298 2873 
Q 3191 2616 2906 2266 
Q 2828 2175 2409 1742 
Q 1991 1309 1228 531 
z
" transform="scale(0.015625)"/>
       </defs>
       <use xlink:href="#DejaVuSans-36"/>
       <use xlink:href="#DejaVuSans-2e" x="63.623047"/>
       <use xlink:href="#DejaVuSans-30" x="95.410156"/>
       <use xlink:href="#DejaVuSans-32" x="159.033203"/>
      </g>
     </g>
    </g>
    <g id="xtick_5">
     <g id="line2d_5">
      <g>
       <use xlink:href="#mcd178f30b6" x="355.387443" y="307.872" style="stroke: #000000; stroke-width: 0.8"/>
      </g>
     </g>
     <g id="text_5">
      <!-- 6.04 -->
      <g transform="translate(344.254631 322.470438) scale(0.1 -0.1)">
       <defs>
        <path id="DejaVuSans-34" d="M 2419 4116 
L 825 1625 
L 2419 1625 
L 2419 4116 
z
M 2253 4666 
L 3047 4666 
L 3047 1625 
L 3713 1625 
L 3713 1100 
L 3047 1100 
L 3047 0 
L 2419 0 
L 2419 1100 
L 313 1100 
L 313 1709 
L 2253 4666 
z
" transform="scale(0.015625)"/>
       </defs>
       <use xlink:href="#DejaVuSans-36"/>
       <use xlink:href="#DejaVuSans-2e" x="63.623047"/>
       <use xlink:href="#DejaVuSans-30" x="95.410156"/>
       <use xlink:href="#DejaVuSans-34" x="159.033203"/>
      </g>
     </g>
    </g>
    <g id="text_6">
     <!-- Frequency [GHz] -->
     <g transform="translate(183.946719 336.148562) scale(0.1 -0.1)">
      <defs>
       <path id="DejaVuSans-46" d="M 628 4666 
L 3309 4666 
L 3309 4134 
L 1259 4134 
L 1259 2759 
L 3109 2759 
L 3109 2228 
L 1259 2228 
L 1259 0 
L 628 0 
L 628 4666 
z
" transform="scale(0.015625)"/>
       <path id="DejaVuSans-72" d="M 2631 2963 
Q 2534 3019 2420 3045 
Q 2306 3072 2169 3072 
Q 1681 3072 1420 2755 
Q 1159 2438 1159 1844 
L 1159 0 
L 581 0 
L 581 3500 
L 1159 3500 
L 1159 2956 
Q 1341 3275 1631 3429 
Q 1922 3584 2338 3584 
Q 2397 3584 2469 3576 
Q 2541 3569 2628 3553 
L 2631 2963 
z
" transform="scale(0.015625)"/>
       <path id="DejaVuSans-65" d="M 3597 1894 
L 3597 1613 
L 953 1613 
Q 991 1019 1311 708 
Q 1631 397 2203 397 
Q 2534 397 2845 478 
Q 3156 559 3463 722 
L 3463 178 
Q 3153 47 2828 -22 
Q 2503 -91 2169 -91 
Q 1331 -91 842 396 
Q 353 884 353 1716 
Q 353 2575 817 3079 
Q 1281 3584 2069 3584 
Q 2775 3584 3186 3129 
Q 3597 2675 3597 1894 
z
M 3022 2063 
Q 3016 2534 2758 2815 
Q 2500 3097 2075 3097 
Q 1594 3097 1305 2825 
Q 1016 2553 972 2059 
L 3022 2063 
z
" transform="scale(0.015625)"/>
       <path id="DejaVuSans-71" d="M 947 1747 
Q 947 1113 1208 752 
Q 1469 391 1925 391 
Q 2381 391 2643 752 
Q 2906 1113 2906 1747 
Q 2906 2381 2643 2742 
Q 2381 3103 1925 3103 
Q 1469 3103 1208 2742 
Q 947 2381 947 1747 
z
M 2906 525 
Q 2725 213 2448 61 
Q 2172 -91 1784 -91 
Q 1150 -91 751 415 
Q 353 922 353 1747 
Q 353 2572 751 3078 
Q 1150 3584 1784 3584 
Q 2172 3584 2448 3432 
Q 2725 3281 2906 2969 
L 2906 3500 
L 3481 3500 
L 3481 -1331 
L 2906 -1331 
L 2906 525 
z
" transform="scale(0.015625)"/>
       <path id="DejaVuSans-75" d="M 544 1381 
L 544 3500 
L 1119 3500 
L 1119 1403 
Q 1119 906 1312 657 
Q 1506 409 1894 409 
Q 2359 409 2629 706 
Q 2900 1003 2900 1516 
L 2900 3500 
L 3475 3500 
L 3475 0 
L 2900 0 
L 2900 538 
Q 2691 219 2414 64 
Q 2138 -91 1772 -91 
Q 1169 -91 856 284 
Q 544 659 544 1381 
z
M 1991 3584 
L 1991 3584 
z
" transform="scale(0.015625)"/>
       <path id="DejaVuSans-6e" d="M 3513 2113 
L 3513 0 
L 2938 0 
L 2938 2094 
Q 2938 2591 2744 2837 
Q 2550 3084 2163 3084 
Q 1697 3084 1428 2787 
Q 1159 2491 1159 1978 
L 1159 0 
L 581 0 
L 581 3500 
L 1159 3500 
L 1159 2956 
Q 1366 3272 1645 3428 
Q 1925 3584 2291 3584 
Q 2894 3584 3203 3211 
Q 3513 2838 3513 2113 
z
" transform="scale(0.015625)"/>
       <path id="DejaVuSans-63" d="M 3122 3366 
L 3122 2828 
Q 2878 2963 2633 3030 
Q 2388 3097 2138 3097 
Q 1578 3097 1268 2742 
Q 959 2388 959 1747 
Q 959 1106 1268 751 
Q 1578 397 2138 397 
Q 2388 397 2633 464 
Q 2878 531 3122 666 
L 3122 134 
Q 2881 22 2623 -34 
Q 2366 -91 2075 -91 
Q 1284 -91 818 406 
Q 353 903 353 1747 
Q 353 2603 823 3093 
Q 1294 3584 2113 3584 
Q 2378 3584 2631 3529 
Q 2884 3475 3122 3366 
z
" transform="scale(0.015625)"/>
       <path id="DejaVuSans-79" d="M 2059 -325 
Q 1816 -950 1584 -1140 
Q 1353 -1331 966 -1331 
L 506 -1331 
L 506 -850 
L 844 -850 
Q 1081 -850 1212 -737 
Q 1344 -625 1503 -206 
L 1606 56 
L 191 3500 
L 800 3500 
L 1894 763 
L 2988 3500 
L 3597 3500 
L 2059 -325 
z
" transform="scale(0.015625)"/>
       <path id="DejaVuSans-20" transform="scale(0.015625)"/>
       <path id="DejaVuSans-5b" d="M 550 4863 
L 1875 4863 
L 1875 4416 
L 1125 4416 
L 1125 -397 
L 1875 -397 
L 1875 -844 
L 550 -844 
L 550 4863 
z
" transform="scale(0.015625)"/>
       <path id="DejaVuSans-47" d="M 3809 666 
L 3809 1919 
L 2778 1919 
L 2778 2438 
L 4434 2438 
L 4434 434 
Q 4069 175 3628 42 
Q 3188 -91 2688 -91 
Q 1594 -91 976 548 
Q 359 1188 359 2328 
Q 359 3472 976 4111 
Q 1594 4750 2688 4750 
Q 3144 4750 3555 4637 
Q 3966 4525 4313 4306 
L 4313 3634 
Q 3963 3931 3569 4081 
Q 3175 4231 2741 4231 
Q 1884 4231 1454 3753 
Q 1025 3275 1025 2328 
Q 1025 1384 1454 906 
Q 1884 428 2741 428 
Q 3075 428 3337 486 
Q 3600 544 3809 666 
z
" transform="scale(0.015625)"/>
       <path id="DejaVuSans-48" d="M 628 4666 
L 1259 4666 
L 1259 2753 
L 3553 2753 
L 3553 4666 
L 4184 4666 
L 4184 0 
L 3553 0 
L 3553 2222 
L 1259 2222 
L 1259 0 
L 628 0 
L 628 4666 
z
" transform="scale(0.015625)"/>
       <path id="DejaVuSans-7a" d="M 353 3500 
L 3084 3500 
L 3084 2975 
L 922 459 
L 3084 459 
L 3084 0 
L 275 0 
L 275 525 
L 2438 3041 
L 353 3041 
L 353 3500 
z
" transform="scale(0.015625)"/>
       <path id="DejaVuSans-5d" d="M 1947 4863 
L 1947 -844 
L 622 -844 
L 622 -397 
L 1369 -397 
L 1369 4416 
L 622 4416 
L 622 4863 
L 1947 4863 
z
" transform="scale(0.015625)"/>
      </defs>
      <use xlink:href="#DejaVuSans-46"/>
      <use xlink:href="#DejaVuSans-72" x="50.269531"/>
      <use xlink:href="#DejaVuSans-65" x="89.132812"/>
      <use xlink:href="#DejaVuSans-71" x="150.65625"/>
      <use xlink:href="#DejaVuSans-75" x="214.132812"/>
      <use xlink:href="#DejaVuSans-65" x="277.511719"/>
      <use xlink:href="#DejaVuSans-6e" x="339.035156"/>
      <use xlink:href="#DejaVuSans-63" x="402.414062"/>
      <use xlink:href="#DejaVuSans-79" x="457.394531"/>
      <use xlink:href="#DejaVuSans-20" x="516.574219"/>
      <use xlink:href="#DejaVuSans-5b" x="548.361328"/>
      <use xlink:href="#DejaVuSans-47" x="587.375"/>
      <use xlink:href="#DejaVuSans-48" x="664.865234"/>
      <use xlink:href="#DejaVuSans-7a" x="740.060547"/>
      <use xlink:href="#DejaVuSans-5d" x="792.550781"/>
     </g>
    </g>
   </g>
   <g id="matplotlib.axis_2">
    <g id="ytick_1">
     <g id="line2d_6">
      <defs>
       <path id="m4ae78438d6" d="M 0 0 
L -3.5 0 
" style="stroke: #000000; stroke-width: 0.8"/>
      </defs>
      <g>
       <use xlink:href="#m4ae78438d6" x="46.965625" y="299.053477" style="stroke: #000000; stroke-width: 0.8"/>
      </g>
     </g>
     <g id="text_7">
      <!-- 355 -->
      <g transform="translate(20.878125 302.852696) scale(0.1 -0.1)">
       <defs>
        <path id="DejaVuSans-33" d="M 2597 2516 
Q 3050 2419 3304 2112 
Q 3559 1806 3559 1356 
Q 3559 666 3084 287 
Q 2609 -91 1734 -91 
Q 1441 -91 1130 -33 
Q 819 25 488 141 
L 488 750 
Q 750 597 1062 519 
Q 1375 441 1716 441 
Q 2309 441 2620 675 
Q 2931 909 2931 1356 
Q 2931 1769 2642 2001 
Q 2353 2234 1838 2234 
L 1294 2234 
L 1294 2753 
L 1863 2753 
Q 2328 2753 2575 2939 
Q 2822 3125 2822 3475 
Q 2822 3834 2567 4026 
Q 2313 4219 1838 4219 
Q 1578 4219 1281 4162 
Q 984 4106 628 3988 
L 628 4550 
Q 988 4650 1302 4700 
Q 1616 4750 1894 4750 
Q 2613 4750 3031 4423 
Q 3450 4097 3450 3541 
Q 3450 3153 3228 2886 
Q 3006 2619 2597 2516 
z
" transform="scale(0.015625)"/>
       </defs>
       <use xlink:href="#DejaVuSans-33"/>
       <use xlink:href="#DejaVuSans-35" x="63.623047"/>
       <use xlink:href="#DejaVuSans-35" x="127.246094"/>
      </g>
     </g>
    </g>
    <g id="ytick_2">
     <g id="line2d_7">
      <g>
       <use xlink:href="#m4ae78438d6" x="46.965625" y="254.691489" style="stroke: #000000; stroke-width: 0.8"/>
      </g>
     </g>
     <g id="text_8">
      <!-- 360 -->
      <g transform="translate(20.878125 258.490708) scale(0.1 -0.1)">
       <use xlink:href="#DejaVuSans-33"/>
       <use xlink:href="#DejaVuSans-36" x="63.623047"/>
       <use xlink:href="#DejaVuSans-30" x="127.246094"/>
      </g>
     </g>
    </g>
    <g id="ytick_3">
     <g id="line2d_8">
      <g>
       <use xlink:href="#m4ae78438d6" x="46.965625" y="210.329501" style="stroke: #000000; stroke-width: 0.8"/>
      </g>
     </g>
     <g id="text_9">
      <!-- 365 -->
      <g transform="translate(20.878125 214.12872) scale(0.1 -0.1)">
       <use xlink:href="#DejaVuSans-33"/>
       <use xlink:href="#DejaVuSans-36" x="63.623047"/>
       <use xlink:href="#DejaVuSans-35" x="127.246094"/>
      </g>
     </g>
    </g>
    <g id="ytick_4">
     <g id="line2d_9">
      <g>
       <use xlink:href="#m4ae78438d6" x="46.965625" y="165.967513" style="stroke: #000000; stroke-width: 0.8"/>
      </g>
     </g>
     <g id="text_10">
      <!-- 370 -->
      <g transform="translate(20.878125 169.766732) scale(0.1 -0.1)">
       <defs>
        <path id="DejaVuSans-37" d="M 525 4666 
L 3525 4666 
L 3525 4397 
L 1831 0 
L 1172 0 
L 2766 4134 
L 525 4134 
L 525 4666 
z
" transform="scale(0.015625)"/>
       </defs>
       <use xlink:href="#DejaVuSans-33"/>
       <use xlink:href="#DejaVuSans-37" x="63.623047"/>
       <use xlink:href="#DejaVuSans-30" x="127.246094"/>
      </g>
     </g>
    </g>
    <g id="ytick_5">
     <g id="line2d_10">
      <g>
       <use xlink:href="#m4ae78438d6" x="46.965625" y="121.605525" style="stroke: #000000; stroke-width: 0.8"/>
      </g>
     </g>
     <g id="text_11">
      <!-- 375 -->
      <g transform="translate(20.878125 125.404744) scale(0.1 -0.1)">
       <use xlink:href="#DejaVuSans-33"/>
       <use xlink:href="#DejaVuSans-37" x="63.623047"/>
       <use xlink:href="#DejaVuSans-35" x="127.246094"/>
      </g>
     </g>
    </g>
    <g id="ytick_6">
     <g id="line2d_11">
      <g>
       <use xlink:href="#m4ae78438d6" x="46.965625" y="77.243537" style="stroke: #000000; stroke-width: 0.8"/>
      </g>
     </g>
     <g id="text_12">
      <!-- 380 -->
      <g transform="translate(20.878125 81.042756) scale(0.1 -0.1)">
       <use xlink:href="#DejaVuSans-33"/>
       <use xlink:href="#DejaVuSans-38" x="63.623047"/>
       <use xlink:href="#DejaVuSans-30" x="127.246094"/>
      </g>
     </g>
    </g>
    <g id="text_13">
     <!-- Output voltage [μV] -->
     <g transform="translate(14.798438 224.548031) rotate(-90) scale(0.1 -0.1)">
      <defs>
       <path id="DejaVuSans-4f" d="M 2522 4238 
Q 1834 4238 1429 3725 
Q 1025 3213 1025 2328 
Q 1025 1447 1429 934 
Q 1834 422 2522 422 
Q 3209 422 3611 934 
Q 4013 1447 4013 2328 
Q 4013 3213 3611 3725 
Q 3209 4238 2522 4238 
z
M 2522 4750 
Q 3503 4750 4090 4092 
Q 4678 3434 4678 2328 
Q 4678 1225 4090 567 
Q 3503 -91 2522 -91 
Q 1538 -91 948 565 
Q 359 1222 359 2328 
Q 359 3434 948 4092 
Q 1538 4750 2522 4750 
z
" transform="scale(0.015625)"/>
       <path id="DejaVuSans-74" d="M 1172 4494 
L 1172 3500 
L 2356 3500 
L 2356 3053 
L 1172 3053 
L 1172 1153 
Q 1172 725 1289 603 
Q 1406 481 1766 481 
L 2356 481 
L 2356 0 
L 1766 0 
Q 1100 0 847 248 
Q 594 497 594 1153 
L 594 3053 
L 172 3053 
L 172 3500 
L 594 3500 
L 594 4494 
L 1172 4494 
z
" transform="scale(0.015625)"/>
       <path id="DejaVuSans-70" d="M 1159 525 
L 1159 -1331 
L 581 -1331 
L 581 3500 
L 1159 3500 
L 1159 2969 
Q 1341 3281 1617 3432 
Q 1894 3584 2278 3584 
Q 2916 3584 3314 3078 
Q 3713 2572 3713 1747 
Q 3713 922 3314 415 
Q 2916 -91 2278 -91 
Q 1894 -91 1617 61 
Q 1341 213 1159 525 
z
M 3116 1747 
Q 3116 2381 2855 2742 
Q 2594 3103 2138 3103 
Q 1681 3103 1420 2742 
Q 1159 2381 1159 1747 
Q 1159 1113 1420 752 
Q 1681 391 2138 391 
Q 2594 391 2855 752 
Q 3116 1113 3116 1747 
z
" transform="scale(0.015625)"/>
       <path id="DejaVuSans-76" d="M 191 3500 
L 800 3500 
L 1894 563 
L 2988 3500 
L 3597 3500 
L 2284 0 
L 1503 0 
L 191 3500 
z
" transform="scale(0.015625)"/>
       <path id="DejaVuSans-6f" d="M 1959 3097 
Q 1497 3097 1228 2736 
Q 959 2375 959 1747 
Q 959 1119 1226 758 
Q 1494 397 1959 397 
Q 2419 397 2687 759 
Q 2956 1122 2956 1747 
Q 2956 2369 2687 2733 
Q 2419 3097 1959 3097 
z
M 1959 3584 
Q 2709 3584 3137 3096 
Q 3566 2609 3566 1747 
Q 3566 888 3137 398 
Q 2709 -91 1959 -91 
Q 1206 -91 779 398 
Q 353 888 353 1747 
Q 353 2609 779 3096 
Q 1206 3584 1959 3584 
z
" transform="scale(0.015625)"/>
       <path id="DejaVuSans-6c" d="M 603 4863 
L 1178 4863 
L 1178 0 
L 603 0 
L 603 4863 
z
" transform="scale(0.015625)"/>
       <path id="DejaVuSans-61" d="M 2194 1759 
Q 1497 1759 1228 1600 
Q 959 1441 959 1056 
Q 959 750 1161 570 
Q 1363 391 1709 391 
Q 2188 391 2477 730 
Q 2766 1069 2766 1631 
L 2766 1759 
L 2194 1759 
z
M 3341 1997 
L 3341 0 
L 2766 0 
L 2766 531 
Q 2569 213 2275 61 
Q 1981 -91 1556 -91 
Q 1019 -91 701 211 
Q 384 513 384 1019 
Q 384 1609 779 1909 
Q 1175 2209 1959 2209 
L 2766 2209 
L 2766 2266 
Q 2766 2663 2505 2880 
Q 2244 3097 1772 3097 
Q 1472 3097 1187 3025 
Q 903 2953 641 2809 
L 641 3341 
Q 956 3463 1253 3523 
Q 1550 3584 1831 3584 
Q 2591 3584 2966 3190 
Q 3341 2797 3341 1997 
z
" transform="scale(0.015625)"/>
       <path id="DejaVuSans-67" d="M 2906 1791 
Q 2906 2416 2648 2759 
Q 2391 3103 1925 3103 
Q 1463 3103 1205 2759 
Q 947 2416 947 1791 
Q 947 1169 1205 825 
Q 1463 481 1925 481 
Q 2391 481 2648 825 
Q 2906 1169 2906 1791 
z
M 3481 434 
Q 3481 -459 3084 -895 
Q 2688 -1331 1869 -1331 
Q 1566 -1331 1297 -1286 
Q 1028 -1241 775 -1147 
L 775 -588 
Q 1028 -725 1275 -790 
Q 1522 -856 1778 -856 
Q 2344 -856 2625 -561 
Q 2906 -266 2906 331 
L 2906 616 
Q 2728 306 2450 153 
Q 2172 0 1784 0 
Q 1141 0 747 490 
Q 353 981 353 1791 
Q 353 2603 747 3093 
Q 1141 3584 1784 3584 
Q 2172 3584 2450 3431 
Q 2728 3278 2906 2969 
L 2906 3500 
L 3481 3500 
L 3481 434 
z
" transform="scale(0.015625)"/>
       <path id="DejaVuSans-3bc" d="M 544 -1331 
L 544 3500 
L 1119 3500 
L 1119 1325 
Q 1119 872 1334 640 
Q 1550 409 1972 409 
Q 2434 409 2667 671 
Q 2900 934 2900 1459 
L 2900 3500 
L 3475 3500 
L 3475 806 
Q 3475 619 3529 530 
Q 3584 441 3700 441 
Q 3728 441 3778 458 
Q 3828 475 3916 513 
L 3916 50 
Q 3788 -22 3673 -56 
Q 3559 -91 3450 -91 
Q 3234 -91 3106 31 
Q 2978 153 2931 403 
Q 2775 156 2548 32 
Q 2322 -91 2016 -91 
Q 1697 -91 1473 31 
Q 1250 153 1119 397 
L 1119 -1331 
L 544 -1331 
z
" transform="scale(0.015625)"/>
       <path id="DejaVuSans-56" d="M 1831 0 
L 50 4666 
L 709 4666 
L 2188 738 
L 3669 4666 
L 4325 4666 
L 2547 0 
L 1831 0 
z
" transform="scale(0.015625)"/>
      </defs>
      <use xlink:href="#DejaVuSans-4f"/>
      <use xlink:href="#DejaVuSans-75" x="78.710938"/>
      <use xlink:href="#DejaVuSans-74" x="142.089844"/>
      <use xlink:href="#DejaVuSans-70" x="181.298828"/>
      <use xlink:href="#DejaVuSans-75" x="244.775391"/>
      <use xlink:href="#DejaVuSans-74" x="308.154297"/>
      <use xlink:href="#DejaVuSans-20" x="347.363281"/>
      <use xlink:href="#DejaVuSans-76" x="379.150391"/>
      <use xlink:href="#DejaVuSans-6f" x="438.330078"/>
      <use xlink:href="#DejaVuSans-6c" x="499.511719"/>
      <use xlink:href="#DejaVuSans-74" x="527.294922"/>
      <use xlink:href="#DejaVuSans-61" x="566.503906"/>
      <use xlink:href="#DejaVuSans-67" x="627.783203"/>
      <use xlink:href="#DejaVuSans-65" x="691.259766"/>
      <use xlink:href="#DejaVuSans-20" x="752.783203"/>
      <use xlink:href="#DejaVuSans-5b" x="784.570312"/>
      <use xlink:href="#DejaVuSans-3bc" x="823.583984"/>
      <use xlink:href="#DejaVuSans-56" x="887.207031"/>
      <use xlink:href="#DejaVuSans-5d" x="955.615234"/>
     </g>
    </g>
   </g>
   <g id="line2d_12">
    <defs>
     <path id="m4b88ccd573" d="M 0 1.5 
C 0.397805 1.5 0.77937 1.341951 1.06066 1.06066 
C 1.341951 0.77937 1.5 0.397805 1.5 0 
C 1.5 -0.397805 1.341951 -0.77937 1.06066 -1.06066 
C 0.77937 -1.341951 0.397805 -1.5 0 -1.5 
C -0.397805 -1.5 -0.77937 -1.341951 -1.06066 -1.06066 
C -1.341951 -0.77937 -1.5 -0.397805 -1.5 0 
C -1.5 0.397805 -1.341951 0.77937 -1.06066 1.06066 
C -0.77937 1.341951 -0.397805 1.5 0 1.5 
z
" style="stroke: #1f77b4"/>
    </defs>
    <g clip-path="url(#p718a5aee02)">
     <use xlink:href="#m4b88ccd573" x="63.198352" y="99.053138" style="fill: #1f77b4; stroke: #1f77b4"/>
     <use xlink:href="#m4b88ccd573" x="80.285434" y="194.141825" style="fill: #1f77b4; stroke: #1f77b4"/>
     <use xlink:href="#m4b88ccd573" x="97.372515" y="257.228587" style="fill: #1f77b4; stroke: #1f77b4"/>
     <use xlink:href="#m4b88ccd573" x="114.459596" y="272.047338" style="fill: #1f77b4; stroke: #1f77b4"/>
     <use xlink:href="#m4b88ccd573" x="131.546678" y="273.731903" style="fill: #1f77b4; stroke: #1f77b4"/>
     <use xlink:href="#m4b88ccd573" x="148.633759" y="257.013757" style="fill: #1f77b4; stroke: #1f77b4"/>
     <use xlink:href="#m4b88ccd573" x="165.72084" y="258.457173" style="fill: #1f77b4; stroke: #1f77b4"/>
     <use xlink:href="#m4b88ccd573" x="182.807922" y="195.016922" style="fill: #1f77b4; stroke: #1f77b4"/>
     <use xlink:href="#m4b88ccd573" x="199.895003" y="102.055945" style="fill: #1f77b4; stroke: #1f77b4"/>
     <use xlink:href="#m4b88ccd573" x="216.982084" y="86.009005" style="fill: #1f77b4; stroke: #1f77b4"/>
     <use xlink:href="#m4b88ccd573" x="234.069166" y="100.917246" style="fill: #1f77b4; stroke: #1f77b4"/>
     <use xlink:href="#m4b88ccd573" x="251.156247" y="206.36171" style="fill: #1f77b4; stroke: #1f77b4"/>
     <use xlink:href="#m4b88ccd573" x="268.243328" y="260.704555" style="fill: #1f77b4; stroke: #1f77b4"/>
     <use xlink:href="#m4b88ccd573" x="285.33041" y="265.735802" style="fill: #1f77b4; stroke: #1f77b4"/>
     <use xlink:href="#m4b88ccd573" x="302.417491" y="258.644116" style="fill: #1f77b4; stroke: #1f77b4"/>
     <use xlink:href="#m4b88ccd573" x="319.504572" y="275.831962" style="fill: #1f77b4; stroke: #1f77b4"/>
     <use xlink:href="#m4b88ccd573" x="336.591654" y="243.940569" style="fill: #1f77b4; stroke: #1f77b4"/>
     <use xlink:href="#m4b88ccd573" x="353.678735" y="188.993289" style="fill: #1f77b4; stroke: #1f77b4"/>
     <use xlink:href="#m4b88ccd573" x="370.765816" y="111.539017" style="fill: #1f77b4; stroke: #1f77b4"/>
     <use xlink:href="#m4b88ccd573" x="387.852898" y="83.261171" style="fill: #1f77b4; stroke: #1f77b4"/>
     <use xlink:href="#m4b88ccd573" x="63.198352" y="83.154785" style="fill: #1f77b4; stroke: #1f77b4"/>
     <use xlink:href="#m4b88ccd573" x="80.285434" y="195.553005" style="fill: #1f77b4; stroke: #1f77b4"/>
     <use xlink:href="#m4b88ccd573" x="97.372515" y="254.606046" style="fill: #1f77b4; stroke: #1f77b4"/>
     <use xlink:href="#m4b88ccd573" x="114.459596" y="253.816498" style="fill: #1f77b4; stroke: #1f77b4"/>
     <use xlink:href="#m4b88ccd573" x="131.546678" y="256.292949" style="fill: #1f77b4; stroke: #1f77b4"/>
     <use xlink:href="#m4b88ccd573" x="148.633759" y="259.334636" style="fill: #1f77b4; stroke: #1f77b4"/>
     <use xlink:href="#m4b88ccd573" x="165.72084" y="257.678534" style="fill: #1f77b4; stroke: #1f77b4"/>
     <use xlink:href="#m4b88ccd573" x="182.807922" y="180.879669" style="fill: #1f77b4; stroke: #1f77b4"/>
     <use xlink:href="#m4b88ccd573" x="199.895003" y="109.074065" style="fill: #1f77b4; stroke: #1f77b4"/>
     <use xlink:href="#m4b88ccd573" x="216.982084" y="67.343308" style="fill: #1f77b4; stroke: #1f77b4"/>
     <use xlink:href="#m4b88ccd573" x="234.069166" y="114.486624" style="fill: #1f77b4; stroke: #1f77b4"/>
     <use xlink:href="#m4b88ccd573" x="251.156247" y="202.96099" style="fill: #1f77b4; stroke: #1f77b4"/>
     <use xlink:href="#m4b88ccd573" x="268.243328" y="255.830249" style="fill: #1f77b4; stroke: #1f77b4"/>
     <use xlink:href="#m4b88ccd573" x="285.33041" y="265.654025" style="fill: #1f77b4; stroke: #1f77b4"/>
     <use xlink:href="#m4b88ccd573" x="302.417491" y="257.113437" style="fill: #1f77b4; stroke: #1f77b4"/>
     <use xlink:href="#m4b88ccd573" x="319.504572" y="275.225919" style="fill: #1f77b4; stroke: #1f77b4"/>
     <use xlink:href="#m4b88ccd573" x="336.591654" y="235.241067" style="fill: #1f77b4; stroke: #1f77b4"/>
     <use xlink:href="#m4b88ccd573" x="353.678735" y="164.602885" style="fill: #1f77b4; stroke: #1f77b4"/>
     <use xlink:href="#m4b88ccd573" x="370.765816" y="91.56888" style="fill: #1f77b4; stroke: #1f77b4"/>
     <use xlink:href="#m4b88ccd573" x="387.852898" y="83.198783" style="fill: #1f77b4; stroke: #1f77b4"/>
     <use xlink:href="#m4b88ccd573" x="63.198352" y="97.879933" style="fill: #1f77b4; stroke: #1f77b4"/>
     <use xlink:href="#m4b88ccd573" x="80.285434" y="199.996374" style="fill: #1f77b4; stroke: #1f77b4"/>
     <use xlink:href="#m4b88ccd573" x="97.372515" y="240.096237" style="fill: #1f77b4; stroke: #1f77b4"/>
     <use xlink:href="#m4b88ccd573" x="114.459596" y="263.601189" style="fill: #1f77b4; stroke: #1f77b4"/>
     <use xlink:href="#m4b88ccd573" x="131.546678" y="264.523377" style="fill: #1f77b4; stroke: #1f77b4"/>
     <use xlink:href="#m4b88ccd573" x="148.633759" y="262.807363" style="fill: #1f77b4; stroke: #1f77b4"/>
     <use xlink:href="#m4b88ccd573" x="165.72084" y="276.856189" style="fill: #1f77b4; stroke: #1f77b4"/>
     <use xlink:href="#m4b88ccd573" x="182.807922" y="173.135053" style="fill: #1f77b4; stroke: #1f77b4"/>
     <use xlink:href="#m4b88ccd573" x="199.895003" y="114.99414" style="fill: #1f77b4; stroke: #1f77b4"/>
     <use xlink:href="#m4b88ccd573" x="216.982084" y="78.283053" style="fill: #1f77b4; stroke: #1f77b4"/>
     <use xlink:href="#m4b88ccd573" x="234.069166" y="115.342019" style="fill: #1f77b4; stroke: #1f77b4"/>
     <use xlink:href="#m4b88ccd573" x="251.156247" y="189.679733" style="fill: #1f77b4; stroke: #1f77b4"/>
     <use xlink:href="#m4b88ccd573" x="268.243328" y="245.826673" style="fill: #1f77b4; stroke: #1f77b4"/>
     <use xlink:href="#m4b88ccd573" x="285.33041" y="248.635456" style="fill: #1f77b4; stroke: #1f77b4"/>
     <use xlink:href="#m4b88ccd573" x="302.417491" y="266.947482" style="fill: #1f77b4; stroke: #1f77b4"/>
     <use xlink:href="#m4b88ccd573" x="319.504572" y="271.453496" style="fill: #1f77b4; stroke: #1f77b4"/>
     <use xlink:href="#m4b88ccd573" x="336.591654" y="245.765585" style="fill: #1f77b4; stroke: #1f77b4"/>
     <use xlink:href="#m4b88ccd573" x="353.678735" y="178.154475" style="fill: #1f77b4; stroke: #1f77b4"/>
     <use xlink:href="#m4b88ccd573" x="370.765816" y="110.31472" style="fill: #1f77b4; stroke: #1f77b4"/>
     <use xlink:href="#m4b88ccd573" x="387.852898" y="80.29943" style="fill: #1f77b4; stroke: #1f77b4"/>
     <use xlink:href="#m4b88ccd573" x="63.198352" y="90.605351" style="fill: #1f77b4; stroke: #1f77b4"/>
     <use xlink:href="#m4b88ccd573" x="80.285434" y="187.970096" style="fill: #1f77b4; stroke: #1f77b4"/>
     <use xlink:href="#m4b88ccd573" x="97.372515" y="245.883532" style="fill: #1f77b4; stroke: #1f77b4"/>
     <use xlink:href="#m4b88ccd573" x="114.459596" y="272.037135" style="fill: #1f77b4; stroke: #1f77b4"/>
     <use xlink:href="#m4b88ccd573" x="131.546678" y="264.238248" style="fill: #1f77b4; stroke: #1f77b4"/>
     <use xlink:href="#m4b88ccd573" x="148.633759" y="264.925605" style="fill: #1f77b4; stroke: #1f77b4"/>
     <use xlink:href="#m4b88ccd573" x="165.72084" y="267.065177" style="fill: #1f77b4; stroke: #1f77b4"/>
     <use xlink:href="#m4b88ccd573" x="182.807922" y="186.09205" style="fill: #1f77b4; stroke: #1f77b4"/>
     <use xlink:href="#m4b88ccd573" x="199.895003" y="120.368212" style="fill: #1f77b4; stroke: #1f77b4"/>
     <use xlink:href="#m4b88ccd573" x="216.982084" y="81.639261" style="fill: #1f77b4; stroke: #1f77b4"/>
     <use xlink:href="#m4b88ccd573" x="234.069166" y="103.738556" style="fill: #1f77b4; stroke: #1f77b4"/>
     <use xlink:href="#m4b88ccd573" x="251.156247" y="206.982732" style="fill: #1f77b4; stroke: #1f77b4"/>
     <use xlink:href="#m4b88ccd573" x="268.243328" y="261.970684" style="fill: #1f77b4; stroke: #1f77b4"/>
     <use xlink:href="#m4b88ccd573" x="285.33041" y="263.757268" style="fill: #1f77b4; stroke: #1f77b4"/>
     <use xlink:href="#m4b88ccd573" x="302.417491" y="245.422033" style="fill: #1f77b4; stroke: #1f77b4"/>
     <use xlink:href="#m4b88ccd573" x="319.504572" y="281.256339" style="fill: #1f77b4; stroke: #1f77b4"/>
     <use xlink:href="#m4b88ccd573" x="336.591654" y="251.68886" style="fill: #1f77b4; stroke: #1f77b4"/>
     <use xlink:href="#m4b88ccd573" x="353.678735" y="173.58837" style="fill: #1f77b4; stroke: #1f77b4"/>
     <use xlink:href="#m4b88ccd573" x="370.765816" y="98.652488" style="fill: #1f77b4; stroke: #1f77b4"/>
     <use xlink:href="#m4b88ccd573" x="387.852898" y="78.42606" style="fill: #1f77b4; stroke: #1f77b4"/>
     <use xlink:href="#m4b88ccd573" x="63.198352" y="92.549299" style="fill: #1f77b4; stroke: #1f77b4"/>
     <use xlink:href="#m4b88ccd573" x="80.285434" y="205.355532" style="fill: #1f77b4; stroke: #1f77b4"/>
     <use xlink:href="#m4b88ccd573" x="97.372515" y="251.396219" style="fill: #1f77b4; stroke: #1f77b4"/>
     <use xlink:href="#m4b88ccd573" x="114.459596" y="272.112694" style="fill: #1f77b4; stroke: #1f77b4"/>
     <use xlink:href="#m4b88ccd573" x="131.546678" y="271.297791" style="fill: #1f77b4; stroke: #1f77b4"/>
     <use xlink:href="#m4b88ccd573" x="148.633759" y="263.54555" style="fill: #1f77b4; stroke: #1f77b4"/>
     <use xlink:href="#m4b88ccd573" x="165.72084" y="236.13859" style="fill: #1f77b4; stroke: #1f77b4"/>
     <use xlink:href="#m4b88ccd573" x="182.807922" y="202.882727" style="fill: #1f77b4; stroke: #1f77b4"/>
     <use xlink:href="#m4b88ccd573" x="199.895003" y="98.079358" style="fill: #1f77b4; stroke: #1f77b4"/>
     <use xlink:href="#m4b88ccd573" x="216.982084" y="53.856" style="fill: #1f77b4; stroke: #1f77b4"/>
     <use xlink:href="#m4b88ccd573" x="234.069166" y="115.186373" style="fill: #1f77b4; stroke: #1f77b4"/>
     <use xlink:href="#m4b88ccd573" x="251.156247" y="193.778908" style="fill: #1f77b4; stroke: #1f77b4"/>
     <use xlink:href="#m4b88ccd573" x="268.243328" y="253.705119" style="fill: #1f77b4; stroke: #1f77b4"/>
     <use xlink:href="#m4b88ccd573" x="285.33041" y="269.109689" style="fill: #1f77b4; stroke: #1f77b4"/>
     <use xlink:href="#m4b88ccd573" x="302.417491" y="263.423618" style="fill: #1f77b4; stroke: #1f77b4"/>
     <use xlink:href="#m4b88ccd573" x="319.504572" y="268.776246" style="fill: #1f77b4; stroke: #1f77b4"/>
     <use xlink:href="#m4b88ccd573" x="336.591654" y="243.053875" style="fill: #1f77b4; stroke: #1f77b4"/>
     <use xlink:href="#m4b88ccd573" x="353.678735" y="186.41447" style="fill: #1f77b4; stroke: #1f77b4"/>
     <use xlink:href="#m4b88ccd573" x="370.765816" y="103.991267" style="fill: #1f77b4; stroke: #1f77b4"/>
     <use xlink:href="#m4b88ccd573" x="387.852898" y="68.320901" style="fill: #1f77b4; stroke: #1f77b4"/>
     <use xlink:href="#m4b88ccd573" x="63.198352" y="88.664153" style="fill: #1f77b4; stroke: #1f77b4"/>
     <use xlink:href="#m4b88ccd573" x="80.285434" y="191.210588" style="fill: #1f77b4; stroke: #1f77b4"/>
     <use xlink:href="#m4b88ccd573" x="97.372515" y="260.202131" style="fill: #1f77b4; stroke: #1f77b4"/>
     <use xlink:href="#m4b88ccd573" x="114.459596" y="285.794845" style="fill: #1f77b4; stroke: #1f77b4"/>
     <use xlink:href="#m4b88ccd573" x="131.546678" y="260.830262" style="fill: #1f77b4; stroke: #1f77b4"/>
     <use xlink:href="#m4b88ccd573" x="148.633759" y="265.785657" style="fill: #1f77b4; stroke: #1f77b4"/>
     <use xlink:href="#m4b88ccd573" x="165.72084" y="267.280018" style="fill: #1f77b4; stroke: #1f77b4"/>
     <use xlink:href="#m4b88ccd573" x="182.807922" y="194.882859" style="fill: #1f77b4; stroke: #1f77b4"/>
     <use xlink:href="#m4b88ccd573" x="199.895003" y="107.117625" style="fill: #1f77b4; stroke: #1f77b4"/>
     <use xlink:href="#m4b88ccd573" x="216.982084" y="75.484501" style="fill: #1f77b4; stroke: #1f77b4"/>
     <use xlink:href="#m4b88ccd573" x="234.069166" y="103.292292" style="fill: #1f77b4; stroke: #1f77b4"/>
     <use xlink:href="#m4b88ccd573" x="251.156247" y="202.808253" style="fill: #1f77b4; stroke: #1f77b4"/>
     <use xlink:href="#m4b88ccd573" x="268.243328" y="248.335902" style="fill: #1f77b4; stroke: #1f77b4"/>
     <use xlink:href="#m4b88ccd573" x="285.33041" y="269.608954" style="fill: #1f77b4; stroke: #1f77b4"/>
     <use xlink:href="#m4b88ccd573" x="302.417491" y="252.141776" style="fill: #1f77b4; stroke: #1f77b4"/>
     <use xlink:href="#m4b88ccd573" x="319.504572" y="274.107219" style="fill: #1f77b4; stroke: #1f77b4"/>
     <use xlink:href="#m4b88ccd573" x="336.591654" y="242.280401" style="fill: #1f77b4; stroke: #1f77b4"/>
     <use xlink:href="#m4b88ccd573" x="353.678735" y="170.950467" style="fill: #1f77b4; stroke: #1f77b4"/>
     <use xlink:href="#m4b88ccd573" x="370.765816" y="109.096995" style="fill: #1f77b4; stroke: #1f77b4"/>
     <use xlink:href="#m4b88ccd573" x="387.852898" y="69.999353" style="fill: #1f77b4; stroke: #1f77b4"/>
     <use xlink:href="#m4b88ccd573" x="63.198352" y="90.703226" style="fill: #1f77b4; stroke: #1f77b4"/>
     <use xlink:href="#m4b88ccd573" x="80.285434" y="192.790458" style="fill: #1f77b4; stroke: #1f77b4"/>
     <use xlink:href="#m4b88ccd573" x="97.372515" y="246.869597" style="fill: #1f77b4; stroke: #1f77b4"/>
     <use xlink:href="#m4b88ccd573" x="114.459596" y="271.431777" style="fill: #1f77b4; stroke: #1f77b4"/>
     <use xlink:href="#m4b88ccd573" x="131.546678" y="262.66924" style="fill: #1f77b4; stroke: #1f77b4"/>
     <use xlink:href="#m4b88ccd573" x="148.633759" y="256.937616" style="fill: #1f77b4; stroke: #1f77b4"/>
     <use xlink:href="#m4b88ccd573" x="165.72084" y="252.09557" style="fill: #1f77b4; stroke: #1f77b4"/>
     <use xlink:href="#m4b88ccd573" x="182.807922" y="195.405694" style="fill: #1f77b4; stroke: #1f77b4"/>
     <use xlink:href="#m4b88ccd573" x="199.895003" y="121.464586" style="fill: #1f77b4; stroke: #1f77b4"/>
     <use xlink:href="#m4b88ccd573" x="216.982084" y="72.56179" style="fill: #1f77b4; stroke: #1f77b4"/>
     <use xlink:href="#m4b88ccd573" x="234.069166" y="105.837139" style="fill: #1f77b4; stroke: #1f77b4"/>
     <use xlink:href="#m4b88ccd573" x="251.156247" y="210.254852" style="fill: #1f77b4; stroke: #1f77b4"/>
     <use xlink:href="#m4b88ccd573" x="268.243328" y="251.167" style="fill: #1f77b4; stroke: #1f77b4"/>
     <use xlink:href="#m4b88ccd573" x="285.33041" y="271.008181" style="fill: #1f77b4; stroke: #1f77b4"/>
     <use xlink:href="#m4b88ccd573" x="302.417491" y="253.336238" style="fill: #1f77b4; stroke: #1f77b4"/>
     <use xlink:href="#m4b88ccd573" x="319.504572" y="285.128193" style="fill: #1f77b4; stroke: #1f77b4"/>
     <use xlink:href="#m4b88ccd573" x="336.591654" y="239.373157" style="fill: #1f77b4; stroke: #1f77b4"/>
     <use xlink:href="#m4b88ccd573" x="353.678735" y="170.152104" style="fill: #1f77b4; stroke: #1f77b4"/>
     <use xlink:href="#m4b88ccd573" x="370.765816" y="84.566181" style="fill: #1f77b4; stroke: #1f77b4"/>
     <use xlink:href="#m4b88ccd573" x="387.852898" y="64.046387" style="fill: #1f77b4; stroke: #1f77b4"/>
     <use xlink:href="#m4b88ccd573" x="63.198352" y="89.276188" style="fill: #1f77b4; stroke: #1f77b4"/>
     <use xlink:href="#m4b88ccd573" x="80.285434" y="184.173662" style="fill: #1f77b4; stroke: #1f77b4"/>
     <use xlink:href="#m4b88ccd573" x="97.372515" y="252.259126" style="fill: #1f77b4; stroke: #1f77b4"/>
     <use xlink:href="#m4b88ccd573" x="114.459596" y="294.080924" style="fill: #1f77b4; stroke: #1f77b4"/>
     <use xlink:href="#m4b88ccd573" x="131.546678" y="280.582053" style="fill: #1f77b4; stroke: #1f77b4"/>
     <use xlink:href="#m4b88ccd573" x="148.633759" y="258.750025" style="fill: #1f77b4; stroke: #1f77b4"/>
     <use xlink:href="#m4b88ccd573" x="165.72084" y="268.378371" style="fill: #1f77b4; stroke: #1f77b4"/>
     <use xlink:href="#m4b88ccd573" x="182.807922" y="179.777096" style="fill: #1f77b4; stroke: #1f77b4"/>
     <use xlink:href="#m4b88ccd573" x="199.895003" y="122.360893" style="fill: #1f77b4; stroke: #1f77b4"/>
     <use xlink:href="#m4b88ccd573" x="216.982084" y="66.43933" style="fill: #1f77b4; stroke: #1f77b4"/>
     <use xlink:href="#m4b88ccd573" x="234.069166" y="96.927135" style="fill: #1f77b4; stroke: #1f77b4"/>
     <use xlink:href="#m4b88ccd573" x="251.156247" y="199.662602" style="fill: #1f77b4; stroke: #1f77b4"/>
     <use xlink:href="#m4b88ccd573" x="268.243328" y="241.350999" style="fill: #1f77b4; stroke: #1f77b4"/>
     <use xlink:href="#m4b88ccd573" x="285.33041" y="274.765116" style="fill: #1f77b4; stroke: #1f77b4"/>
     <use xlink:href="#m4b88ccd573" x="302.417491" y="264.112615" style="fill: #1f77b4; stroke: #1f77b4"/>
     <use xlink:href="#m4b88ccd573" x="319.504572" y="277.047097" style="fill: #1f77b4; stroke: #1f77b4"/>
     <use xlink:href="#m4b88ccd573" x="336.591654" y="240.895017" style="fill: #1f77b4; stroke: #1f77b4"/>
     <use xlink:href="#m4b88ccd573" x="353.678735" y="171.175719" style="fill: #1f77b4; stroke: #1f77b4"/>
     <use xlink:href="#m4b88ccd573" x="370.765816" y="98.03154" style="fill: #1f77b4; stroke: #1f77b4"/>
     <use xlink:href="#m4b88ccd573" x="387.852898" y="67.458212" style="fill: #1f77b4; stroke: #1f77b4"/>
     <use xlink:href="#m4b88ccd573" x="63.198352" y="98.581851" style="fill: #1f77b4; stroke: #1f77b4"/>
     <use xlink:href="#m4b88ccd573" x="80.285434" y="190.76282" style="fill: #1f77b4; stroke: #1f77b4"/>
     <use xlink:href="#m4b88ccd573" x="97.372515" y="231.646067" style="fill: #1f77b4; stroke: #1f77b4"/>
     <use xlink:href="#m4b88ccd573" x="114.459596" y="269.734699" style="fill: #1f77b4; stroke: #1f77b4"/>
     <use xlink:href="#m4b88ccd573" x="131.546678" y="267.280187" style="fill: #1f77b4; stroke: #1f77b4"/>
     <use xlink:href="#m4b88ccd573" x="148.633759" y="266.244764" style="fill: #1f77b4; stroke: #1f77b4"/>
     <use xlink:href="#m4b88ccd573" x="165.72084" y="258.071283" style="fill: #1f77b4; stroke: #1f77b4"/>
     <use xlink:href="#m4b88ccd573" x="182.807922" y="183.508391" style="fill: #1f77b4; stroke: #1f77b4"/>
     <use xlink:href="#m4b88ccd573" x="199.895003" y="119.655317" style="fill: #1f77b4; stroke: #1f77b4"/>
     <use xlink:href="#m4b88ccd573" x="216.982084" y="74.798528" style="fill: #1f77b4; stroke: #1f77b4"/>
     <use xlink:href="#m4b88ccd573" x="234.069166" y="124.684785" style="fill: #1f77b4; stroke: #1f77b4"/>
     <use xlink:href="#m4b88ccd573" x="251.156247" y="201.742252" style="fill: #1f77b4; stroke: #1f77b4"/>
     <use xlink:href="#m4b88ccd573" x="268.243328" y="262.947028" style="fill: #1f77b4; stroke: #1f77b4"/>
     <use xlink:href="#m4b88ccd573" x="285.33041" y="269.494262" style="fill: #1f77b4; stroke: #1f77b4"/>
     <use xlink:href="#m4b88ccd573" x="302.417491" y="282.242187" style="fill: #1f77b4; stroke: #1f77b4"/>
     <use xlink:href="#m4b88ccd573" x="319.504572" y="285.191649" style="fill: #1f77b4; stroke: #1f77b4"/>
     <use xlink:href="#m4b88ccd573" x="336.591654" y="246.937325" style="fill: #1f77b4; stroke: #1f77b4"/>
     <use xlink:href="#m4b88ccd573" x="353.678735" y="180.929636" style="fill: #1f77b4; stroke: #1f77b4"/>
     <use xlink:href="#m4b88ccd573" x="370.765816" y="97.462988" style="fill: #1f77b4; stroke: #1f77b4"/>
     <use xlink:href="#m4b88ccd573" x="387.852898" y="77.103137" style="fill: #1f77b4; stroke: #1f77b4"/>
     <use xlink:href="#m4b88ccd573" x="63.198352" y="92.559538" style="fill: #1f77b4; stroke: #1f77b4"/>
     <use xlink:href="#m4b88ccd573" x="80.285434" y="178.010926" style="fill: #1f77b4; stroke: #1f77b4"/>
     <use xlink:href="#m4b88ccd573" x="97.372515" y="236.367884" style="fill: #1f77b4; stroke: #1f77b4"/>
     <use xlink:href="#m4b88ccd573" x="114.459596" y="282.342043" style="fill: #1f77b4; stroke: #1f77b4"/>
     <use xlink:href="#m4b88ccd573" x="131.546678" y="269.75303" style="fill: #1f77b4; stroke: #1f77b4"/>
     <use xlink:href="#m4b88ccd573" x="148.633759" y="273.71604" style="fill: #1f77b4; stroke: #1f77b4"/>
     <use xlink:href="#m4b88ccd573" x="165.72084" y="263.261872" style="fill: #1f77b4; stroke: #1f77b4"/>
     <use xlink:href="#m4b88ccd573" x="182.807922" y="198.622797" style="fill: #1f77b4; stroke: #1f77b4"/>
     <use xlink:href="#m4b88ccd573" x="199.895003" y="103.650092" style="fill: #1f77b4; stroke: #1f77b4"/>
     <use xlink:href="#m4b88ccd573" x="216.982084" y="78.738321" style="fill: #1f77b4; stroke: #1f77b4"/>
     <use xlink:href="#m4b88ccd573" x="234.069166" y="100.070503" style="fill: #1f77b4; stroke: #1f77b4"/>
     <use xlink:href="#m4b88ccd573" x="251.156247" y="193.015837" style="fill: #1f77b4; stroke: #1f77b4"/>
     <use xlink:href="#m4b88ccd573" x="268.243328" y="257.485547" style="fill: #1f77b4; stroke: #1f77b4"/>
     <use xlink:href="#m4b88ccd573" x="285.33041" y="263.522284" style="fill: #1f77b4; stroke: #1f77b4"/>
     <use xlink:href="#m4b88ccd573" x="302.417491" y="273.140018" style="fill: #1f77b4; stroke: #1f77b4"/>
     <use xlink:href="#m4b88ccd573" x="319.504572" y="295.776" style="fill: #1f77b4; stroke: #1f77b4"/>
     <use xlink:href="#m4b88ccd573" x="336.591654" y="246.366573" style="fill: #1f77b4; stroke: #1f77b4"/>
     <use xlink:href="#m4b88ccd573" x="353.678735" y="187.960298" style="fill: #1f77b4; stroke: #1f77b4"/>
     <use xlink:href="#m4b88ccd573" x="370.765816" y="94.01497" style="fill: #1f77b4; stroke: #1f77b4"/>
     <use xlink:href="#m4b88ccd573" x="387.852898" y="68.547585" style="fill: #1f77b4; stroke: #1f77b4"/>
    </g>
   </g>
   <g id="line2d_13">
    <path d="M 63.198352 217.028048 
L 84.322021 216.467288 
L 100.246018 215.834485 
L 112.92022 215.117293 
L 122.994585 214.337376 
L 131.444053 213.470612 
L 138.593602 212.520855 
L 144.768213 211.479104 
L 149.967885 210.386889 
L 154.517599 209.218823 
L 158.742333 207.904576 
L 162.317107 206.572934 
L 165.566903 205.143433 
L 168.491718 203.637233 
L 171.416534 201.875982 
L 174.01637 200.049855 
L 176.291227 198.20938 
L 178.566084 196.09847 
L 180.84094 193.665505 
L 182.790817 191.276248 
L 184.740695 188.556207 
L 186.690572 185.448331 
L 188.640449 181.884991 
L 190.590326 177.786534 
L 192.215224 173.89586 
L 193.840121 169.508641 
L 195.465019 164.558354 
L 197.089917 158.974514 
L 198.714814 152.686385 
L 200.339712 145.629645 
L 202.289589 136.083145 
L 204.239466 125.352955 
L 206.514323 111.514799 
L 212.038975 76.810906 
L 213.338893 70.168826 
L 214.313831 66.06693 
L 215.28877 62.894234 
L 215.938729 61.361086 
L 216.588688 60.328977 
L 217.238647 59.818191 
L 217.563627 59.761889 
L 217.888606 59.838914 
L 218.538565 60.390731 
L 219.188524 61.462647 
L 219.838483 63.033627 
L 220.813422 66.257967 
L 221.78836 70.403926 
L 223.088279 77.09135 
L 224.713176 86.749062 
L 231.862726 131.140141 
L 233.812603 141.252961 
L 235.76248 150.17563 
L 237.712357 157.963761 
L 239.662234 164.721478 
L 241.612111 170.570042 
L 243.561989 175.630317 
L 245.511866 180.014056 
L 247.461743 183.820371 
L 249.41162 187.135039 
L 251.361497 190.031222 
L 253.311374 192.570796 
L 255.586231 195.151946 
L 257.861088 197.3869 
L 260.135944 199.331686 
L 262.735781 201.257393 
L 265.335617 202.919139 
L 268.260433 204.528072 
L 271.510228 206.050596 
L 275.085003 207.464623 
L 278.984757 208.758006 
L 283.209491 209.926544 
L 288.084184 211.039471 
L 293.608835 212.065679 
L 300.108426 213.031791 
L 307.582955 213.905002 
L 316.357402 214.696559 
L 326.756747 215.405798 
L 339.430949 216.042402 
L 355.354945 216.611264 
L 375.828655 217.10913 
L 387.852898 217.322565 
L 387.852898 217.322565 
" clip-path="url(#p718a5aee02)" style="fill: none; stroke: #d62728; stroke-width: 1.5; stroke-linecap: square"/>
   </g>
   <g id="patch_3">
    <path d="M 46.965625 307.872 
L 46.965625 41.76 
" style="fill: none; stroke: #000000; stroke-width: 0.8; stroke-linejoin: miter; stroke-linecap: square"/>
   </g>
   <g id="patch_4">
    <path d="M 404.085625 307.872 
L 404.085625 41.76 
" style="fill: none; stroke: #000000; stroke-width: 0.8; stroke-linejoin: miter; stroke-linecap: square"/>
   </g>
   <g id="patch_5">
    <path d="M 46.965625 307.872 
L 404.085625 307.872 
" style="fill: none; stroke: #000000; stroke-width: 0.8; stroke-linejoin: miter; stroke-linecap: square"/>
   </g>
   <g id="patch_6">
    <path d="M 46.965625 41.76 
L 404.085625 41.76 
" style="fill: none; stroke: #000000; stroke-width: 0.8; stroke-linejoin: miter; stroke-linecap: square"/>
   </g>
   <g id="text_14">
    <g id="patch_7">
     <path d="M 421.941625 102.357475 
L 615.241625 102.357475 
Q 619.241625 102.357475 619.241625 98.357475 
L 619.241625 55.0656 
Q 619.241625 51.0656 615.241625 51.0656 
L 421.941625 51.0656 
Q 417.941625 51.0656 417.941625 55.0656 
L 417.941625 98.357475 
Q 417.941625 102.357475 421.941625 102.357475 
z
" style="fill: #ffffff; opacity: 0.5; stroke: #000000; stroke-linejoin: miter"/>
    </g>
    <!-- Summary -->
    <g transform="translate(421.941625 62.664038) scale(0.1 -0.1)">
     <defs>
      <path id="DejaVuSans-53" d="M 3425 4513 
L 3425 3897 
Q 3066 4069 2747 4153 
Q 2428 4238 2131 4238 
Q 1616 4238 1336 4038 
Q 1056 3838 1056 3469 
Q 1056 3159 1242 3001 
Q 1428 2844 1947 2747 
L 2328 2669 
Q 3034 2534 3370 2195 
Q 3706 1856 3706 1288 
Q 3706 609 3251 259 
Q 2797 -91 1919 -91 
Q 1588 -91 1214 -16 
Q 841 59 441 206 
L 441 856 
Q 825 641 1194 531 
Q 1563 422 1919 422 
Q 2459 422 2753 634 
Q 3047 847 3047 1241 
Q 3047 1584 2836 1778 
Q 2625 1972 2144 2069 
L 1759 2144 
Q 1053 2284 737 2584 
Q 422 2884 422 3419 
Q 422 4038 858 4394 
Q 1294 4750 2059 4750 
Q 2388 4750 2728 4690 
Q 3069 4631 3425 4513 
z
" transform="scale(0.015625)"/>
      <path id="DejaVuSans-6d" d="M 3328 2828 
Q 3544 3216 3844 3400 
Q 4144 3584 4550 3584 
Q 5097 3584 5394 3201 
Q 5691 2819 5691 2113 
L 5691 0 
L 5113 0 
L 5113 2094 
Q 5113 2597 4934 2840 
Q 4756 3084 4391 3084 
Q 3944 3084 3684 2787 
Q 3425 2491 3425 1978 
L 3425 0 
L 2847 0 
L 2847 2094 
Q 2847 2600 2669 2842 
Q 2491 3084 2119 3084 
Q 1678 3084 1418 2786 
Q 1159 2488 1159 1978 
L 1159 0 
L 581 0 
L 581 3500 
L 1159 3500 
L 1159 2956 
Q 1356 3278 1631 3431 
Q 1906 3584 2284 3584 
Q 2666 3584 2933 3390 
Q 3200 3197 3328 2828 
z
" transform="scale(0.015625)"/>
     </defs>
     <use xlink:href="#DejaVuSans-53"/>
     <use xlink:href="#DejaVuSans-75" x="63.476562"/>
     <use xlink:href="#DejaVuSans-6d" x="126.855469"/>
     <use xlink:href="#DejaVuSans-6d" x="224.267578"/>
     <use xlink:href="#DejaVuSans-61" x="321.679688"/>
     <use xlink:href="#DejaVuSans-72" x="382.958984"/>
     <use xlink:href="#DejaVuSans-79" x="424.072266"/>
    </g>
    <!-- Frequency 0-1: 5.99754$\pm$0.00092 GHz -->
    <g transform="translate(421.941625 73.86185) scale(0.1 -0.1)">
     <defs>
      <path id="DejaVuSans-2d" d="M 313 2009 
L 1997 2009 
L 1997 1497 
L 313 1497 
L 313 2009 
z
" transform="scale(0.015625)"/>
      <path id="DejaVuSans-31" d="M 794 531 
L 1825 531 
L 1825 4091 
L 703 3866 
L 703 4441 
L 1819 4666 
L 2450 4666 
L 2450 531 
L 3481 531 
L 3481 0 
L 794 0 
L 794 531 
z
" transform="scale(0.015625)"/>
      <path id="DejaVuSans-3a" d="M 750 794 
L 1409 794 
L 1409 0 
L 750 0 
L 750 794 
z
M 750 3309 
L 1409 3309 
L 1409 2516 
L 750 2516 
L 750 3309 
z
" transform="scale(0.015625)"/>
      <path id="DejaVuSans-b1" d="M 2944 4013 
L 2944 2803 
L 4684 2803 
L 4684 2272 
L 2944 2272 
L 2944 1063 
L 2419 1063 
L 2419 2272 
L 678 2272 
L 678 2803 
L 2419 2803 
L 2419 4013 
L 2944 4013 
z
M 678 531 
L 4684 531 
L 4684 0 
L 678 0 
L 678 531 
z
" transform="scale(0.015625)"/>
     </defs>
     <use xlink:href="#DejaVuSans-46" transform="translate(0 0.78125)"/>
     <use xlink:href="#DejaVuSans-72" transform="translate(57.519531 0.78125)"/>
     <use xlink:href="#DejaVuSans-65" transform="translate(98.632812 0.78125)"/>
     <use xlink:href="#DejaVuSans-71" transform="translate(160.15625 0.78125)"/>
     <use xlink:href="#DejaVuSans-75" transform="translate(223.632812 0.78125)"/>
     <use xlink:href="#DejaVuSans-65" transform="translate(287.011719 0.78125)"/>
     <use xlink:href="#DejaVuSans-6e" transform="translate(348.535156 0.78125)"/>
     <use xlink:href="#DejaVuSans-63" transform="translate(411.914062 0.78125)"/>
     <use xlink:href="#DejaVuSans-79" transform="translate(466.894531 0.78125)"/>
     <use xlink:href="#DejaVuSans-20" transform="translate(526.074219 0.78125)"/>
     <use xlink:href="#DejaVuSans-30" transform="translate(557.861328 0.78125)"/>
     <use xlink:href="#DejaVuSans-2d" transform="translate(621.484375 0.78125)"/>
     <use xlink:href="#DejaVuSans-31" transform="translate(657.568359 0.78125)"/>
     <use xlink:href="#DejaVuSans-3a" transform="translate(721.191406 0.78125)"/>
     <use xlink:href="#DejaVuSans-20" transform="translate(754.882812 0.78125)"/>
     <use xlink:href="#DejaVuSans-35" transform="translate(786.669922 0.78125)"/>
     <use xlink:href="#DejaVuSans-2e" transform="translate(850.292969 0.78125)"/>
     <use xlink:href="#DejaVuSans-39" transform="translate(882.080078 0.78125)"/>
     <use xlink:href="#DejaVuSans-39" transform="translate(945.703125 0.78125)"/>
     <use xlink:href="#DejaVuSans-37" transform="translate(1009.326172 0.78125)"/>
     <use xlink:href="#DejaVuSans-35" transform="translate(1072.949219 0.78125)"/>
     <use xlink:href="#DejaVuSans-34" transform="translate(1136.572266 0.78125)"/>
     <use xlink:href="#DejaVuSans-b1" transform="translate(1200.195312 0.78125)"/>
     <use xlink:href="#DejaVuSans-30" transform="translate(1283.984375 0.78125)"/>
     <use xlink:href="#DejaVuSans-2e" transform="translate(1347.607422 0.78125)"/>
     <use xlink:href="#DejaVuSans-30" transform="translate(1379.394531 0.78125)"/>
     <use xlink:href="#DejaVuSans-30" transform="translate(1443.017578 0.78125)"/>
     <use xlink:href="#DejaVuSans-30" transform="translate(1506.640625 0.78125)"/>
     <use xlink:href="#DejaVuSans-39" transform="translate(1570.263672 0.78125)"/>
     <use xlink:href="#DejaVuSans-32" transform="translate(1632.136719 0.78125)"/>
     <use xlink:href="#DejaVuSans-20" transform="translate(1695.759766 0.78125)"/>
     <use xlink:href="#DejaVuSans-47" transform="translate(1727.546875 0.78125)"/>
     <use xlink:href="#DejaVuSans-48" transform="translate(1805.037109 0.78125)"/>
     <use xlink:href="#DejaVuSans-7a" transform="translate(1880.232422 0.78125)"/>
    </g>
    <!-- Peak width: -8.7$\pm$1.8 MHz -->
    <g transform="translate(421.941625 85.079975) scale(0.1 -0.1)">
     <defs>
      <path id="DejaVuSans-50" d="M 1259 4147 
L 1259 2394 
L 2053 2394 
Q 2494 2394 2734 2622 
Q 2975 2850 2975 3272 
Q 2975 3691 2734 3919 
Q 2494 4147 2053 4147 
L 1259 4147 
z
M 628 4666 
L 2053 4666 
Q 2838 4666 3239 4311 
Q 3641 3956 3641 3272 
Q 3641 2581 3239 2228 
Q 2838 1875 2053 1875 
L 1259 1875 
L 1259 0 
L 628 0 
L 628 4666 
z
" transform="scale(0.015625)"/>
      <path id="DejaVuSans-6b" d="M 581 4863 
L 1159 4863 
L 1159 1991 
L 2875 3500 
L 3609 3500 
L 1753 1863 
L 3688 0 
L 2938 0 
L 1159 1709 
L 1159 0 
L 581 0 
L 581 4863 
z
" transform="scale(0.015625)"/>
      <path id="DejaVuSans-77" d="M 269 3500 
L 844 3500 
L 1563 769 
L 2278 3500 
L 2956 3500 
L 3675 769 
L 4391 3500 
L 4966 3500 
L 4050 0 
L 3372 0 
L 2619 2869 
L 1863 0 
L 1184 0 
L 269 3500 
z
" transform="scale(0.015625)"/>
      <path id="DejaVuSans-69" d="M 603 3500 
L 1178 3500 
L 1178 0 
L 603 0 
L 603 3500 
z
M 603 4863 
L 1178 4863 
L 1178 4134 
L 603 4134 
L 603 4863 
z
" transform="scale(0.015625)"/>
      <path id="DejaVuSans-64" d="M 2906 2969 
L 2906 4863 
L 3481 4863 
L 3481 0 
L 2906 0 
L 2906 525 
Q 2725 213 2448 61 
Q 2172 -91 1784 -91 
Q 1150 -91 751 415 
Q 353 922 353 1747 
Q 353 2572 751 3078 
Q 1150 3584 1784 3584 
Q 2172 3584 2448 3432 
Q 2725 3281 2906 2969 
z
M 947 1747 
Q 947 1113 1208 752 
Q 1469 391 1925 391 
Q 2381 391 2643 752 
Q 2906 1113 2906 1747 
Q 2906 2381 2643 2742 
Q 2381 3103 1925 3103 
Q 1469 3103 1208 2742 
Q 947 2381 947 1747 
z
" transform="scale(0.015625)"/>
      <path id="DejaVuSans-68" d="M 3513 2113 
L 3513 0 
L 2938 0 
L 2938 2094 
Q 2938 2591 2744 2837 
Q 2550 3084 2163 3084 
Q 1697 3084 1428 2787 
Q 1159 2491 1159 1978 
L 1159 0 
L 581 0 
L 581 4863 
L 1159 4863 
L 1159 2956 
Q 1366 3272 1645 3428 
Q 1925 3584 2291 3584 
Q 2894 3584 3203 3211 
Q 3513 2838 3513 2113 
z
" transform="scale(0.015625)"/>
      <path id="DejaVuSans-4d" d="M 628 4666 
L 1569 4666 
L 2759 1491 
L 3956 4666 
L 4897 4666 
L 4897 0 
L 4281 0 
L 4281 4097 
L 3078 897 
L 2444 897 
L 1241 4097 
L 1241 0 
L 628 0 
L 628 4666 
z
" transform="scale(0.015625)"/>
     </defs>
     <use xlink:href="#DejaVuSans-50" transform="translate(0 0.015625)"/>
     <use xlink:href="#DejaVuSans-65" transform="translate(60.302734 0.015625)"/>
     <use xlink:href="#DejaVuSans-61" transform="translate(121.826172 0.015625)"/>
     <use xlink:href="#DejaVuSans-6b" transform="translate(183.105469 0.015625)"/>
     <use xlink:href="#DejaVuSans-20" transform="translate(241.015625 0.015625)"/>
     <use xlink:href="#DejaVuSans-77" transform="translate(272.802734 0.015625)"/>
     <use xlink:href="#DejaVuSans-69" transform="translate(354.589844 0.015625)"/>
     <use xlink:href="#DejaVuSans-64" transform="translate(382.373047 0.015625)"/>
     <use xlink:href="#DejaVuSans-74" transform="translate(445.849609 0.015625)"/>
     <use xlink:href="#DejaVuSans-68" transform="translate(485.058594 0.015625)"/>
     <use xlink:href="#DejaVuSans-3a" transform="translate(548.4375 0.015625)"/>
     <use xlink:href="#DejaVuSans-20" transform="translate(582.128906 0.015625)"/>
     <use xlink:href="#DejaVuSans-2d" transform="translate(613.916016 0.015625)"/>
     <use xlink:href="#DejaVuSans-38" transform="translate(650 0.015625)"/>
     <use xlink:href="#DejaVuSans-2e" transform="translate(713.623047 0.015625)"/>
     <use xlink:href="#DejaVuSans-37" transform="translate(737.660156 0.015625)"/>
     <use xlink:href="#DejaVuSans-b1" transform="translate(801.283203 0.015625)"/>
     <use xlink:href="#DejaVuSans-31" transform="translate(885.072266 0.015625)"/>
     <use xlink:href="#DejaVuSans-2e" transform="translate(948.695312 0.015625)"/>
     <use xlink:href="#DejaVuSans-38" transform="translate(977.857422 0.015625)"/>
     <use xlink:href="#DejaVuSans-20" transform="translate(1041.480469 0.015625)"/>
     <use xlink:href="#DejaVuSans-4d" transform="translate(1073.267578 0.015625)"/>
     <use xlink:href="#DejaVuSans-48" transform="translate(1159.546875 0.015625)"/>
     <use xlink:href="#DejaVuSans-7a" transform="translate(1234.742188 0.015625)"/>
    </g>
    <!--  -->
    <g transform="translate(421.941625 96.277788) scale(0.1 -0.1)"/>
   </g>
  </g>
  <g id="text_15">
   <!-- S21 QubitSpectroscopy -->
   <g transform="translate(149.640625 16.318125) scale(0.12 -0.12)">
    <defs>
     <path id="DejaVuSans-51" d="M 2522 4238 
Q 1834 4238 1429 3725 
Q 1025 3213 1025 2328 
Q 1025 1447 1429 934 
Q 1834 422 2522 422 
Q 3209 422 3611 934 
Q 4013 1447 4013 2328 
Q 4013 3213 3611 3725 
Q 3209 4238 2522 4238 
z
M 3406 84 
L 4238 -825 
L 3475 -825 
L 2784 -78 
Q 2681 -84 2626 -87 
Q 2572 -91 2522 -91 
Q 1538 -91 948 567 
Q 359 1225 359 2328 
Q 359 3434 948 4092 
Q 1538 4750 2522 4750 
Q 3503 4750 4090 4092 
Q 4678 3434 4678 2328 
Q 4678 1516 4351 937 
Q 4025 359 3406 84 
z
" transform="scale(0.015625)"/>
     <path id="DejaVuSans-62" d="M 3116 1747 
Q 3116 2381 2855 2742 
Q 2594 3103 2138 3103 
Q 1681 3103 1420 2742 
Q 1159 2381 1159 1747 
Q 1159 1113 1420 752 
Q 1681 391 2138 391 
Q 2594 391 2855 752 
Q 3116 1113 3116 1747 
z
M 1159 2969 
Q 1341 3281 1617 3432 
Q 1894 3584 2278 3584 
Q 2916 3584 3314 3078 
Q 3713 2572 3713 1747 
Q 3713 922 3314 415 
Q 2916 -91 2278 -91 
Q 1894 -91 1617 61 
Q 1341 213 1159 525 
L 1159 0 
L 581 0 
L 581 4863 
L 1159 4863 
L 1159 2969 
z
" transform="scale(0.015625)"/>
     <path id="DejaVuSans-73" d="M 2834 3397 
L 2834 2853 
Q 2591 2978 2328 3040 
Q 2066 3103 1784 3103 
Q 1356 3103 1142 2972 
Q 928 2841 928 2578 
Q 928 2378 1081 2264 
Q 1234 2150 1697 2047 
L 1894 2003 
Q 2506 1872 2764 1633 
Q 3022 1394 3022 966 
Q 3022 478 2636 193 
Q 2250 -91 1575 -91 
Q 1294 -91 989 -36 
Q 684 19 347 128 
L 347 722 
Q 666 556 975 473 
Q 1284 391 1588 391 
Q 1994 391 2212 530 
Q 2431 669 2431 922 
Q 2431 1156 2273 1281 
Q 2116 1406 1581 1522 
L 1381 1569 
Q 847 1681 609 1914 
Q 372 2147 372 2553 
Q 372 3047 722 3315 
Q 1072 3584 1716 3584 
Q 2034 3584 2315 3537 
Q 2597 3491 2834 3397 
z
" transform="scale(0.015625)"/>
    </defs>
    <use xlink:href="#DejaVuSans-53"/>
    <use xlink:href="#DejaVuSans-32" x="63.476562"/>
    <use xlink:href="#DejaVuSans-31" x="127.099609"/>
    <use xlink:href="#DejaVuSans-20" x="190.722656"/>
    <use xlink:href="#DejaVuSans-51" x="222.509766"/>
    <use xlink:href="#DejaVuSans-75" x="301.220703"/>
    <use xlink:href="#DejaVuSans-62" x="364.599609"/>
    <use xlink:href="#DejaVuSans-69" x="428.076172"/>
    <use xlink:href="#DejaVuSans-74" x="455.859375"/>
    <use xlink:href="#DejaVuSans-53" x="495.068359"/>
    <use xlink:href="#DejaVuSans-70" x="558.544922"/>
    <use xlink:href="#DejaVuSans-65" x="622.021484"/>
    <use xlink:href="#DejaVuSans-63" x="683.544922"/>
    <use xlink:href="#DejaVuSans-74" x="738.525391"/>
    <use xlink:href="#DejaVuSans-72" x="777.734375"/>
    <use xlink:href="#DejaVuSans-6f" x="816.597656"/>
    <use xlink:href="#DejaVuSans-73" x="877.779297"/>
    <use xlink:href="#DejaVuSans-63" x="929.878906"/>
    <use xlink:href="#DejaVuSans-6f" x="984.859375"/>
    <use xlink:href="#DejaVuSans-70" x="1046.041016"/>
    <use xlink:href="#DejaVuSans-79" x="1109.517578"/>
   </g>
   <!-- tuid: 20230127-175358-002-27a831 -->
   <g transform="translate(110.050938 29.7555) scale(0.12 -0.12)">
    <use xlink:href="#DejaVuSans-74"/>
    <use xlink:href="#DejaVuSans-75" x="39.208984"/>
    <use xlink:href="#DejaVuSans-69" x="102.587891"/>
    <use xlink:href="#DejaVuSans-64" x="130.371094"/>
    <use xlink:href="#DejaVuSans-3a" x="193.847656"/>
    <use xlink:href="#DejaVuSans-20" x="227.539062"/>
    <use xlink:href="#DejaVuSans-32" x="259.326172"/>
    <use xlink:href="#DejaVuSans-30" x="322.949219"/>
    <use xlink:href="#DejaVuSans-32" x="386.572266"/>
    <use xlink:href="#DejaVuSans-33" x="450.195312"/>
    <use xlink:href="#DejaVuSans-30" x="513.818359"/>
    <use xlink:href="#DejaVuSans-31" x="577.441406"/>
    <use xlink:href="#DejaVuSans-32" x="641.064453"/>
    <use xlink:href="#DejaVuSans-37" x="704.6875"/>
    <use xlink:href="#DejaVuSans-2d" x="768.310547"/>
    <use xlink:href="#DejaVuSans-31" x="804.394531"/>
    <use xlink:href="#DejaVuSans-37" x="868.017578"/>
    <use xlink:href="#DejaVuSans-35" x="931.640625"/>
    <use xlink:href="#DejaVuSans-33" x="995.263672"/>
    <use xlink:href="#DejaVuSans-35" x="1058.886719"/>
    <use xlink:href="#DejaVuSans-38" x="1122.509766"/>
    <use xlink:href="#DejaVuSans-2d" x="1186.132812"/>
    <use xlink:href="#DejaVuSans-30" x="1222.216797"/>
    <use xlink:href="#DejaVuSans-30" x="1285.839844"/>
    <use xlink:href="#DejaVuSans-32" x="1349.462891"/>
    <use xlink:href="#DejaVuSans-2d" x="1413.085938"/>
    <use xlink:href="#DejaVuSans-32" x="1449.169922"/>
    <use xlink:href="#DejaVuSans-37" x="1512.792969"/>
    <use xlink:href="#DejaVuSans-61" x="1576.416016"/>
    <use xlink:href="#DejaVuSans-38" x="1637.695312"/>
    <use xlink:href="#DejaVuSans-33" x="1701.318359"/>
    <use xlink:href="#DejaVuSans-31" x="1764.941406"/>
   </g>
  </g>
 </g>
 <defs>
  <clipPath id="p718a5aee02">
   <rect x="46.965625" y="41.76" width="357.12" height="266.112"/>
  </clipPath>
 </defs>
</svg>
