<?xml version="1.0" encoding="utf-8" standalone="no"?>
<!DOCTYPE svg PUBLIC "-//W3C//DTD SVG 1.1//EN"
  "http://www.w3.org/Graphics/SVG/1.1/DTD/svg11.dtd">
<svg xmlns:xlink="http://www.w3.org/1999/xlink" width="588.5635pt" height="345.42825pt" viewBox="0 0 588.5635 345.42825" xmlns="http://www.w3.org/2000/svg" version="1.1">
 <metadata>
  <rdf:RDF xmlns:dc="http://purl.org/dc/elements/1.1/" xmlns:cc="http://creativecommons.org/ns#" xmlns:rdf="http://www.w3.org/1999/02/22-rdf-syntax-ns#">
   <cc:Work>
    <dc:type rdf:resource="http://purl.org/dc/dcmitype/StillImage"/>
    <dc:date>2023-01-27T17:57:18.579635</dc:date>
    <dc:format>image/svg+xml</dc:format>
    <dc:creator>
     <cc:Agent>
      <dc:title>Matplotlib v3.6.3, https://matplotlib.org/</dc:title>
     </cc:Agent>
    </dc:creator>
   </cc:Work>
  </rdf:RDF>
 </metadata>
 <defs>
  <style type="text/css">*{stroke-linejoin: round; stroke-linecap: butt}</style>
 </defs>
 <g id="figure_1">
  <g id="patch_1">
   <path d="M 0 345.42825 
L 588.5635 345.42825 
L 588.5635 -0 
L 0 -0 
z
" style="fill: #ffffff"/>
  </g>
  <g id="axes_1">
   <g id="patch_2">
    <path d="M 47.3875 307.872 
L 404.5075 307.872 
L 404.5075 41.76 
L 47.3875 41.76 
z
" style="fill: #ffffff"/>
   </g>
   <g id="matplotlib.axis_1">
    <g id="xtick_1">
     <g id="line2d_1">
      <defs>
       <path id="md9868d09de" d="M 0 0 
L 0 3.5 
" style="stroke: #000000; stroke-width: 0.8"/>
      </defs>
      <g>
       <use xlink:href="#md9868d09de" x="89.250849" y="307.872" style="stroke: #000000; stroke-width: 0.8"/>
      </g>
     </g>
     <g id="text_1">
      <!-- 2.5 -->
      <g transform="translate(81.299287 322.470438) scale(0.1 -0.1)">
       <defs>
        <path id="DejaVuSans-32" d="M 1228 531 
L 3431 531 
L 3431 0 
L 469 0 
L 469 531 
Q 828 903 1448 1529 
Q 2069 2156 2228 2338 
Q 2531 2678 2651 2914 
Q 2772 3150 2772 3378 
Q 2772 3750 2511 3984 
Q 2250 4219 1831 4219 
Q 1534 4219 1204 4116 
Q 875 4013 500 3803 
L 500 4441 
Q 881 4594 1212 4672 
Q 1544 4750 1819 4750 
Q 2544 4750 2975 4387 
Q 3406 4025 3406 3419 
Q 3406 3131 3298 2873 
Q 3191 2616 2906 2266 
Q 2828 2175 2409 1742 
Q 1991 1309 1228 531 
z
" transform="scale(0.015625)"/>
        <path id="DejaVuSans-2e" d="M 684 794 
L 1344 794 
L 1344 0 
L 684 0 
L 684 794 
z
" transform="scale(0.015625)"/>
        <path id="DejaVuSans-35" d="M 691 4666 
L 3169 4666 
L 3169 4134 
L 1269 4134 
L 1269 2991 
Q 1406 3038 1543 3061 
Q 1681 3084 1819 3084 
Q 2600 3084 3056 2656 
Q 3513 2228 3513 1497 
Q 3513 744 3044 326 
Q 2575 -91 1722 -91 
Q 1428 -91 1123 -41 
Q 819 9 494 109 
L 494 744 
Q 775 591 1075 516 
Q 1375 441 1709 441 
Q 2250 441 2565 725 
Q 2881 1009 2881 1497 
Q 2881 1984 2565 2268 
Q 2250 2553 1709 2553 
Q 1456 2553 1204 2497 
Q 953 2441 691 2322 
L 691 4666 
z
" transform="scale(0.015625)"/>
       </defs>
       <use xlink:href="#DejaVuSans-32"/>
       <use xlink:href="#DejaVuSans-2e" x="63.623047"/>
       <use xlink:href="#DejaVuSans-35" x="95.410156"/>
      </g>
     </g>
    </g>
    <g id="xtick_2">
     <g id="line2d_2">
      <g>
       <use xlink:href="#md9868d09de" x="131.968553" y="307.872" style="stroke: #000000; stroke-width: 0.8"/>
      </g>
     </g>
     <g id="text_2">
      <!-- 5 -->
      <g transform="translate(128.787303 322.470438) scale(0.1 -0.1)">
       <use xlink:href="#DejaVuSans-35"/>
      </g>
     </g>
    </g>
    <g id="xtick_3">
     <g id="line2d_3">
      <g>
       <use xlink:href="#md9868d09de" x="174.686256" y="307.872" style="stroke: #000000; stroke-width: 0.8"/>
      </g>
     </g>
     <g id="text_3">
      <!-- 7.5 -->
      <g transform="translate(166.734693 322.470438) scale(0.1 -0.1)">
       <defs>
        <path id="DejaVuSans-37" d="M 525 4666 
L 3525 4666 
L 3525 4397 
L 1831 0 
L 1172 0 
L 2766 4134 
L 525 4134 
L 525 4666 
z
" transform="scale(0.015625)"/>
       </defs>
       <use xlink:href="#DejaVuSans-37"/>
       <use xlink:href="#DejaVuSans-2e" x="63.623047"/>
       <use xlink:href="#DejaVuSans-35" x="95.410156"/>
      </g>
     </g>
    </g>
    <g id="xtick_4">
     <g id="line2d_4">
      <g>
       <use xlink:href="#md9868d09de" x="217.403959" y="307.872" style="stroke: #000000; stroke-width: 0.8"/>
      </g>
     </g>
     <g id="text_4">
      <!-- 10 -->
      <g transform="translate(211.041459 322.470438) scale(0.1 -0.1)">
       <defs>
        <path id="DejaVuSans-31" d="M 794 531 
L 1825 531 
L 1825 4091 
L 703 3866 
L 703 4441 
L 1819 4666 
L 2450 4666 
L 2450 531 
L 3481 531 
L 3481 0 
L 794 0 
L 794 531 
z
" transform="scale(0.015625)"/>
        <path id="DejaVuSans-30" d="M 2034 4250 
Q 1547 4250 1301 3770 
Q 1056 3291 1056 2328 
Q 1056 1369 1301 889 
Q 1547 409 2034 409 
Q 2525 409 2770 889 
Q 3016 1369 3016 2328 
Q 3016 3291 2770 3770 
Q 2525 4250 2034 4250 
z
M 2034 4750 
Q 2819 4750 3233 4129 
Q 3647 3509 3647 2328 
Q 3647 1150 3233 529 
Q 2819 -91 2034 -91 
Q 1250 -91 836 529 
Q 422 1150 422 2328 
Q 422 3509 836 4129 
Q 1250 4750 2034 4750 
z
" transform="scale(0.015625)"/>
       </defs>
       <use xlink:href="#DejaVuSans-31"/>
       <use xlink:href="#DejaVuSans-30" x="63.623047"/>
      </g>
     </g>
    </g>
    <g id="xtick_5">
     <g id="line2d_5">
      <g>
       <use xlink:href="#md9868d09de" x="260.121663" y="307.872" style="stroke: #000000; stroke-width: 0.8"/>
      </g>
     </g>
     <g id="text_5">
      <!-- 12.5 -->
      <g transform="translate(248.98885 322.470438) scale(0.1 -0.1)">
       <use xlink:href="#DejaVuSans-31"/>
       <use xlink:href="#DejaVuSans-32" x="63.623047"/>
       <use xlink:href="#DejaVuSans-2e" x="127.246094"/>
       <use xlink:href="#DejaVuSans-35" x="159.033203"/>
      </g>
     </g>
    </g>
    <g id="xtick_6">
     <g id="line2d_6">
      <g>
       <use xlink:href="#md9868d09de" x="302.839366" y="307.872" style="stroke: #000000; stroke-width: 0.8"/>
      </g>
     </g>
     <g id="text_6">
      <!-- 15 -->
      <g transform="translate(296.476866 322.470438) scale(0.1 -0.1)">
       <use xlink:href="#DejaVuSans-31"/>
       <use xlink:href="#DejaVuSans-35" x="63.623047"/>
      </g>
     </g>
    </g>
    <g id="xtick_7">
     <g id="line2d_7">
      <g>
       <use xlink:href="#md9868d09de" x="345.557069" y="307.872" style="stroke: #000000; stroke-width: 0.8"/>
      </g>
     </g>
     <g id="text_7">
      <!-- 17.5 -->
      <g transform="translate(334.424257 322.470438) scale(0.1 -0.1)">
       <use xlink:href="#DejaVuSans-31"/>
       <use xlink:href="#DejaVuSans-37" x="63.623047"/>
       <use xlink:href="#DejaVuSans-2e" x="127.246094"/>
       <use xlink:href="#DejaVuSans-35" x="159.033203"/>
      </g>
     </g>
    </g>
    <g id="xtick_8">
     <g id="line2d_8">
      <g>
       <use xlink:href="#md9868d09de" x="388.274773" y="307.872" style="stroke: #000000; stroke-width: 0.8"/>
      </g>
     </g>
     <g id="text_8">
      <!-- 20 -->
      <g transform="translate(381.912273 322.470438) scale(0.1 -0.1)">
       <use xlink:href="#DejaVuSans-32"/>
       <use xlink:href="#DejaVuSans-30" x="63.623047"/>
      </g>
     </g>
    </g>
    <g id="text_9">
     <!-- Delay [μs] -->
     <g transform="translate(200.331875 336.148562) scale(0.1 -0.1)">
      <defs>
       <path id="DejaVuSans-44" d="M 1259 4147 
L 1259 519 
L 2022 519 
Q 2988 519 3436 956 
Q 3884 1394 3884 2338 
Q 3884 3275 3436 3711 
Q 2988 4147 2022 4147 
L 1259 4147 
z
M 628 4666 
L 1925 4666 
Q 3281 4666 3915 4102 
Q 4550 3538 4550 2338 
Q 4550 1131 3912 565 
Q 3275 0 1925 0 
L 628 0 
L 628 4666 
z
" transform="scale(0.015625)"/>
       <path id="DejaVuSans-65" d="M 3597 1894 
L 3597 1613 
L 953 1613 
Q 991 1019 1311 708 
Q 1631 397 2203 397 
Q 2534 397 2845 478 
Q 3156 559 3463 722 
L 3463 178 
Q 3153 47 2828 -22 
Q 2503 -91 2169 -91 
Q 1331 -91 842 396 
Q 353 884 353 1716 
Q 353 2575 817 3079 
Q 1281 3584 2069 3584 
Q 2775 3584 3186 3129 
Q 3597 2675 3597 1894 
z
M 3022 2063 
Q 3016 2534 2758 2815 
Q 2500 3097 2075 3097 
Q 1594 3097 1305 2825 
Q 1016 2553 972 2059 
L 3022 2063 
z
" transform="scale(0.015625)"/>
       <path id="DejaVuSans-6c" d="M 603 4863 
L 1178 4863 
L 1178 0 
L 603 0 
L 603 4863 
z
" transform="scale(0.015625)"/>
       <path id="DejaVuSans-61" d="M 2194 1759 
Q 1497 1759 1228 1600 
Q 959 1441 959 1056 
Q 959 750 1161 570 
Q 1363 391 1709 391 
Q 2188 391 2477 730 
Q 2766 1069 2766 1631 
L 2766 1759 
L 2194 1759 
z
M 3341 1997 
L 3341 0 
L 2766 0 
L 2766 531 
Q 2569 213 2275 61 
Q 1981 -91 1556 -91 
Q 1019 -91 701 211 
Q 384 513 384 1019 
Q 384 1609 779 1909 
Q 1175 2209 1959 2209 
L 2766 2209 
L 2766 2266 
Q 2766 2663 2505 2880 
Q 2244 3097 1772 3097 
Q 1472 3097 1187 3025 
Q 903 2953 641 2809 
L 641 3341 
Q 956 3463 1253 3523 
Q 1550 3584 1831 3584 
Q 2591 3584 2966 3190 
Q 3341 2797 3341 1997 
z
" transform="scale(0.015625)"/>
       <path id="DejaVuSans-79" d="M 2059 -325 
Q 1816 -950 1584 -1140 
Q 1353 -1331 966 -1331 
L 506 -1331 
L 506 -850 
L 844 -850 
Q 1081 -850 1212 -737 
Q 1344 -625 1503 -206 
L 1606 56 
L 191 3500 
L 800 3500 
L 1894 763 
L 2988 3500 
L 3597 3500 
L 2059 -325 
z
" transform="scale(0.015625)"/>
       <path id="DejaVuSans-20" transform="scale(0.015625)"/>
       <path id="DejaVuSans-5b" d="M 550 4863 
L 1875 4863 
L 1875 4416 
L 1125 4416 
L 1125 -397 
L 1875 -397 
L 1875 -844 
L 550 -844 
L 550 4863 
z
" transform="scale(0.015625)"/>
       <path id="DejaVuSans-3bc" d="M 544 -1331 
L 544 3500 
L 1119 3500 
L 1119 1325 
Q 1119 872 1334 640 
Q 1550 409 1972 409 
Q 2434 409 2667 671 
Q 2900 934 2900 1459 
L 2900 3500 
L 3475 3500 
L 3475 806 
Q 3475 619 3529 530 
Q 3584 441 3700 441 
Q 3728 441 3778 458 
Q 3828 475 3916 513 
L 3916 50 
Q 3788 -22 3673 -56 
Q 3559 -91 3450 -91 
Q 3234 -91 3106 31 
Q 2978 153 2931 403 
Q 2775 156 2548 32 
Q 2322 -91 2016 -91 
Q 1697 -91 1473 31 
Q 1250 153 1119 397 
L 1119 -1331 
L 544 -1331 
z
" transform="scale(0.015625)"/>
       <path id="DejaVuSans-73" d="M 2834 3397 
L 2834 2853 
Q 2591 2978 2328 3040 
Q 2066 3103 1784 3103 
Q 1356 3103 1142 2972 
Q 928 2841 928 2578 
Q 928 2378 1081 2264 
Q 1234 2150 1697 2047 
L 1894 2003 
Q 2506 1872 2764 1633 
Q 3022 1394 3022 966 
Q 3022 478 2636 193 
Q 2250 -91 1575 -91 
Q 1294 -91 989 -36 
Q 684 19 347 128 
L 347 722 
Q 666 556 975 473 
Q 1284 391 1588 391 
Q 1994 391 2212 530 
Q 2431 669 2431 922 
Q 2431 1156 2273 1281 
Q 2116 1406 1581 1522 
L 1381 1569 
Q 847 1681 609 1914 
Q 372 2147 372 2553 
Q 372 3047 722 3315 
Q 1072 3584 1716 3584 
Q 2034 3584 2315 3537 
Q 2597 3491 2834 3397 
z
" transform="scale(0.015625)"/>
       <path id="DejaVuSans-5d" d="M 1947 4863 
L 1947 -844 
L 622 -844 
L 622 -397 
L 1369 -397 
L 1369 4416 
L 622 4416 
L 622 4863 
L 1947 4863 
z
" transform="scale(0.015625)"/>
      </defs>
      <use xlink:href="#DejaVuSans-44"/>
      <use xlink:href="#DejaVuSans-65" x="77.001953"/>
      <use xlink:href="#DejaVuSans-6c" x="138.525391"/>
      <use xlink:href="#DejaVuSans-61" x="166.308594"/>
      <use xlink:href="#DejaVuSans-79" x="227.587891"/>
      <use xlink:href="#DejaVuSans-20" x="286.767578"/>
      <use xlink:href="#DejaVuSans-5b" x="318.554688"/>
      <use xlink:href="#DejaVuSans-3bc" x="357.568359"/>
      <use xlink:href="#DejaVuSans-73" x="421.191406"/>
      <use xlink:href="#DejaVuSans-5d" x="473.291016"/>
     </g>
    </g>
   </g>
   <g id="matplotlib.axis_2">
    <g id="ytick_1">
     <g id="line2d_9">
      <defs>
       <path id="mf2b8996f62" d="M 0 0 
L -3.5 0 
" style="stroke: #000000; stroke-width: 0.8"/>
      </defs>
      <g>
       <use xlink:href="#mf2b8996f62" x="47.3875" y="300.269136" style="stroke: #000000; stroke-width: 0.8"/>
      </g>
     </g>
     <g id="text_10">
      <!-- 374 -->
      <g transform="translate(21.3 304.068354) scale(0.1 -0.1)">
       <defs>
        <path id="DejaVuSans-33" d="M 2597 2516 
Q 3050 2419 3304 2112 
Q 3559 1806 3559 1356 
Q 3559 666 3084 287 
Q 2609 -91 1734 -91 
Q 1441 -91 1130 -33 
Q 819 25 488 141 
L 488 750 
Q 750 597 1062 519 
Q 1375 441 1716 441 
Q 2309 441 2620 675 
Q 2931 909 2931 1356 
Q 2931 1769 2642 2001 
Q 2353 2234 1838 2234 
L 1294 2234 
L 1294 2753 
L 1863 2753 
Q 2328 2753 2575 2939 
Q 2822 3125 2822 3475 
Q 2822 3834 2567 4026 
Q 2313 4219 1838 4219 
Q 1578 4219 1281 4162 
Q 984 4106 628 3988 
L 628 4550 
Q 988 4650 1302 4700 
Q 1616 4750 1894 4750 
Q 2613 4750 3031 4423 
Q 3450 4097 3450 3541 
Q 3450 3153 3228 2886 
Q 3006 2619 2597 2516 
z
" transform="scale(0.015625)"/>
        <path id="DejaVuSans-34" d="M 2419 4116 
L 825 1625 
L 2419 1625 
L 2419 4116 
z
M 2253 4666 
L 3047 4666 
L 3047 1625 
L 3713 1625 
L 3713 1100 
L 3047 1100 
L 3047 0 
L 2419 0 
L 2419 1100 
L 313 1100 
L 313 1709 
L 2253 4666 
z
" transform="scale(0.015625)"/>
       </defs>
       <use xlink:href="#DejaVuSans-33"/>
       <use xlink:href="#DejaVuSans-37" x="63.623047"/>
       <use xlink:href="#DejaVuSans-34" x="127.246094"/>
      </g>
     </g>
    </g>
    <g id="ytick_2">
     <g id="line2d_10">
      <g>
       <use xlink:href="#mf2b8996f62" x="47.3875" y="270.403987" style="stroke: #000000; stroke-width: 0.8"/>
      </g>
     </g>
     <g id="text_11">
      <!-- 375 -->
      <g transform="translate(21.3 274.203205) scale(0.1 -0.1)">
       <use xlink:href="#DejaVuSans-33"/>
       <use xlink:href="#DejaVuSans-37" x="63.623047"/>
       <use xlink:href="#DejaVuSans-35" x="127.246094"/>
      </g>
     </g>
    </g>
    <g id="ytick_3">
     <g id="line2d_11">
      <g>
       <use xlink:href="#mf2b8996f62" x="47.3875" y="240.538838" style="stroke: #000000; stroke-width: 0.8"/>
      </g>
     </g>
     <g id="text_12">
      <!-- 376 -->
      <g transform="translate(21.3 244.338056) scale(0.1 -0.1)">
       <defs>
        <path id="DejaVuSans-36" d="M 2113 2584 
Q 1688 2584 1439 2293 
Q 1191 2003 1191 1497 
Q 1191 994 1439 701 
Q 1688 409 2113 409 
Q 2538 409 2786 701 
Q 3034 994 3034 1497 
Q 3034 2003 2786 2293 
Q 2538 2584 2113 2584 
z
M 3366 4563 
L 3366 3988 
Q 3128 4100 2886 4159 
Q 2644 4219 2406 4219 
Q 1781 4219 1451 3797 
Q 1122 3375 1075 2522 
Q 1259 2794 1537 2939 
Q 1816 3084 2150 3084 
Q 2853 3084 3261 2657 
Q 3669 2231 3669 1497 
Q 3669 778 3244 343 
Q 2819 -91 2113 -91 
Q 1303 -91 875 529 
Q 447 1150 447 2328 
Q 447 3434 972 4092 
Q 1497 4750 2381 4750 
Q 2619 4750 2861 4703 
Q 3103 4656 3366 4563 
z
" transform="scale(0.015625)"/>
       </defs>
       <use xlink:href="#DejaVuSans-33"/>
       <use xlink:href="#DejaVuSans-37" x="63.623047"/>
       <use xlink:href="#DejaVuSans-36" x="127.246094"/>
      </g>
     </g>
    </g>
    <g id="ytick_4">
     <g id="line2d_12">
      <g>
       <use xlink:href="#mf2b8996f62" x="47.3875" y="210.673689" style="stroke: #000000; stroke-width: 0.8"/>
      </g>
     </g>
     <g id="text_13">
      <!-- 377 -->
      <g transform="translate(21.3 214.472907) scale(0.1 -0.1)">
       <use xlink:href="#DejaVuSans-33"/>
       <use xlink:href="#DejaVuSans-37" x="63.623047"/>
       <use xlink:href="#DejaVuSans-37" x="127.246094"/>
      </g>
     </g>
    </g>
    <g id="ytick_5">
     <g id="line2d_13">
      <g>
       <use xlink:href="#mf2b8996f62" x="47.3875" y="180.80854" style="stroke: #000000; stroke-width: 0.8"/>
      </g>
     </g>
     <g id="text_14">
      <!-- 378 -->
      <g transform="translate(21.3 184.607758) scale(0.1 -0.1)">
       <defs>
        <path id="DejaVuSans-38" d="M 2034 2216 
Q 1584 2216 1326 1975 
Q 1069 1734 1069 1313 
Q 1069 891 1326 650 
Q 1584 409 2034 409 
Q 2484 409 2743 651 
Q 3003 894 3003 1313 
Q 3003 1734 2745 1975 
Q 2488 2216 2034 2216 
z
M 1403 2484 
Q 997 2584 770 2862 
Q 544 3141 544 3541 
Q 544 4100 942 4425 
Q 1341 4750 2034 4750 
Q 2731 4750 3128 4425 
Q 3525 4100 3525 3541 
Q 3525 3141 3298 2862 
Q 3072 2584 2669 2484 
Q 3125 2378 3379 2068 
Q 3634 1759 3634 1313 
Q 3634 634 3220 271 
Q 2806 -91 2034 -91 
Q 1263 -91 848 271 
Q 434 634 434 1313 
Q 434 1759 690 2068 
Q 947 2378 1403 2484 
z
M 1172 3481 
Q 1172 3119 1398 2916 
Q 1625 2713 2034 2713 
Q 2441 2713 2670 2916 
Q 2900 3119 2900 3481 
Q 2900 3844 2670 4047 
Q 2441 4250 2034 4250 
Q 1625 4250 1398 4047 
Q 1172 3844 1172 3481 
z
" transform="scale(0.015625)"/>
       </defs>
       <use xlink:href="#DejaVuSans-33"/>
       <use xlink:href="#DejaVuSans-37" x="63.623047"/>
       <use xlink:href="#DejaVuSans-38" x="127.246094"/>
      </g>
     </g>
    </g>
    <g id="ytick_6">
     <g id="line2d_14">
      <g>
       <use xlink:href="#mf2b8996f62" x="47.3875" y="150.943391" style="stroke: #000000; stroke-width: 0.8"/>
      </g>
     </g>
     <g id="text_15">
      <!-- 379 -->
      <g transform="translate(21.3 154.74261) scale(0.1 -0.1)">
       <defs>
        <path id="DejaVuSans-39" d="M 703 97 
L 703 672 
Q 941 559 1184 500 
Q 1428 441 1663 441 
Q 2288 441 2617 861 
Q 2947 1281 2994 2138 
Q 2813 1869 2534 1725 
Q 2256 1581 1919 1581 
Q 1219 1581 811 2004 
Q 403 2428 403 3163 
Q 403 3881 828 4315 
Q 1253 4750 1959 4750 
Q 2769 4750 3195 4129 
Q 3622 3509 3622 2328 
Q 3622 1225 3098 567 
Q 2575 -91 1691 -91 
Q 1453 -91 1209 -44 
Q 966 3 703 97 
z
M 1959 2075 
Q 2384 2075 2632 2365 
Q 2881 2656 2881 3163 
Q 2881 3666 2632 3958 
Q 2384 4250 1959 4250 
Q 1534 4250 1286 3958 
Q 1038 3666 1038 3163 
Q 1038 2656 1286 2365 
Q 1534 2075 1959 2075 
z
" transform="scale(0.015625)"/>
       </defs>
       <use xlink:href="#DejaVuSans-33"/>
       <use xlink:href="#DejaVuSans-37" x="63.623047"/>
       <use xlink:href="#DejaVuSans-39" x="127.246094"/>
      </g>
     </g>
    </g>
    <g id="ytick_7">
     <g id="line2d_15">
      <g>
       <use xlink:href="#mf2b8996f62" x="47.3875" y="121.078242" style="stroke: #000000; stroke-width: 0.8"/>
      </g>
     </g>
     <g id="text_16">
      <!-- 380 -->
      <g transform="translate(21.3 124.877461) scale(0.1 -0.1)">
       <use xlink:href="#DejaVuSans-33"/>
       <use xlink:href="#DejaVuSans-38" x="63.623047"/>
       <use xlink:href="#DejaVuSans-30" x="127.246094"/>
      </g>
     </g>
    </g>
    <g id="ytick_8">
     <g id="line2d_16">
      <g>
       <use xlink:href="#mf2b8996f62" x="47.3875" y="91.213093" style="stroke: #000000; stroke-width: 0.8"/>
      </g>
     </g>
     <g id="text_17">
      <!-- 381 -->
      <g transform="translate(21.3 95.012312) scale(0.1 -0.1)">
       <use xlink:href="#DejaVuSans-33"/>
       <use xlink:href="#DejaVuSans-38" x="63.623047"/>
       <use xlink:href="#DejaVuSans-31" x="127.246094"/>
      </g>
     </g>
    </g>
    <g id="ytick_9">
     <g id="line2d_17">
      <g>
       <use xlink:href="#mf2b8996f62" x="47.3875" y="61.347944" style="stroke: #000000; stroke-width: 0.8"/>
      </g>
     </g>
     <g id="text_18">
      <!-- 382 -->
      <g transform="translate(21.3 65.147163) scale(0.1 -0.1)">
       <use xlink:href="#DejaVuSans-33"/>
       <use xlink:href="#DejaVuSans-38" x="63.623047"/>
       <use xlink:href="#DejaVuSans-32" x="127.246094"/>
      </g>
     </g>
    </g>
    <g id="text_19">
     <!-- Magnitude |$S_{21}|$ [μV] -->
     <g transform="translate(14.9 226.166) rotate(-90) scale(0.1 -0.1)">
      <defs>
       <path id="DejaVuSans-4d" d="M 628 4666 
L 1569 4666 
L 2759 1491 
L 3956 4666 
L 4897 4666 
L 4897 0 
L 4281 0 
L 4281 4097 
L 3078 897 
L 2444 897 
L 1241 4097 
L 1241 0 
L 628 0 
L 628 4666 
z
" transform="scale(0.015625)"/>
       <path id="DejaVuSans-67" d="M 2906 1791 
Q 2906 2416 2648 2759 
Q 2391 3103 1925 3103 
Q 1463 3103 1205 2759 
Q 947 2416 947 1791 
Q 947 1169 1205 825 
Q 1463 481 1925 481 
Q 2391 481 2648 825 
Q 2906 1169 2906 1791 
z
M 3481 434 
Q 3481 -459 3084 -895 
Q 2688 -1331 1869 -1331 
Q 1566 -1331 1297 -1286 
Q 1028 -1241 775 -1147 
L 775 -588 
Q 1028 -725 1275 -790 
Q 1522 -856 1778 -856 
Q 2344 -856 2625 -561 
Q 2906 -266 2906 331 
L 2906 616 
Q 2728 306 2450 153 
Q 2172 0 1784 0 
Q 1141 0 747 490 
Q 353 981 353 1791 
Q 353 2603 747 3093 
Q 1141 3584 1784 3584 
Q 2172 3584 2450 3431 
Q 2728 3278 2906 2969 
L 2906 3500 
L 3481 3500 
L 3481 434 
z
" transform="scale(0.015625)"/>
       <path id="DejaVuSans-6e" d="M 3513 2113 
L 3513 0 
L 2938 0 
L 2938 2094 
Q 2938 2591 2744 2837 
Q 2550 3084 2163 3084 
Q 1697 3084 1428 2787 
Q 1159 2491 1159 1978 
L 1159 0 
L 581 0 
L 581 3500 
L 1159 3500 
L 1159 2956 
Q 1366 3272 1645 3428 
Q 1925 3584 2291 3584 
Q 2894 3584 3203 3211 
Q 3513 2838 3513 2113 
z
" transform="scale(0.015625)"/>
       <path id="DejaVuSans-69" d="M 603 3500 
L 1178 3500 
L 1178 0 
L 603 0 
L 603 3500 
z
M 603 4863 
L 1178 4863 
L 1178 4134 
L 603 4134 
L 603 4863 
z
" transform="scale(0.015625)"/>
       <path id="DejaVuSans-74" d="M 1172 4494 
L 1172 3500 
L 2356 3500 
L 2356 3053 
L 1172 3053 
L 1172 1153 
Q 1172 725 1289 603 
Q 1406 481 1766 481 
L 2356 481 
L 2356 0 
L 1766 0 
Q 1100 0 847 248 
Q 594 497 594 1153 
L 594 3053 
L 172 3053 
L 172 3500 
L 594 3500 
L 594 4494 
L 1172 4494 
z
" transform="scale(0.015625)"/>
       <path id="DejaVuSans-75" d="M 544 1381 
L 544 3500 
L 1119 3500 
L 1119 1403 
Q 1119 906 1312 657 
Q 1506 409 1894 409 
Q 2359 409 2629 706 
Q 2900 1003 2900 1516 
L 2900 3500 
L 3475 3500 
L 3475 0 
L 2900 0 
L 2900 538 
Q 2691 219 2414 64 
Q 2138 -91 1772 -91 
Q 1169 -91 856 284 
Q 544 659 544 1381 
z
M 1991 3584 
L 1991 3584 
z
" transform="scale(0.015625)"/>
       <path id="DejaVuSans-64" d="M 2906 2969 
L 2906 4863 
L 3481 4863 
L 3481 0 
L 2906 0 
L 2906 525 
Q 2725 213 2448 61 
Q 2172 -91 1784 -91 
Q 1150 -91 751 415 
Q 353 922 353 1747 
Q 353 2572 751 3078 
Q 1150 3584 1784 3584 
Q 2172 3584 2448 3432 
Q 2725 3281 2906 2969 
z
M 947 1747 
Q 947 1113 1208 752 
Q 1469 391 1925 391 
Q 2381 391 2643 752 
Q 2906 1113 2906 1747 
Q 2906 2381 2643 2742 
Q 2381 3103 1925 3103 
Q 1469 3103 1208 2742 
Q 947 2381 947 1747 
z
" transform="scale(0.015625)"/>
       <path id="DejaVuSans-7c" d="M 1344 4891 
L 1344 -1509 
L 813 -1509 
L 813 4891 
L 1344 4891 
z
" transform="scale(0.015625)"/>
       <path id="DejaVuSans-Oblique-53" d="M 3859 4513 
L 3738 3897 
Q 3422 4066 3111 4152 
Q 2800 4238 2509 4238 
Q 1944 4238 1609 3991 
Q 1275 3744 1275 3334 
Q 1275 3109 1398 2989 
Q 1522 2869 2034 2731 
L 2413 2638 
Q 3053 2472 3303 2217 
Q 3553 1963 3553 1503 
Q 3553 797 2998 353 
Q 2444 -91 1538 -91 
Q 1166 -91 791 -17 
Q 416 56 38 206 
L 166 856 
Q 513 641 861 531 
Q 1209 422 1556 422 
Q 2147 422 2503 684 
Q 2859 947 2859 1369 
Q 2859 1650 2717 1795 
Q 2575 1941 2106 2059 
L 1728 2156 
Q 1081 2325 845 2545 
Q 609 2766 609 3163 
Q 609 3859 1145 4304 
Q 1681 4750 2541 4750 
Q 2875 4750 3203 4690 
Q 3531 4631 3859 4513 
z
" transform="scale(0.015625)"/>
       <path id="DejaVuSans-56" d="M 1831 0 
L 50 4666 
L 709 4666 
L 2188 738 
L 3669 4666 
L 4325 4666 
L 2547 0 
L 1831 0 
z
" transform="scale(0.015625)"/>
      </defs>
      <use xlink:href="#DejaVuSans-4d" transform="translate(0 0.578125)"/>
      <use xlink:href="#DejaVuSans-61" transform="translate(86.279297 0.578125)"/>
      <use xlink:href="#DejaVuSans-67" transform="translate(147.558594 0.578125)"/>
      <use xlink:href="#DejaVuSans-6e" transform="translate(211.035156 0.578125)"/>
      <use xlink:href="#DejaVuSans-69" transform="translate(274.414062 0.578125)"/>
      <use xlink:href="#DejaVuSans-74" transform="translate(302.197266 0.578125)"/>
      <use xlink:href="#DejaVuSans-75" transform="translate(341.40625 0.578125)"/>
      <use xlink:href="#DejaVuSans-64" transform="translate(404.785156 0.578125)"/>
      <use xlink:href="#DejaVuSans-65" transform="translate(468.261719 0.578125)"/>
      <use xlink:href="#DejaVuSans-20" transform="translate(529.785156 0.578125)"/>
      <use xlink:href="#DejaVuSans-7c" transform="translate(561.572266 0.578125)"/>
      <use xlink:href="#DejaVuSans-Oblique-53" transform="translate(595.263672 0.578125)"/>
      <use xlink:href="#DejaVuSans-32" transform="translate(658.740234 -15.828125) scale(0.7)"/>
      <use xlink:href="#DejaVuSans-31" transform="translate(703.276367 -15.828125) scale(0.7)"/>
      <use xlink:href="#DejaVuSans-7c" transform="translate(750.546875 0.578125)"/>
      <use xlink:href="#DejaVuSans-20" transform="translate(784.238281 0.578125)"/>
      <use xlink:href="#DejaVuSans-5b" transform="translate(816.025391 0.578125)"/>
      <use xlink:href="#DejaVuSans-3bc" transform="translate(855.039062 0.578125)"/>
      <use xlink:href="#DejaVuSans-56" transform="translate(918.662109 0.578125)"/>
      <use xlink:href="#DejaVuSans-5d" transform="translate(987.070312 0.578125)"/>
     </g>
    </g>
   </g>
   <g id="line2d_18">
    <defs>
     <path id="mea935e8de5" d="M 0 1.5 
C 0.397805 1.5 0.77937 1.341951 1.06066 1.06066 
C 1.341951 0.77937 1.5 0.397805 1.5 0 
C 1.5 -0.397805 1.341951 -0.77937 1.06066 -1.06066 
C 0.77937 -1.341951 0.397805 -1.5 0 -1.5 
C -0.397805 -1.5 -0.77937 -1.341951 -1.06066 -1.06066 
C -1.341951 -0.77937 -1.5 -0.397805 -1.5 0 
C -1.5 0.397805 -1.341951 0.77937 -1.06066 1.06066 
C -0.77937 1.341951 -0.397805 1.5 0 1.5 
z
" style="stroke: #1f77b4"/>
    </defs>
    <g clip-path="url(#pfe7fa10fc5)">
     <use xlink:href="#mea935e8de5" x="63.620227" y="132.021473" style="fill: #1f77b4; stroke: #1f77b4"/>
     <use xlink:href="#mea935e8de5" x="67.037644" y="150.594833" style="fill: #1f77b4; stroke: #1f77b4"/>
     <use xlink:href="#mea935e8de5" x="70.45506" y="190.466592" style="fill: #1f77b4; stroke: #1f77b4"/>
     <use xlink:href="#mea935e8de5" x="73.872476" y="194.825547" style="fill: #1f77b4; stroke: #1f77b4"/>
     <use xlink:href="#mea935e8de5" x="77.289892" y="200.113626" style="fill: #1f77b4; stroke: #1f77b4"/>
     <use xlink:href="#mea935e8de5" x="80.707309" y="142.569872" style="fill: #1f77b4; stroke: #1f77b4"/>
     <use xlink:href="#mea935e8de5" x="84.124725" y="81.417985" style="fill: #1f77b4; stroke: #1f77b4"/>
     <use xlink:href="#mea935e8de5" x="87.542141" y="119.2573" style="fill: #1f77b4; stroke: #1f77b4"/>
     <use xlink:href="#mea935e8de5" x="90.959557" y="215.060363" style="fill: #1f77b4; stroke: #1f77b4"/>
     <use xlink:href="#mea935e8de5" x="94.376974" y="208.81919" style="fill: #1f77b4; stroke: #1f77b4"/>
     <use xlink:href="#mea935e8de5" x="97.79439" y="225.655996" style="fill: #1f77b4; stroke: #1f77b4"/>
     <use xlink:href="#mea935e8de5" x="101.211806" y="151.312965" style="fill: #1f77b4; stroke: #1f77b4"/>
     <use xlink:href="#mea935e8de5" x="104.629222" y="66.121201" style="fill: #1f77b4; stroke: #1f77b4"/>
     <use xlink:href="#mea935e8de5" x="108.046639" y="83.511846" style="fill: #1f77b4; stroke: #1f77b4"/>
     <use xlink:href="#mea935e8de5" x="111.464055" y="120.344489" style="fill: #1f77b4; stroke: #1f77b4"/>
     <use xlink:href="#mea935e8de5" x="114.881471" y="181.273269" style="fill: #1f77b4; stroke: #1f77b4"/>
     <use xlink:href="#mea935e8de5" x="118.298888" y="205.767868" style="fill: #1f77b4; stroke: #1f77b4"/>
     <use xlink:href="#mea935e8de5" x="121.716304" y="215.120885" style="fill: #1f77b4; stroke: #1f77b4"/>
     <use xlink:href="#mea935e8de5" x="125.13372" y="114.48361" style="fill: #1f77b4; stroke: #1f77b4"/>
     <use xlink:href="#mea935e8de5" x="128.551136" y="68.99255" style="fill: #1f77b4; stroke: #1f77b4"/>
     <use xlink:href="#mea935e8de5" x="131.968553" y="156.692072" style="fill: #1f77b4; stroke: #1f77b4"/>
     <use xlink:href="#mea935e8de5" x="135.385969" y="196.015771" style="fill: #1f77b4; stroke: #1f77b4"/>
     <use xlink:href="#mea935e8de5" x="138.803385" y="194.185517" style="fill: #1f77b4; stroke: #1f77b4"/>
     <use xlink:href="#mea935e8de5" x="142.220801" y="224.71875" style="fill: #1f77b4; stroke: #1f77b4"/>
     <use xlink:href="#mea935e8de5" x="145.638218" y="120.711975" style="fill: #1f77b4; stroke: #1f77b4"/>
     <use xlink:href="#mea935e8de5" x="149.055634" y="53.856" style="fill: #1f77b4; stroke: #1f77b4"/>
     <use xlink:href="#mea935e8de5" x="152.47305" y="163.249112" style="fill: #1f77b4; stroke: #1f77b4"/>
     <use xlink:href="#mea935e8de5" x="155.890467" y="219.661614" style="fill: #1f77b4; stroke: #1f77b4"/>
     <use xlink:href="#mea935e8de5" x="159.307883" y="227.941292" style="fill: #1f77b4; stroke: #1f77b4"/>
     <use xlink:href="#mea935e8de5" x="162.725299" y="259.110478" style="fill: #1f77b4; stroke: #1f77b4"/>
     <use xlink:href="#mea935e8de5" x="166.142715" y="147.314161" style="fill: #1f77b4; stroke: #1f77b4"/>
     <use xlink:href="#mea935e8de5" x="169.560132" y="101.5309" style="fill: #1f77b4; stroke: #1f77b4"/>
     <use xlink:href="#mea935e8de5" x="172.977548" y="135.869639" style="fill: #1f77b4; stroke: #1f77b4"/>
     <use xlink:href="#mea935e8de5" x="176.394964" y="125.400427" style="fill: #1f77b4; stroke: #1f77b4"/>
     <use xlink:href="#mea935e8de5" x="179.81238" y="249.619066" style="fill: #1f77b4; stroke: #1f77b4"/>
     <use xlink:href="#mea935e8de5" x="183.229797" y="216.283163" style="fill: #1f77b4; stroke: #1f77b4"/>
     <use xlink:href="#mea935e8de5" x="186.647213" y="210.794931" style="fill: #1f77b4; stroke: #1f77b4"/>
     <use xlink:href="#mea935e8de5" x="190.064629" y="103.547686" style="fill: #1f77b4; stroke: #1f77b4"/>
     <use xlink:href="#mea935e8de5" x="193.482045" y="122.463917" style="fill: #1f77b4; stroke: #1f77b4"/>
     <use xlink:href="#mea935e8de5" x="196.899462" y="141.452782" style="fill: #1f77b4; stroke: #1f77b4"/>
     <use xlink:href="#mea935e8de5" x="200.316878" y="236.462728" style="fill: #1f77b4; stroke: #1f77b4"/>
     <use xlink:href="#mea935e8de5" x="203.734294" y="231.362165" style="fill: #1f77b4; stroke: #1f77b4"/>
     <use xlink:href="#mea935e8de5" x="207.151711" y="218.016912" style="fill: #1f77b4; stroke: #1f77b4"/>
     <use xlink:href="#mea935e8de5" x="210.569127" y="123.504196" style="fill: #1f77b4; stroke: #1f77b4"/>
     <use xlink:href="#mea935e8de5" x="213.986543" y="90.959489" style="fill: #1f77b4; stroke: #1f77b4"/>
     <use xlink:href="#mea935e8de5" x="217.403959" y="146.574625" style="fill: #1f77b4; stroke: #1f77b4"/>
     <use xlink:href="#mea935e8de5" x="220.821376" y="181.563712" style="fill: #1f77b4; stroke: #1f77b4"/>
     <use xlink:href="#mea935e8de5" x="224.238792" y="248.354318" style="fill: #1f77b4; stroke: #1f77b4"/>
     <use xlink:href="#mea935e8de5" x="227.656208" y="199.150996" style="fill: #1f77b4; stroke: #1f77b4"/>
     <use xlink:href="#mea935e8de5" x="231.073624" y="184.973978" style="fill: #1f77b4; stroke: #1f77b4"/>
     <use xlink:href="#mea935e8de5" x="234.491041" y="100.597011" style="fill: #1f77b4; stroke: #1f77b4"/>
     <use xlink:href="#mea935e8de5" x="237.908457" y="89.402893" style="fill: #1f77b4; stroke: #1f77b4"/>
     <use xlink:href="#mea935e8de5" x="241.325873" y="181.082876" style="fill: #1f77b4; stroke: #1f77b4"/>
     <use xlink:href="#mea935e8de5" x="244.743289" y="165.529089" style="fill: #1f77b4; stroke: #1f77b4"/>
     <use xlink:href="#mea935e8de5" x="248.160706" y="239.669187" style="fill: #1f77b4; stroke: #1f77b4"/>
     <use xlink:href="#mea935e8de5" x="251.578122" y="189.310714" style="fill: #1f77b4; stroke: #1f77b4"/>
     <use xlink:href="#mea935e8de5" x="254.995538" y="99.208696" style="fill: #1f77b4; stroke: #1f77b4"/>
     <use xlink:href="#mea935e8de5" x="258.412955" y="136.598498" style="fill: #1f77b4; stroke: #1f77b4"/>
     <use xlink:href="#mea935e8de5" x="261.830371" y="184.641868" style="fill: #1f77b4; stroke: #1f77b4"/>
     <use xlink:href="#mea935e8de5" x="265.247787" y="231.550134" style="fill: #1f77b4; stroke: #1f77b4"/>
     <use xlink:href="#mea935e8de5" x="268.665203" y="295.776" style="fill: #1f77b4; stroke: #1f77b4"/>
     <use xlink:href="#mea935e8de5" x="272.08262" y="166.407695" style="fill: #1f77b4; stroke: #1f77b4"/>
     <use xlink:href="#mea935e8de5" x="275.500036" y="131.929517" style="fill: #1f77b4; stroke: #1f77b4"/>
     <use xlink:href="#mea935e8de5" x="278.917452" y="146.814156" style="fill: #1f77b4; stroke: #1f77b4"/>
     <use xlink:href="#mea935e8de5" x="282.334868" y="159.194544" style="fill: #1f77b4; stroke: #1f77b4"/>
     <use xlink:href="#mea935e8de5" x="285.752285" y="216.463575" style="fill: #1f77b4; stroke: #1f77b4"/>
     <use xlink:href="#mea935e8de5" x="289.169701" y="190.391022" style="fill: #1f77b4; stroke: #1f77b4"/>
     <use xlink:href="#mea935e8de5" x="292.587117" y="206.420715" style="fill: #1f77b4; stroke: #1f77b4"/>
     <use xlink:href="#mea935e8de5" x="296.004533" y="162.701038" style="fill: #1f77b4; stroke: #1f77b4"/>
     <use xlink:href="#mea935e8de5" x="299.42195" y="98.958309" style="fill: #1f77b4; stroke: #1f77b4"/>
     <use xlink:href="#mea935e8de5" x="302.839366" y="172.359523" style="fill: #1f77b4; stroke: #1f77b4"/>
     <use xlink:href="#mea935e8de5" x="306.256782" y="176.645351" style="fill: #1f77b4; stroke: #1f77b4"/>
     <use xlink:href="#mea935e8de5" x="309.674199" y="182.946921" style="fill: #1f77b4; stroke: #1f77b4"/>
     <use xlink:href="#mea935e8de5" x="313.091615" y="224.733477" style="fill: #1f77b4; stroke: #1f77b4"/>
     <use xlink:href="#mea935e8de5" x="316.509031" y="152.710014" style="fill: #1f77b4; stroke: #1f77b4"/>
     <use xlink:href="#mea935e8de5" x="319.926447" y="75.902792" style="fill: #1f77b4; stroke: #1f77b4"/>
     <use xlink:href="#mea935e8de5" x="323.343864" y="185.012556" style="fill: #1f77b4; stroke: #1f77b4"/>
     <use xlink:href="#mea935e8de5" x="326.76128" y="179.614477" style="fill: #1f77b4; stroke: #1f77b4"/>
     <use xlink:href="#mea935e8de5" x="330.178696" y="219.461327" style="fill: #1f77b4; stroke: #1f77b4"/>
     <use xlink:href="#mea935e8de5" x="333.596112" y="237.597438" style="fill: #1f77b4; stroke: #1f77b4"/>
     <use xlink:href="#mea935e8de5" x="337.013529" y="125.964312" style="fill: #1f77b4; stroke: #1f77b4"/>
     <use xlink:href="#mea935e8de5" x="340.430945" y="99.928158" style="fill: #1f77b4; stroke: #1f77b4"/>
     <use xlink:href="#mea935e8de5" x="343.848361" y="135.805227" style="fill: #1f77b4; stroke: #1f77b4"/>
     <use xlink:href="#mea935e8de5" x="347.265778" y="232.851101" style="fill: #1f77b4; stroke: #1f77b4"/>
     <use xlink:href="#mea935e8de5" x="350.683194" y="232.678142" style="fill: #1f77b4; stroke: #1f77b4"/>
     <use xlink:href="#mea935e8de5" x="354.10061" y="233.711214" style="fill: #1f77b4; stroke: #1f77b4"/>
     <use xlink:href="#mea935e8de5" x="357.518026" y="159.70141" style="fill: #1f77b4; stroke: #1f77b4"/>
     <use xlink:href="#mea935e8de5" x="360.935443" y="82.125043" style="fill: #1f77b4; stroke: #1f77b4"/>
     <use xlink:href="#mea935e8de5" x="364.352859" y="151.725881" style="fill: #1f77b4; stroke: #1f77b4"/>
     <use xlink:href="#mea935e8de5" x="367.770275" y="123.156698" style="fill: #1f77b4; stroke: #1f77b4"/>
     <use xlink:href="#mea935e8de5" x="371.187691" y="208.615722" style="fill: #1f77b4; stroke: #1f77b4"/>
     <use xlink:href="#mea935e8de5" x="374.605108" y="214.536235" style="fill: #1f77b4; stroke: #1f77b4"/>
     <use xlink:href="#mea935e8de5" x="378.022524" y="128.232598" style="fill: #1f77b4; stroke: #1f77b4"/>
     <use xlink:href="#mea935e8de5" x="381.43994" y="150.288892" style="fill: #1f77b4; stroke: #1f77b4"/>
     <use xlink:href="#mea935e8de5" x="384.857356" y="90.881076" style="fill: #1f77b4; stroke: #1f77b4"/>
     <use xlink:href="#mea935e8de5" x="388.274773" y="163.410536" style="fill: #1f77b4; stroke: #1f77b4"/>
    </g>
   </g>
   <g id="line2d_19">
    <path d="M 63.620227 101.360611 
L 63.945207 100.65951 
L 64.270186 100.575199 
L 64.595166 101.108235 
L 64.920145 102.253527 
L 65.570104 106.332622 
L 66.220063 112.661935 
L 66.870023 121.008885 
L 67.844961 136.625498 
L 69.469859 167.600703 
L 71.419736 204.205493 
L 72.394674 218.762036 
L 73.044633 226.214169 
L 73.694593 231.538607 
L 74.344552 234.542491 
L 74.669531 235.137026 
L 74.994511 235.117797 
L 75.31949 234.485192 
L 75.64447 233.245213 
L 76.294429 228.99479 
L 76.944388 222.523317 
L 77.919326 209.191755 
L 79.219244 186.435303 
L 82.46904 126.066705 
L 83.443978 113.080374 
L 84.093937 106.87793 
L 84.743896 102.912947 
L 85.068876 101.817601 
L 85.393855 101.328588 
L 85.718835 101.450171 
L 86.043814 102.181025 
L 86.368794 103.514253 
L 87.018753 107.932821 
L 87.668712 114.542964 
L 88.643651 128.016579 
L 89.943569 150.823187 
L 92.868385 205.574369 
L 93.843323 219.558402 
L 94.493282 226.589847 
L 95.143241 231.480177 
L 95.468221 233.063854 
L 95.7932 234.052388 
L 96.11818 234.436941 
L 96.443159 234.214208 
L 96.768139 233.386436 
L 97.093118 231.961407 
L 97.743077 227.377889 
L 98.393036 220.632568 
L 99.367975 207.022411 
L 100.667893 184.172806 
L 103.592709 129.89226 
L 104.567647 116.195679 
L 105.217606 109.374055 
L 105.867566 104.699217 
L 106.192545 103.222953 
L 106.517525 102.340299 
L 106.842504 102.059123 
L 107.167484 102.381789 
L 107.492463 103.305134 
L 107.817443 104.820504 
L 108.467402 109.565767 
L 109.117361 116.442777 
L 110.092299 130.183987 
L 111.392217 153.0695 
L 114.317033 206.869104 
L 115.291972 220.277559 
L 115.941931 226.889785 
L 116.59189 231.35024 
L 116.916869 232.719891 
L 117.241849 233.497618 
L 117.566828 233.676513 
L 117.891808 233.255149 
L 118.216787 232.237588 
L 118.541767 230.633345 
L 119.191726 225.729552 
L 119.841685 218.724343 
L 120.816624 204.857543 
L 122.116542 181.943141 
L 124.716378 133.789702 
L 125.691317 119.455218 
L 126.341276 112.056381 
L 126.991235 106.706828 
L 127.641194 103.600388 
L 127.966173 102.926614 
L 128.291153 102.848884 
L 128.616132 103.367699 
L 128.941112 104.478108 
L 129.591071 108.426939 
L 130.24103 114.549637 
L 130.890989 122.621217 
L 131.865928 137.718544 
L 133.490825 167.655228 
L 135.440702 203.021324 
L 136.415641 217.080434 
L 137.0656 224.27558 
L 137.715559 229.413966 
L 138.365518 232.309475 
L 138.690498 232.880286 
L 139.015477 232.857984 
L 139.340457 232.242979 
L 139.665436 231.041103 
L 140.315395 226.926793 
L 140.965354 220.666818 
L 141.940293 207.776165 
L 143.240211 185.779312 
L 146.490006 127.450609 
L 147.464945 114.909685 
L 148.114904 108.922554 
L 148.764863 105.098107 
L 149.089842 104.043289 
L 149.414822 103.574431 
L 149.739801 103.695618 
L 150.064781 104.405537 
L 150.38976 105.697489 
L 151.039719 109.974203 
L 151.689679 116.368081 
L 152.664617 129.395833 
L 153.964535 151.440904 
L 156.889351 204.34305 
L 157.86429 217.848748 
L 158.514249 224.637307 
L 159.164208 229.356185 
L 159.489187 230.882973 
L 159.814167 231.834587 
L 160.139146 232.20252 
L 160.464126 231.983611 
L 160.789105 231.180066 
L 161.114085 229.799438 
L 161.764044 225.36341 
L 162.414003 218.839003 
L 163.388941 205.679477 
L 164.68886 183.593105 
L 167.613675 131.146221 
L 168.588614 117.918382 
L 169.238573 111.332609 
L 169.888532 106.821972 
L 170.213511 105.398973 
L 170.538491 104.549662 
L 170.863471 104.281608 
L 171.18845 104.597061 
L 171.51343 105.492932 
L 171.838409 106.960825 
L 172.488368 111.55307 
L 173.138327 118.204632 
L 174.113266 131.490628 
L 175.413184 153.611452 
L 178.338 205.593121 
L 179.312938 218.542453 
L 179.962897 224.925852 
L 180.612856 229.229322 
L 180.937836 230.549303 
L 181.262815 231.297234 
L 181.587795 231.466471 
L 181.912774 231.055667 
L 182.237754 230.068782 
L 182.562733 228.515043 
L 183.212692 223.769691 
L 183.862652 216.994344 
L 184.83759 203.587158 
L 186.137508 181.438664 
L 188.737344 134.911454 
L 189.712283 121.066592 
L 190.362242 113.922712 
L 191.012201 108.759819 
L 191.66216 105.764977 
L 191.98714 105.117486 
L 192.312119 105.045988 
L 192.637099 105.550936 
L 192.962078 106.627512 
L 193.612037 110.450226 
L 194.261996 116.373045 
L 194.911955 124.178333 
L 195.886894 138.773633 
L 197.511792 167.706604 
L 199.461669 201.875908 
L 200.436607 215.454576 
L 201.086566 222.40159 
L 201.736525 227.360415 
L 202.386484 230.151441 
L 202.711464 230.699451 
L 203.036443 230.674305 
L 203.361423 230.076432 
L 203.686403 228.9115 
L 204.336362 224.928956 
L 204.986321 218.873575 
L 205.961259 206.40926 
L 207.261177 185.14666 
L 210.510973 128.788943 
L 211.485911 116.678159 
L 212.13587 110.898875 
L 212.785829 107.209998 
L 213.110809 106.19422 
L 213.435788 105.744714 
L 213.760768 105.865394 
L 214.085747 106.554959 
L 214.410727 107.806903 
L 215.060686 111.946303 
L 215.710645 118.130984 
L 216.685584 130.727619 
L 217.985502 152.036572 
L 220.910317 203.152109 
L 221.885256 216.195825 
L 222.535215 222.749879 
L 223.185174 227.303305 
L 223.510154 228.77524 
L 223.835133 229.691299 
L 224.160113 230.043295 
L 224.485092 229.828205 
L 224.810072 229.048194 
L 225.135051 227.710593 
L 225.78501 223.417321 
L 226.434969 217.106601 
L 227.409908 204.382794 
L 228.709826 183.034171 
L 231.634642 132.359025 
L 232.60958 119.583894 
L 233.259539 113.225825 
L 233.909498 108.873634 
L 234.234478 107.501988 
L 234.559457 106.684775 
L 234.884437 106.429278 
L 235.209416 106.737638 
L 235.534396 107.606838 
L 235.859376 109.028733 
L 236.509335 113.472882 
L 237.159294 119.90638 
L 238.134232 132.752233 
L 239.43415 154.133909 
L 242.358966 204.359055 
L 243.333905 216.864977 
L 243.983864 223.02746 
L 244.633823 227.179456 
L 244.958802 228.451561 
L 245.283782 229.170819 
L 245.608761 229.330845 
L 245.933741 228.930368 
L 246.25872 227.973247 
L 246.5837 226.468431 
L 247.233659 221.87641 
L 247.883618 215.323392 
L 248.858557 202.360595 
L 250.158475 180.952417 
L 252.758311 135.996531 
L 253.733249 122.624576 
L 254.383208 115.726874 
L 255.033167 110.744138 
L 255.683127 107.856902 
L 256.008106 107.234688 
L 256.333086 107.169091 
L 256.658065 107.660518 
L 256.983045 108.704279 
L 257.633004 112.40489 
L 258.282963 118.134347 
L 258.932922 125.682122 
L 259.90786 139.792081 
L 261.532758 167.754981 
L 263.482635 200.767981 
L 264.457574 213.882616 
L 265.107533 220.590047 
L 265.757492 225.375576 
L 266.407451 228.065871 
L 266.73243 228.591968 
L 267.05741 228.564195 
L 267.382389 227.982998 
L 267.707369 226.853885 
L 268.357328 222.9989 
L 269.007287 217.141435 
L 269.982226 205.089365 
L 271.282144 184.536519 
L 274.531939 130.083207 
L 275.506878 118.387819 
L 276.156837 112.809175 
L 276.806796 109.251075 
L 277.131775 108.272905 
L 277.456755 107.841979 
L 277.781734 107.962049 
L 278.106714 108.631825 
L 278.431693 109.844989 
L 279.081652 113.851474 
L 279.731611 119.833795 
L 280.70655 132.013569 
L 282.006468 152.610975 
L 284.931284 202.000223 
L 285.906222 214.597751 
L 286.556181 220.925394 
L 287.20614 225.319158 
L 287.53112 226.738202 
L 287.8561 227.620021 
L 288.181079 227.956736 
L 288.506059 227.745457 
L 288.831038 226.988306 
L 289.156018 225.6924 
L 289.805977 221.537301 
L 290.455936 215.433277 
L 291.430874 203.130772 
L 292.730792 182.495263 
L 295.655608 133.53202 
L 296.630547 121.194113 
L 297.280506 115.055883 
L 297.930465 110.856582 
L 298.255444 109.534445 
L 298.580424 108.748133 
L 298.905403 108.50465 
L 299.230383 108.806037 
L 299.555362 109.649346 
L 299.880342 111.026676 
L 300.530301 115.327495 
L 301.18026 121.550071 
L 302.155199 133.970353 
L 303.455117 154.637571 
L 306.379932 203.16553 
L 307.354871 215.243216 
L 308.00483 221.192421 
L 308.654789 225.198264 
L 308.979769 226.424218 
L 309.304748 227.115888 
L 309.629728 227.267131 
L 309.954707 226.876752 
L 310.279687 225.94851 
L 310.604666 224.491083 
L 311.254625 220.04745 
L 311.904584 213.709472 
L 312.879523 201.176342 
L 314.179441 180.483745 
L 316.779277 137.046132 
L 317.754216 124.130938 
L 318.404175 117.470938 
L 319.054134 112.662082 
L 319.704093 109.878602 
L 320.029072 109.280696 
L 320.354052 109.220684 
L 320.679032 109.698927 
L 321.004011 110.710864 
L 321.65397 114.293258 
L 322.303929 119.835659 
L 322.953888 127.134409 
L 323.928827 140.775159 
L 325.553724 167.800503 
L 327.503602 199.696315 
L 328.47854 212.362768 
L 329.128499 218.838872 
L 329.778458 223.457151 
L 330.428417 226.050333 
L 330.753397 226.555372 
L 331.078376 226.525178 
L 331.403356 225.960211 
L 331.728335 224.865826 
L 332.378294 221.134326 
L 333.028253 215.468316 
L 334.003192 203.814867 
L 335.30311 183.94809 
L 338.552905 131.334851 
L 339.527844 120.040619 
L 340.177803 114.655659 
L 340.827762 111.223712 
L 341.152742 110.281769 
L 341.477721 109.868682 
L 341.802701 109.988046 
L 342.12768 110.638584 
L 342.45266 111.81416 
L 343.102619 115.691986 
L 343.752578 121.47856 
L 344.727516 133.255261 
L 346.027434 153.164871 
L 348.95225 200.886111 
L 349.927189 213.052706 
L 350.577148 219.161752 
L 351.227107 223.401444 
L 351.552086 224.769488 
L 351.877066 225.618335 
L 352.202045 225.940398 
L 352.527025 225.732917 
L 352.852005 224.997972 
L 353.176984 223.742471 
L 353.826943 219.721108 
L 354.476902 213.817017 
L 355.451841 201.921872 
L 356.751759 181.975666 
L 359.676575 134.666514 
L 360.651513 122.750874 
L 361.301472 116.82489 
L 361.951431 112.773119 
L 362.276411 111.498712 
L 362.60139 110.742145 
L 362.92637 110.510159 
L 363.251349 110.804692 
L 363.576329 111.622868 
L 363.901308 112.957021 
L 364.551267 117.119121 
L 365.201226 123.137683 
L 366.176165 135.146486 
L 367.476083 155.12311 
L 370.400899 202.011215 
L 371.375837 213.675321 
L 372.025796 219.418621 
L 372.675756 223.283446 
L 373.000735 224.464915 
L 373.325715 225.130037 
L 373.650694 225.272907 
L 373.975674 224.8924 
L 374.300653 223.992178 
L 374.625633 222.580657 
L 375.275592 218.280626 
L 375.925551 212.150638 
L 376.900489 200.032941 
L 378.200407 180.032015 
L 380.800244 138.061414 
L 381.775182 125.587388 
L 382.425141 119.156905 
L 383.0751 114.51587 
L 383.725059 111.832432 
L 384.050039 111.257904 
L 384.375018 111.203175 
L 384.699998 111.668565 
L 385.024977 112.649636 
L 385.674937 116.117579 
L 386.324896 121.479021 
L 386.974855 128.536958 
L 387.949793 141.724095 
L 388.274773 146.654872 
L 388.274773 146.654872 
" clip-path="url(#pfe7fa10fc5)" style="fill: none; stroke: #d62728; stroke-width: 1.5; stroke-linecap: square"/>
   </g>
   <g id="patch_3">
    <path d="M 47.3875 307.872 
L 47.3875 41.76 
" style="fill: none; stroke: #000000; stroke-width: 0.8; stroke-linejoin: miter; stroke-linecap: square"/>
   </g>
   <g id="patch_4">
    <path d="M 404.5075 307.872 
L 404.5075 41.76 
" style="fill: none; stroke: #000000; stroke-width: 0.8; stroke-linejoin: miter; stroke-linecap: square"/>
   </g>
   <g id="patch_5">
    <path d="M 47.3875 307.872 
L 404.5075 307.872 
" style="fill: none; stroke: #000000; stroke-width: 0.8; stroke-linejoin: miter; stroke-linecap: square"/>
   </g>
   <g id="patch_6">
    <path d="M 47.3875 41.76 
L 404.5075 41.76 
" style="fill: none; stroke: #000000; stroke-width: 0.8; stroke-linejoin: miter; stroke-linecap: square"/>
   </g>
   <g id="text_20">
    <g id="patch_7">
     <path d="M 422.3635 138.497163 
L 581.3635 138.497163 
Q 585.3635 138.497163 585.3635 134.497163 
L 585.3635 55.0656 
Q 585.3635 51.0656 581.3635 51.0656 
L 422.3635 51.0656 
Q 418.3635 51.0656 418.3635 55.0656 
L 418.3635 134.497163 
Q 418.3635 138.497163 422.3635 138.497163 
z
" style="fill: #ffffff; opacity: 0.5; stroke: #000000; stroke-linejoin: miter"/>
    </g>
    <!-- Summary -->
    <g transform="translate(422.3635 62.664038) scale(0.1 -0.1)">
     <defs>
      <path id="DejaVuSans-53" d="M 3425 4513 
L 3425 3897 
Q 3066 4069 2747 4153 
Q 2428 4238 2131 4238 
Q 1616 4238 1336 4038 
Q 1056 3838 1056 3469 
Q 1056 3159 1242 3001 
Q 1428 2844 1947 2747 
L 2328 2669 
Q 3034 2534 3370 2195 
Q 3706 1856 3706 1288 
Q 3706 609 3251 259 
Q 2797 -91 1919 -91 
Q 1588 -91 1214 -16 
Q 841 59 441 206 
L 441 856 
Q 825 641 1194 531 
Q 1563 422 1919 422 
Q 2459 422 2753 634 
Q 3047 847 3047 1241 
Q 3047 1584 2836 1778 
Q 2625 1972 2144 2069 
L 1759 2144 
Q 1053 2284 737 2584 
Q 422 2884 422 3419 
Q 422 4038 858 4394 
Q 1294 4750 2059 4750 
Q 2388 4750 2728 4690 
Q 3069 4631 3425 4513 
z
" transform="scale(0.015625)"/>
      <path id="DejaVuSans-6d" d="M 3328 2828 
Q 3544 3216 3844 3400 
Q 4144 3584 4550 3584 
Q 5097 3584 5394 3201 
Q 5691 2819 5691 2113 
L 5691 0 
L 5113 0 
L 5113 2094 
Q 5113 2597 4934 2840 
Q 4756 3084 4391 3084 
Q 3944 3084 3684 2787 
Q 3425 2491 3425 1978 
L 3425 0 
L 2847 0 
L 2847 2094 
Q 2847 2600 2669 2842 
Q 2491 3084 2119 3084 
Q 1678 3084 1418 2786 
Q 1159 2488 1159 1978 
L 1159 0 
L 581 0 
L 581 3500 
L 1159 3500 
L 1159 2956 
Q 1356 3278 1631 3431 
Q 1906 3584 2284 3584 
Q 2666 3584 2933 3390 
Q 3200 3197 3328 2828 
z
" transform="scale(0.015625)"/>
      <path id="DejaVuSans-72" d="M 2631 2963 
Q 2534 3019 2420 3045 
Q 2306 3072 2169 3072 
Q 1681 3072 1420 2755 
Q 1159 2438 1159 1844 
L 1159 0 
L 581 0 
L 581 3500 
L 1159 3500 
L 1159 2956 
Q 1341 3275 1631 3429 
Q 1922 3584 2338 3584 
Q 2397 3584 2469 3576 
Q 2541 3569 2628 3553 
L 2631 2963 
z
" transform="scale(0.015625)"/>
     </defs>
     <use xlink:href="#DejaVuSans-53"/>
     <use xlink:href="#DejaVuSans-75" x="63.476562"/>
     <use xlink:href="#DejaVuSans-6d" x="126.855469"/>
     <use xlink:href="#DejaVuSans-6d" x="224.267578"/>
     <use xlink:href="#DejaVuSans-61" x="321.679688"/>
     <use xlink:href="#DejaVuSans-72" x="382.958984"/>
     <use xlink:href="#DejaVuSans-79" x="424.072266"/>
    </g>
    <!-- $T_2^*$: 1.1e+02$\pm$1.4e+02 μs -->
    <g transform="translate(422.3635 75.663725) scale(0.1 -0.1)">
     <defs>
      <path id="DejaVuSans-Oblique-54" d="M 378 4666 
L 4325 4666 
L 4225 4134 
L 2559 4134 
L 1759 0 
L 1125 0 
L 1925 4134 
L 275 4134 
L 378 4666 
z
" transform="scale(0.015625)"/>
      <path id="DejaVuSans-2a" d="M 3009 3897 
L 1888 3291 
L 3009 2681 
L 2828 2375 
L 1778 3009 
L 1778 1831 
L 1422 1831 
L 1422 3009 
L 372 2375 
L 191 2681 
L 1313 3291 
L 191 3897 
L 372 4206 
L 1422 3572 
L 1422 4750 
L 1778 4750 
L 1778 3572 
L 2828 4206 
L 3009 3897 
z
" transform="scale(0.015625)"/>
      <path id="DejaVuSans-3a" d="M 750 794 
L 1409 794 
L 1409 0 
L 750 0 
L 750 794 
z
M 750 3309 
L 1409 3309 
L 1409 2516 
L 750 2516 
L 750 3309 
z
" transform="scale(0.015625)"/>
      <path id="DejaVuSans-2b" d="M 2944 4013 
L 2944 2272 
L 4684 2272 
L 4684 1741 
L 2944 1741 
L 2944 0 
L 2419 0 
L 2419 1741 
L 678 1741 
L 678 2272 
L 2419 2272 
L 2419 4013 
L 2944 4013 
z
" transform="scale(0.015625)"/>
      <path id="DejaVuSans-b1" d="M 2944 4013 
L 2944 2803 
L 4684 2803 
L 4684 2272 
L 2944 2272 
L 2944 1063 
L 2419 1063 
L 2419 2272 
L 678 2272 
L 678 2803 
L 2419 2803 
L 2419 4013 
L 2944 4013 
z
M 678 531 
L 4684 531 
L 4684 0 
L 678 0 
L 678 531 
z
" transform="scale(0.015625)"/>
     </defs>
     <use xlink:href="#DejaVuSans-Oblique-54" transform="translate(0 0.765625)"/>
     <use xlink:href="#DejaVuSans-2a" transform="translate(81.738451 39.046875) scale(0.7)"/>
     <use xlink:href="#DejaVuSans-32" transform="translate(61.083984 -26.578125) scale(0.7)"/>
     <use xlink:href="#DejaVuSans-3a" transform="translate(133.110521 0.765625)"/>
     <use xlink:href="#DejaVuSans-20" transform="translate(166.801927 0.765625)"/>
     <use xlink:href="#DejaVuSans-31" transform="translate(198.589036 0.765625)"/>
     <use xlink:href="#DejaVuSans-2e" transform="translate(262.212083 0.765625)"/>
     <use xlink:href="#DejaVuSans-31" transform="translate(293.999193 0.765625)"/>
     <use xlink:href="#DejaVuSans-65" transform="translate(357.62224 0.765625)"/>
     <use xlink:href="#DejaVuSans-2b" transform="translate(419.145677 0.765625)"/>
     <use xlink:href="#DejaVuSans-30" transform="translate(502.93474 0.765625)"/>
     <use xlink:href="#DejaVuSans-32" transform="translate(566.557786 0.765625)"/>
     <use xlink:href="#DejaVuSans-b1" transform="translate(630.180833 0.765625)"/>
     <use xlink:href="#DejaVuSans-31" transform="translate(713.969896 0.765625)"/>
     <use xlink:href="#DejaVuSans-2e" transform="translate(777.592943 0.765625)"/>
     <use xlink:href="#DejaVuSans-34" transform="translate(809.380052 0.765625)"/>
     <use xlink:href="#DejaVuSans-65" transform="translate(873.003099 0.765625)"/>
     <use xlink:href="#DejaVuSans-2b" transform="translate(934.526536 0.765625)"/>
     <use xlink:href="#DejaVuSans-30" transform="translate(1018.315599 0.765625)"/>
     <use xlink:href="#DejaVuSans-32" transform="translate(1081.938646 0.765625)"/>
     <use xlink:href="#DejaVuSans-20" transform="translate(1145.561693 0.765625)"/>
     <use xlink:href="#DejaVuSans-3bc" transform="translate(1177.348802 0.765625)"/>
     <use xlink:href="#DejaVuSans-73" transform="translate(1240.971849 0.765625)"/>
    </g>
    <!--  -->
    <g transform="translate(422.3635 87.58185) scale(0.1 -0.1)"/>
    <!-- artificial detuning: 0 Hz -->
    <g transform="translate(422.3635 98.779663) scale(0.1 -0.1)">
     <defs>
      <path id="DejaVuSans-66" d="M 2375 4863 
L 2375 4384 
L 1825 4384 
Q 1516 4384 1395 4259 
Q 1275 4134 1275 3809 
L 1275 3500 
L 2222 3500 
L 2222 3053 
L 1275 3053 
L 1275 0 
L 697 0 
L 697 3053 
L 147 3053 
L 147 3500 
L 697 3500 
L 697 3744 
Q 697 4328 969 4595 
Q 1241 4863 1831 4863 
L 2375 4863 
z
" transform="scale(0.015625)"/>
      <path id="DejaVuSans-63" d="M 3122 3366 
L 3122 2828 
Q 2878 2963 2633 3030 
Q 2388 3097 2138 3097 
Q 1578 3097 1268 2742 
Q 959 2388 959 1747 
Q 959 1106 1268 751 
Q 1578 397 2138 397 
Q 2388 397 2633 464 
Q 2878 531 3122 666 
L 3122 134 
Q 2881 22 2623 -34 
Q 2366 -91 2075 -91 
Q 1284 -91 818 406 
Q 353 903 353 1747 
Q 353 2603 823 3093 
Q 1294 3584 2113 3584 
Q 2378 3584 2631 3529 
Q 2884 3475 3122 3366 
z
" transform="scale(0.015625)"/>
      <path id="DejaVuSans-48" d="M 628 4666 
L 1259 4666 
L 1259 2753 
L 3553 2753 
L 3553 4666 
L 4184 4666 
L 4184 0 
L 3553 0 
L 3553 2222 
L 1259 2222 
L 1259 0 
L 628 0 
L 628 4666 
z
" transform="scale(0.015625)"/>
      <path id="DejaVuSans-7a" d="M 353 3500 
L 3084 3500 
L 3084 2975 
L 922 459 
L 3084 459 
L 3084 0 
L 275 0 
L 275 525 
L 2438 3041 
L 353 3041 
L 353 3500 
z
" transform="scale(0.015625)"/>
     </defs>
     <use xlink:href="#DejaVuSans-61"/>
     <use xlink:href="#DejaVuSans-72" x="61.279297"/>
     <use xlink:href="#DejaVuSans-74" x="102.392578"/>
     <use xlink:href="#DejaVuSans-69" x="141.601562"/>
     <use xlink:href="#DejaVuSans-66" x="169.384766"/>
     <use xlink:href="#DejaVuSans-69" x="204.589844"/>
     <use xlink:href="#DejaVuSans-63" x="232.373047"/>
     <use xlink:href="#DejaVuSans-69" x="287.353516"/>
     <use xlink:href="#DejaVuSans-61" x="315.136719"/>
     <use xlink:href="#DejaVuSans-6c" x="376.416016"/>
     <use xlink:href="#DejaVuSans-20" x="404.199219"/>
     <use xlink:href="#DejaVuSans-64" x="435.986328"/>
     <use xlink:href="#DejaVuSans-65" x="499.462891"/>
     <use xlink:href="#DejaVuSans-74" x="560.986328"/>
     <use xlink:href="#DejaVuSans-75" x="600.195312"/>
     <use xlink:href="#DejaVuSans-6e" x="663.574219"/>
     <use xlink:href="#DejaVuSans-69" x="726.953125"/>
     <use xlink:href="#DejaVuSans-6e" x="754.736328"/>
     <use xlink:href="#DejaVuSans-67" x="818.115234"/>
     <use xlink:href="#DejaVuSans-3a" x="881.591797"/>
     <use xlink:href="#DejaVuSans-20" x="915.283203"/>
     <use xlink:href="#DejaVuSans-30" x="947.070312"/>
     <use xlink:href="#DejaVuSans-20" x="1010.693359"/>
     <use xlink:href="#DejaVuSans-48" x="1042.480469"/>
     <use xlink:href="#DejaVuSans-7a" x="1117.675781"/>
    </g>
    <!-- fitted detuning: 800.7$\pm$1.9 kHz -->
    <g transform="translate(422.3635 109.97935) scale(0.1 -0.1)">
     <defs>
      <path id="DejaVuSans-6b" d="M 581 4863 
L 1159 4863 
L 1159 1991 
L 2875 3500 
L 3609 3500 
L 1753 1863 
L 3688 0 
L 2938 0 
L 1159 1709 
L 1159 0 
L 581 0 
L 581 4863 
z
" transform="scale(0.015625)"/>
     </defs>
     <use xlink:href="#DejaVuSans-66" transform="translate(0 0.015625)"/>
     <use xlink:href="#DejaVuSans-69" transform="translate(35.205078 0.015625)"/>
     <use xlink:href="#DejaVuSans-74" transform="translate(62.988281 0.015625)"/>
     <use xlink:href="#DejaVuSans-74" transform="translate(102.197266 0.015625)"/>
     <use xlink:href="#DejaVuSans-65" transform="translate(141.40625 0.015625)"/>
     <use xlink:href="#DejaVuSans-64" transform="translate(202.929688 0.015625)"/>
     <use xlink:href="#DejaVuSans-20" transform="translate(266.40625 0.015625)"/>
     <use xlink:href="#DejaVuSans-64" transform="translate(298.193359 0.015625)"/>
     <use xlink:href="#DejaVuSans-65" transform="translate(361.669922 0.015625)"/>
     <use xlink:href="#DejaVuSans-74" transform="translate(423.193359 0.015625)"/>
     <use xlink:href="#DejaVuSans-75" transform="translate(462.402344 0.015625)"/>
     <use xlink:href="#DejaVuSans-6e" transform="translate(525.78125 0.015625)"/>
     <use xlink:href="#DejaVuSans-69" transform="translate(589.160156 0.015625)"/>
     <use xlink:href="#DejaVuSans-6e" transform="translate(616.943359 0.015625)"/>
     <use xlink:href="#DejaVuSans-67" transform="translate(680.322266 0.015625)"/>
     <use xlink:href="#DejaVuSans-3a" transform="translate(743.798828 0.015625)"/>
     <use xlink:href="#DejaVuSans-20" transform="translate(777.490234 0.015625)"/>
     <use xlink:href="#DejaVuSans-38" transform="translate(809.277344 0.015625)"/>
     <use xlink:href="#DejaVuSans-30" transform="translate(872.900391 0.015625)"/>
     <use xlink:href="#DejaVuSans-30" transform="translate(936.523438 0.015625)"/>
     <use xlink:href="#DejaVuSans-2e" transform="translate(1000.146484 0.015625)"/>
     <use xlink:href="#DejaVuSans-37" transform="translate(1024.183594 0.015625)"/>
     <use xlink:href="#DejaVuSans-b1" transform="translate(1087.806641 0.015625)"/>
     <use xlink:href="#DejaVuSans-31" transform="translate(1171.595703 0.015625)"/>
     <use xlink:href="#DejaVuSans-2e" transform="translate(1235.21875 0.015625)"/>
     <use xlink:href="#DejaVuSans-39" transform="translate(1267.005859 0.015625)"/>
     <use xlink:href="#DejaVuSans-20" transform="translate(1330.628906 0.015625)"/>
     <use xlink:href="#DejaVuSans-6b" transform="translate(1362.416016 0.015625)"/>
     <use xlink:href="#DejaVuSans-48" transform="translate(1420.326172 0.015625)"/>
     <use xlink:href="#DejaVuSans-7a" transform="translate(1495.521484 0.015625)"/>
    </g>
    <!-- actual detuning: 800.7$\pm$1.9 kHz -->
    <g transform="translate(422.3635 121.19935) scale(0.1 -0.1)">
     <use xlink:href="#DejaVuSans-61" transform="translate(0 0.015625)"/>
     <use xlink:href="#DejaVuSans-63" transform="translate(61.279297 0.015625)"/>
     <use xlink:href="#DejaVuSans-74" transform="translate(116.259766 0.015625)"/>
     <use xlink:href="#DejaVuSans-75" transform="translate(155.46875 0.015625)"/>
     <use xlink:href="#DejaVuSans-61" transform="translate(218.847656 0.015625)"/>
     <use xlink:href="#DejaVuSans-6c" transform="translate(280.126953 0.015625)"/>
     <use xlink:href="#DejaVuSans-20" transform="translate(307.910156 0.015625)"/>
     <use xlink:href="#DejaVuSans-64" transform="translate(339.697266 0.015625)"/>
     <use xlink:href="#DejaVuSans-65" transform="translate(403.173828 0.015625)"/>
     <use xlink:href="#DejaVuSans-74" transform="translate(464.697266 0.015625)"/>
     <use xlink:href="#DejaVuSans-75" transform="translate(503.90625 0.015625)"/>
     <use xlink:href="#DejaVuSans-6e" transform="translate(567.285156 0.015625)"/>
     <use xlink:href="#DejaVuSans-69" transform="translate(630.664062 0.015625)"/>
     <use xlink:href="#DejaVuSans-6e" transform="translate(658.447266 0.015625)"/>
     <use xlink:href="#DejaVuSans-67" transform="translate(721.826172 0.015625)"/>
     <use xlink:href="#DejaVuSans-3a" transform="translate(785.302734 0.015625)"/>
     <use xlink:href="#DejaVuSans-20" transform="translate(818.994141 0.015625)"/>
     <use xlink:href="#DejaVuSans-38" transform="translate(850.78125 0.015625)"/>
     <use xlink:href="#DejaVuSans-30" transform="translate(914.404297 0.015625)"/>
     <use xlink:href="#DejaVuSans-30" transform="translate(978.027344 0.015625)"/>
     <use xlink:href="#DejaVuSans-2e" transform="translate(1041.650391 0.015625)"/>
     <use xlink:href="#DejaVuSans-37" transform="translate(1065.6875 0.015625)"/>
     <use xlink:href="#DejaVuSans-b1" transform="translate(1129.310547 0.015625)"/>
     <use xlink:href="#DejaVuSans-31" transform="translate(1213.099609 0.015625)"/>
     <use xlink:href="#DejaVuSans-2e" transform="translate(1276.722656 0.015625)"/>
     <use xlink:href="#DejaVuSans-39" transform="translate(1308.509766 0.015625)"/>
     <use xlink:href="#DejaVuSans-20" transform="translate(1372.132812 0.015625)"/>
     <use xlink:href="#DejaVuSans-6b" transform="translate(1403.919922 0.015625)"/>
     <use xlink:href="#DejaVuSans-48" transform="translate(1461.830078 0.015625)"/>
     <use xlink:href="#DejaVuSans-7a" transform="translate(1537.025391 0.015625)"/>
    </g>
    <!--  -->
    <g transform="translate(422.3635 132.417475) scale(0.1 -0.1)"/>
   </g>
  </g>
  <g id="text_21">
   <!--  Ramsey -->
   <g transform="translate(194.356562 16.318125) scale(0.12 -0.12)">
    <defs>
     <path id="DejaVuSans-52" d="M 2841 2188 
Q 3044 2119 3236 1894 
Q 3428 1669 3622 1275 
L 4263 0 
L 3584 0 
L 2988 1197 
Q 2756 1666 2539 1819 
Q 2322 1972 1947 1972 
L 1259 1972 
L 1259 0 
L 628 0 
L 628 4666 
L 2053 4666 
Q 2853 4666 3247 4331 
Q 3641 3997 3641 3322 
Q 3641 2881 3436 2590 
Q 3231 2300 2841 2188 
z
M 1259 4147 
L 1259 2491 
L 2053 2491 
Q 2509 2491 2742 2702 
Q 2975 2913 2975 3322 
Q 2975 3731 2742 3939 
Q 2509 4147 2053 4147 
L 1259 4147 
z
" transform="scale(0.015625)"/>
    </defs>
    <use xlink:href="#DejaVuSans-20"/>
    <use xlink:href="#DejaVuSans-52" x="31.787109"/>
    <use xlink:href="#DejaVuSans-61" x="99.019531"/>
    <use xlink:href="#DejaVuSans-6d" x="160.298828"/>
    <use xlink:href="#DejaVuSans-73" x="257.710938"/>
    <use xlink:href="#DejaVuSans-65" x="309.810547"/>
    <use xlink:href="#DejaVuSans-79" x="371.333984"/>
   </g>
   <!-- tuid: 20230127-175706-104-b9c088 -->
   <g transform="translate(110.859063 29.7555) scale(0.12 -0.12)">
    <defs>
     <path id="DejaVuSans-2d" d="M 313 2009 
L 1997 2009 
L 1997 1497 
L 313 1497 
L 313 2009 
z
" transform="scale(0.015625)"/>
     <path id="DejaVuSans-62" d="M 3116 1747 
Q 3116 2381 2855 2742 
Q 2594 3103 2138 3103 
Q 1681 3103 1420 2742 
Q 1159 2381 1159 1747 
Q 1159 1113 1420 752 
Q 1681 391 2138 391 
Q 2594 391 2855 752 
Q 3116 1113 3116 1747 
z
M 1159 2969 
Q 1341 3281 1617 3432 
Q 1894 3584 2278 3584 
Q 2916 3584 3314 3078 
Q 3713 2572 3713 1747 
Q 3713 922 3314 415 
Q 2916 -91 2278 -91 
Q 1894 -91 1617 61 
Q 1341 213 1159 525 
L 1159 0 
L 581 0 
L 581 4863 
L 1159 4863 
L 1159 2969 
z
" transform="scale(0.015625)"/>
    </defs>
    <use xlink:href="#DejaVuSans-74"/>
    <use xlink:href="#DejaVuSans-75" x="39.208984"/>
    <use xlink:href="#DejaVuSans-69" x="102.587891"/>
    <use xlink:href="#DejaVuSans-64" x="130.371094"/>
    <use xlink:href="#DejaVuSans-3a" x="193.847656"/>
    <use xlink:href="#DejaVuSans-20" x="227.539062"/>
    <use xlink:href="#DejaVuSans-32" x="259.326172"/>
    <use xlink:href="#DejaVuSans-30" x="322.949219"/>
    <use xlink:href="#DejaVuSans-32" x="386.572266"/>
    <use xlink:href="#DejaVuSans-33" x="450.195312"/>
    <use xlink:href="#DejaVuSans-30" x="513.818359"/>
    <use xlink:href="#DejaVuSans-31" x="577.441406"/>
    <use xlink:href="#DejaVuSans-32" x="641.064453"/>
    <use xlink:href="#DejaVuSans-37" x="704.6875"/>
    <use xlink:href="#DejaVuSans-2d" x="768.310547"/>
    <use xlink:href="#DejaVuSans-31" x="804.394531"/>
    <use xlink:href="#DejaVuSans-37" x="868.017578"/>
    <use xlink:href="#DejaVuSans-35" x="931.640625"/>
    <use xlink:href="#DejaVuSans-37" x="995.263672"/>
    <use xlink:href="#DejaVuSans-30" x="1058.886719"/>
    <use xlink:href="#DejaVuSans-36" x="1122.509766"/>
    <use xlink:href="#DejaVuSans-2d" x="1186.132812"/>
    <use xlink:href="#DejaVuSans-31" x="1222.216797"/>
    <use xlink:href="#DejaVuSans-30" x="1285.839844"/>
    <use xlink:href="#DejaVuSans-34" x="1349.462891"/>
    <use xlink:href="#DejaVuSans-2d" x="1413.085938"/>
    <use xlink:href="#DejaVuSans-62" x="1449.169922"/>
    <use xlink:href="#DejaVuSans-39" x="1512.646484"/>
    <use xlink:href="#DejaVuSans-63" x="1576.269531"/>
    <use xlink:href="#DejaVuSans-30" x="1631.25"/>
    <use xlink:href="#DejaVuSans-38" x="1694.873047"/>
    <use xlink:href="#DejaVuSans-38" x="1758.496094"/>
   </g>
  </g>
 </g>
 <defs>
  <clipPath id="pfe7fa10fc5">
   <rect x="47.3875" y="41.76" width="357.12" height="266.112"/>
  </clipPath>
 </defs>
</svg>
